<svg width="40" height="40" viewBox="0 0 40 40" fill="none" xmlns="http://www.w3.org/2000/svg">
<path d="M15.3125 26.0577H9.15865C8.77404 26.0577 8.4375 26.3942 8.4375 26.7789V29.5192C8.4375 29.9039 8.77404 30.2404 9.15865 30.2404H15.3125C15.6971 30.2404 16.0337 29.9039 16.0337 29.5192V26.7789C16.0337 26.3462 15.6971 26.0577 15.3125 26.0577ZM11.5144 28.7981H9.87981V27.5H11.5144V28.7981ZM14.5913 28.75H12.9567V27.4519H14.5913V28.75Z" fill="#36C0F1"/>
<path d="M30.4063 26.0577H24.2524C23.8678 26.0577 23.5312 26.3942 23.5312 26.7789V29.5192C23.5312 29.9039 23.8678 30.2404 24.2524 30.2404H30.4063C30.7909 30.2404 31.1274 29.9039 31.1274 29.5192V26.7789C31.1274 26.3462 30.7909 26.0577 30.4063 26.0577ZM26.6082 28.7981H24.9736V27.5H26.6082V28.7981ZM29.6851 28.75H28.0505V27.4519H29.6851V28.75Z" fill="#36C0F1"/>
<path d="M22.4288 3.07692H17.0922C16.7076 3.07692 16.3711 3.41346 16.3711 3.79807C16.3711 4.18269 16.7076 4.51923 17.0922 4.51923H22.4288C22.8134 4.51923 23.1499 4.18269 23.1499 3.79807C23.1499 3.41346 22.8134 3.07692 22.4288 3.07692Z" fill="#36C0F1"/>
<path d="M35.165 6.58654H34.2515V4.75962C34.2515 2.11538 32.1361 0 29.4919 0H10.4534C7.8092 0 5.69381 2.11538 5.69381 4.75962V6.58654H4.78035C3.53035 6.58654 2.47266 7.64423 2.47266 8.94231V14.2788C2.47266 15.5769 3.53035 16.6346 4.82843 16.6346H5.74189V29.9038V31.3942V38.0288C5.74189 39.0865 6.60727 40 7.71304 40H13.4823C14.54 40 15.4534 39.1346 15.4534 38.0288V36.1538H24.54V38.0288C24.54 39.0865 25.4054 40 26.5111 40H32.2804C33.338 40 34.2515 39.1346 34.2515 38.0288V31.4423V29.9519V16.6346H35.165C36.463 16.6346 37.5207 15.5769 37.5207 14.2788V8.94231C37.5207 7.64423 36.463 6.58654 35.165 6.58654ZM5.69381 15.1923H4.78035C4.29958 15.1923 3.86689 14.8077 3.86689 14.2788V8.94231C3.86689 8.46154 4.2515 8.02885 4.78035 8.02885H5.69381V15.1923ZM13.3861 38.5577H7.61689C7.32843 38.5577 7.08804 38.3173 7.08804 38.0288V34.8077C7.95343 35.625 9.10727 36.1538 10.4053 36.1538H13.8669V38.0288H13.915C13.915 38.3173 13.6746 38.5577 13.3861 38.5577ZM32.088 38.5577H26.3188C26.0303 38.5577 25.79 38.3173 25.79 38.0288V36.1538H29.2515C30.5496 36.1538 31.7034 35.625 32.5688 34.8077V38.0288C32.6169 38.3173 32.3765 38.5577 32.088 38.5577ZM32.6169 29.9038V31.4423C32.6169 33.2692 31.1265 34.7596 29.2996 34.7596H10.4534C8.6265 34.7596 7.13612 33.2692 7.13612 31.4423V29.9519V24.7115H32.4246C32.5207 24.7115 32.5688 24.7115 32.6169 24.6635V29.9038ZM32.6169 23.3654C32.5688 23.3654 32.4727 23.3173 32.4246 23.3173H30.9823L20.3573 16.3942C20.0207 16.2019 19.588 16.25 19.3477 16.5865C19.1553 16.9231 19.2034 17.3558 19.54 17.5962L28.29 23.2692H19.9727L9.39573 16.3942C9.0592 16.2019 8.6265 16.25 8.38612 16.5865C8.19381 16.9231 8.24189 17.3558 8.57843 17.5962L17.3284 23.2692H7.13612V8.02885H32.6169V23.3654ZM32.6169 6.58654H7.13612V4.75962C7.13612 2.93269 8.6265 1.44231 10.4534 1.44231H29.2996C31.1265 1.44231 32.6169 2.93269 32.6169 4.75962V6.58654ZM35.838 14.2788C35.838 14.7596 35.4534 15.1923 34.9246 15.1923H34.0111V8.02885H34.9246C35.4534 8.02885 35.838 8.46154 35.838 8.94231V14.2788Z" fill="#36C0F1"/>
</svg>
