<svg width="40" height="40" viewBox="0 0 40 40" fill="none" xmlns="http://www.w3.org/2000/svg">
<path d="M38.4701 16.0256L37.5983 15.1026L34.5385 6.8547C34.0171 5.46154 32.6838 4.53846 31.1966 4.52991H9.34188C7.8547 4.52991 6.52137 5.46154 6 6.8547L2.98291 15L1.7265 16.1624C0.632479 17.094 0 18.4615 0 19.8974V31.9145C0.00854701 33.8803 1.60684 35.4701 3.57265 35.4701H5.82906C7.79487 35.4701 9.39316 33.8803 9.40171 31.9145V30.1709H30.5983V31.9145C30.6068 33.8803 32.2051 35.4701 34.1709 35.4701H36.4274C38.3932 35.4701 39.9915 33.8803 40 31.9145V19.5812C39.9915 18.2393 39.4444 16.9573 38.4701 16.0256ZM7.60684 7.4359C7.88034 6.7094 8.57265 6.23932 9.34188 6.23932H31.2051C31.9744 6.23932 32.6667 6.71795 32.9402 7.4359L35.6068 14.6154H33.6154C33.1453 11.4103 30.1624 9.19658 26.9573 9.67521C24.4017 10.0513 22.3932 12.0598 22.0171 14.6154H4.94017L7.60684 7.4359ZM31.8718 14.6154H23.7436C24.2137 12.3675 26.4188 10.9316 28.6667 11.4017C30.2735 11.7436 31.5299 13 31.8718 14.6154ZM7.69231 31.9145C7.68376 32.9402 6.8547 33.7607 5.82906 33.7607H3.57265C2.54701 33.7607 1.71795 32.9402 1.7094 31.9145V29.6752C2.22222 30.0085 2.89744 30.1709 3.57265 30.1709H7.69231V31.9145ZM38.2906 31.9145C38.2821 32.9402 37.453 33.7607 36.4274 33.7607H34.1709C33.1453 33.7607 32.3162 32.9316 32.3077 31.9145V30.1709H36.4274C37.1026 30.1709 37.7778 30.0085 38.2906 29.6752V31.9145ZM36.4274 28.4615H3.57265C2.55556 28.4701 1.71795 27.6581 1.7094 26.6325V19.8974C1.7094 18.9573 2.12821 18.0598 2.84615 17.453C2.8547 17.4444 2.87179 17.4274 2.88034 17.4188L4.04274 16.3248H36.4103L37.2308 17.2051C37.2393 17.2222 37.265 17.2308 37.2735 17.2479C37.9145 17.8547 38.2821 18.7009 38.2821 19.5812V26.6325H38.2906C38.2821 27.6496 37.4444 28.4701 36.4274 28.4615Z" fill="#36C0F1"/>
<path d="M11.2806 19.7436H4.87033C4.40024 19.7436 4.01562 20.1282 4.01562 20.5983V25.0427C4.01562 25.5128 4.40024 25.8974 4.87033 25.8974H11.2806C11.7507 25.8974 12.1353 25.5128 12.1353 25.0427V20.5983C12.1353 20.1282 11.7507 19.7436 11.2806 19.7436ZM10.4259 24.188H5.72503V21.453H10.4259V24.188Z" fill="#36C0F1"/>
<path d="M35.1282 19.7436H28.718C28.2479 19.7436 27.8633 20.1282 27.8633 20.5983V25.0427C27.8633 25.5128 28.2479 25.8974 28.718 25.8974H35.1282C35.5983 25.8974 35.9829 25.5128 35.9829 25.0427V20.5983C35.9829 20.1282 35.5983 19.7436 35.1282 19.7436ZM34.2735 24.188H29.5727V21.453H34.2735V24.188Z" fill="#36C0F1"/>
<path d="M24.1306 23.3333H15.8742C15.4041 23.3333 15.0195 23.7179 15.0195 24.188C15.0195 24.6581 15.4041 25.0427 15.8742 25.0427H24.1306C24.6007 25.0427 24.9853 24.6581 24.9853 24.188C24.9853 23.7179 24.6007 23.3333 24.1306 23.3333Z" fill="#36C0F1"/>
<path d="M24.1306 20.6838H15.8742C15.4041 20.6838 15.0195 21.0684 15.0195 21.5385C15.0195 22.0085 15.4041 22.3932 15.8742 22.3932H24.1306C24.6007 22.3932 24.9853 22.0085 24.9853 21.5385C24.9853 21.0684 24.6007 20.6838 24.1306 20.6838Z" fill="#36C0F1"/>
</svg>
