<svg width="20" height="18" viewBox="0 0 20 18" fill="none" xmlns="http://www.w3.org/2000/svg">
<path d="M6.48438 11.8566H17.0705C17.3326 11.8566 17.5626 11.6843 17.6335 11.4339L19.9774 3.27714C20.0278 3.10129 19.9933 2.9124 19.8824 2.76629C19.7713 2.62063 19.5985 2.5346 19.4142 2.5346H5.13168L4.71283 0.660516C4.65332 0.393635 4.41528 0.204132 4.14062 0.204132H0.585938C0.262146 0.204132 0 0.464793 0 0.78675C0 1.10886 0.262146 1.36937 0.585938 1.36937H3.67035L5.78629 10.8369C5.16373 11.1061 4.72656 11.7222 4.72656 12.4393C4.72656 13.403 5.51514 14.1871 6.48438 14.1871H17.0705C17.3944 14.1871 17.6564 13.9266 17.6564 13.6045C17.6564 13.2825 17.3944 13.0219 17.0705 13.0219H6.48438C6.16165 13.0219 5.89844 12.7608 5.89844 12.4393C5.89844 12.1178 6.16165 11.8566 6.48438 11.8566V11.8566Z" fill="#FFA800"/>
<path d="M5.89844 15.935C5.89844 16.8989 6.68701 17.6828 7.6564 17.6828C8.62564 17.6828 9.41422 16.8989 9.41422 15.935C9.41422 14.9712 8.62564 14.1871 7.6564 14.1871C6.68701 14.1871 5.89844 14.9712 5.89844 15.935Z" fill="#FFA800"/>
<path d="M14.1406 15.935C14.1406 16.8989 14.9292 17.6828 15.8984 17.6828C16.8678 17.6828 17.6562 16.8989 17.6562 15.935C17.6562 14.9712 16.8678 14.1871 15.8984 14.1871C14.9292 14.1871 14.1406 14.9712 14.1406 15.935Z" fill="#FFA800"/>
</svg>
