<svg width="20" height="34" viewBox="0 0 20 34" fill="none" xmlns="http://www.w3.org/2000/svg">
<path d="M12.9664 18.7388V4.46042C12.9664 1.99696 10.9694 0 8.50598 0C6.04253 0 4.04556 1.99696 4.04556 4.46042V18.7325C0.190245 21.1922 -0.941186 26.3116 1.51854 30.167C3.0365 32.5461 5.66163 33.9883 8.48379 33.9937L8.52817 34C13.1014 33.9914 16.8017 30.2772 16.7931 25.7041C16.7878 22.8819 15.3455 20.2568 12.9664 18.7388ZM5.02197 31.7959C1.66493 29.8578 0.514791 25.5651 2.45295 22.2082C3.06899 21.1412 3.95497 20.2552 5.02197 19.6392C5.21892 19.5254 5.33986 19.3149 5.33899 19.0876V4.46042C5.33899 2.69733 6.76825 1.26807 8.53134 1.26807C10.2944 1.26807 11.7237 2.69733 11.7237 4.46042V19.0876C11.7228 19.3149 11.8438 19.5254 12.0407 19.6392C15.3978 21.5773 16.5479 25.87 14.6097 29.2269C12.6716 32.584 8.37894 33.7342 5.02197 31.7959Z" fill="white"/>
<path d="M9.16221 21.1608V11.5426C9.16221 11.1924 8.87832 10.9085 8.52818 10.9085C8.17803 10.9085 7.89415 11.1924 7.89415 11.5426V21.1608C5.49901 21.5043 3.83578 23.7244 4.17927 26.1195C4.48931 28.2814 6.34417 29.8848 8.52818 29.8788C10.9478 29.8854 12.9147 27.9294 12.9215 25.5098C12.9275 23.3257 11.3241 21.4709 9.16221 21.1608ZM8.52818 28.6044C6.80884 28.6044 5.41508 27.2106 5.41508 25.4913C5.41856 23.7735 6.81027 22.3817 8.52818 22.3782C10.2475 22.3782 11.6413 23.7719 11.6413 25.4913C11.6413 27.2106 10.2474 28.6044 8.52818 28.6044Z" fill="white"/>
<path d="M19.1482 4.35895H15.1855C14.8353 4.35895 14.5515 4.64284 14.5515 4.99298C14.5515 5.34313 14.8353 5.62701 15.1855 5.62701H19.1482C19.4983 5.62701 19.7822 5.34313 19.7822 4.99298C19.7822 4.64284 19.4983 4.35895 19.1482 4.35895Z" fill="white"/>
<path d="M18.3049 7.52911H15.978C15.6279 7.52911 15.344 7.813 15.344 8.16315C15.344 8.51329 15.6279 8.79718 15.978 8.79718H18.3049C18.6551 8.79718 18.939 8.51329 18.939 8.16315C18.939 7.813 18.6551 7.52911 18.3049 7.52911Z" fill="white"/>
<path d="M19.1482 10.6993H15.1855C14.8353 10.6993 14.5515 10.9832 14.5515 11.3333C14.5515 11.6835 14.8353 11.9674 15.1855 11.9674H19.1482C19.4983 11.9674 19.7822 11.6835 19.7822 11.3333C19.7822 10.9832 19.4983 10.6993 19.1482 10.6993Z" fill="white"/>
<path d="M18.3049 13.8694H15.978C15.6279 13.8694 15.344 14.1533 15.344 14.5035C15.344 14.8536 15.6279 15.1375 15.978 15.1375H18.3049C18.6551 15.1375 18.939 14.8536 18.939 14.5035C18.939 14.1533 18.6551 13.8694 18.3049 13.8694Z" fill="white"/>
<path d="M19.1482 17.0396H15.1855C14.8353 17.0396 14.5515 17.3235 14.5515 17.6736C14.5515 18.0238 14.8353 18.3077 15.1855 18.3077H19.1482C19.4983 18.3077 19.7822 18.0238 19.7822 17.6736C19.7822 17.3235 19.4983 17.0396 19.1482 17.0396Z" fill="white"/>
</svg>
