<svg width="70" height="70" viewBox="0 0 70 70" fill="none" xmlns="http://www.w3.org/2000/svg">
<path d="M59.5 0H47.8333C47.1891 0 46.6667 0.52238 46.6667 1.16667V4.66667C46.6667 5.22095 47.0569 5.69889 47.5998 5.80998L48.7163 6.03385C49.6677 6.22697 50.5626 6.63428 51.3333 7.22388V7.45744C51.3356 9.69564 50.2168 11.7863 48.3523 13.0259L49.6477 14.9673C51.4741 13.7499 52.7928 11.9076 53.3551 9.78621C53.4992 10.1064 53.6165 10.4385 53.7054 10.7786C53.833 11.2987 54.2984 11.6644 54.8333 11.6667H57.1667V14.9952L54.0073 25.5254L56.2427 26.1965L59.2015 16.3333H64.3592L66.5 28.1048V54.8333C66.5 56.7662 64.9329 58.3333 63 58.3333H59.9865V60.6667H63C66.2203 60.6627 68.8294 58.0536 68.8333 54.8333V28C68.8333 27.9299 68.8265 27.8599 68.8134 27.7909L66.5 15.0653V11.6667H68.8333C69.4776 11.6667 70 11.1443 70 10.5C69.9937 4.70369 65.2963 0.00626628 59.5 0ZM64.1667 14H59.5V11.6667H64.1667V14ZM55.693 9.33333C54.6374 6.46737 52.1719 4.35278 49.1783 3.74609L49 3.71021V2.33333H59.5C63.5577 2.33846 66.9985 5.31779 67.5841 9.33333H55.693Z" fill="white"/>
<path d="M5.83333 60.6667H14V58.3333H5.83333C3.90047 58.3333 2.33333 56.7662 2.33333 54.8333V38.128C2.33333 36.9351 2.49968 35.7485 2.8278 34.6024L4.62223 28.3207C4.68718 28.0946 4.68148 27.8542 4.60628 27.6314L2.55721 21.4854C1.98812 19.773 2.52531 17.8874 3.91187 16.7321L8.58879 12.8333H19.4112L22.7944 15.6543L24.2887 13.8621L21 11.1192V8.16667C21 7.85734 20.877 7.56055 20.6582 7.3418L18.6667 5.35026V1.16667C18.6667 0.52238 18.1443 0 17.5 0H10.5C9.85571 0 9.33333 0.52238 9.33333 1.16667V5.35026L7.3418 7.3418C7.12305 7.56055 7 7.85734 7 8.16667V11.1192L2.41707 14.9394C0.293947 16.7099 -0.526366 19.6015 0.349773 22.2236L2.2832 28.0268L0.583335 33.9604C0.195965 35.3156 -0.000568427 36.7181 1.23483e-06 38.128V54.8333C0.00398887 58.0536 2.61304 60.6627 5.83333 60.6667ZM11.6667 2.33333H16.3333V4.66667H11.6667V2.33333ZM9.33333 8.64974L10.9831 7H17.0169L18.6667 8.64974V10.5H9.33333V8.64974Z" fill="white"/>
<path d="M21 19.8333C21 17.2163 17.9244 15.1667 14 15.1667C10.0756 15.1667 7.00001 17.2163 7.00001 19.8333C7.00001 22.4504 10.0756 24.5 14 24.5C17.9244 24.5 21 22.4504 21 19.8333ZM9.33334 19.8333C9.33334 18.7322 11.3294 17.5 14 17.5C16.6706 17.5 18.6667 18.7322 18.6667 19.8333C18.6667 20.9345 16.6706 22.1667 14 22.1667C11.3294 22.1667 9.33334 20.9345 9.33334 19.8333Z" fill="white"/>
<path d="M12.7166 38.6958L13.5004 36.4992L6.22527 33.901C5.86809 33.7734 5.47104 33.8275 5.16114 34.0462C4.85125 34.265 4.66668 34.6204 4.66668 34.9998V48.9998C4.67066 52.2201 7.27971 54.8292 10.5 54.8332H12.8333V52.4998H10.5C8.56715 52.4998 7.00001 50.9327 7.00001 48.9998V36.6553L12.7166 38.6958Z" fill="white"/>
<path d="M44.1256 37.8056C47.3584 42.0712 48.4026 47.6066 46.9454 52.7569C46.3877 54.5707 47.3949 56.4951 49.203 57.071C51.0111 57.6469 52.9456 56.6591 53.5398 54.8567C56.1568 47.4454 54.7913 39.2104 49.923 33.0398L49.4565 32.444C48.1873 30.8204 45.8448 30.5276 44.215 31.7883C42.5846 33.0495 42.2799 35.3902 43.532 37.0263L44.1256 37.8056ZM45.1293 34.4281C45.2518 33.8989 45.6676 33.487 46.1986 33.3691C46.7289 33.2517 47.2798 33.4488 47.6153 33.8767L48.0819 34.4725C52.458 40.017 53.6856 47.4181 51.3335 54.0786C51.1774 54.4528 50.8379 54.7189 50.4368 54.7815C50.0364 54.8442 49.6319 54.6944 49.3687 54.3856C49.1557 54.1031 49.0873 53.7368 49.1859 53.3972C50.8424 47.5394 49.6547 41.2435 45.9775 36.3917L45.3765 35.6033C45.123 35.2683 45.0319 34.8371 45.1293 34.4281Z" fill="white"/>
<path d="M21.1961 69.481C21.4126 69.8052 21.7766 70 22.1668 70H50.1668C50.5211 70 50.8566 69.8394 51.0777 69.5625L53.9943 65.9155C59.066 59.5735 61.3948 51.4689 60.4623 43.4025C59.5303 35.3355 55.4145 27.9755 49.0303 22.9579L44.3335 19.2665V15.1667C44.3335 14.5224 43.8111 14 43.1668 14H42.0001V9.33333C42.0001 8.04476 40.9554 7 39.6668 7H30.3335C29.0449 7 28.0001 8.04476 28.0001 9.33333V14H26.8335C26.1892 14 25.6668 14.5224 25.6668 15.1667V19.4015L24.1105 21.2182C12.4843 34.8553 11.2954 54.5434 21.1961 69.481ZM30.3335 9.33333H39.6668V14H30.3335V9.33333ZM25.8815 22.7358L27.7187 20.5927C27.9004 20.3813 28.0001 20.1119 28.0001 19.8333V16.3333H42.0001V18.6667H30.3335V21H42.7629L47.5896 24.7917C53.4851 29.4253 57.2853 36.2214 58.146 43.6702C59.0068 51.1186 56.8563 58.6022 52.1737 64.4583L49.6068 67.6667H22.7968C13.8304 53.6416 15.0825 35.4039 25.8815 22.7358Z" fill="white"/>
<path d="M33.25 60.6667C37.7515 60.6695 41.9533 58.4108 44.4336 54.655C44.5977 54.4078 44.6615 54.1082 44.6119 53.8159C43.198 45.4163 40.0227 38.8219 35.1703 34.2161C34.9795 34.0344 34.7328 33.9222 34.4702 33.8988C34.0669 33.8578 33.663 33.8333 33.25 33.8333C25.8404 33.8333 19.8333 39.8404 19.8333 47.25C19.8333 54.6596 25.8404 60.6667 33.25 60.6667ZM33.25 36.1667C33.4539 36.1667 33.6573 36.1746 33.8578 36.1877C38.0836 40.3457 40.8977 46.2457 42.2313 53.739C39.1648 57.9853 33.5445 59.5051 28.7559 57.3831C23.9674 55.2612 21.3179 50.0772 22.4031 44.9531C23.4883 39.8296 28.0125 36.165 33.25 36.1667Z" fill="white"/>
</svg>
