<svg width="71" height="70" viewBox="0 0 71 70" fill="none" xmlns="http://www.w3.org/2000/svg">
<path d="M46.5076 11.7105C40.4766 11.7031 34.6585 13.9408 30.1866 17.9874C25.0316 11.3832 15.7139 9.75408 8.62465 14.2186C1.53486 18.6825 -1.02327 27.7891 2.70463 35.2921C6.43253 42.7946 15.2357 46.2561 23.0752 43.3023C23.4059 44.3879 23.8146 45.4478 24.2973 46.4747C19.5294 49.6134 17.4125 55.5266 19.1042 60.9781C20.796 66.4291 25.8889 70.1052 31.5954 69.9936C37.3026 69.8821 42.2475 66.0101 43.7252 60.4966C52.7464 61.536 61.6014 57.495 66.7279 49.9994C71.8538 42.5037 72.4082 32.7858 68.1675 24.7556C63.9267 16.7255 55.5886 11.7037 46.5076 11.7105ZM3.37348 28.0315C3.3638 22.0148 7.20897 16.6685 12.9161 14.7633C18.6232 12.8581 24.9092 14.8225 28.5159 19.6382C24.3377 24.1374 22.0192 30.0523 22.0261 36.1921C22.0295 37.8138 22.1934 39.4304 22.5145 41.0197C18.2099 42.7451 13.3288 42.2185 9.49102 39.6143C5.65325 37.0106 3.36096 32.6696 3.37348 28.0315ZM31.3524 67.6683C25.5576 67.6683 20.8603 62.971 20.8603 57.1762C20.8603 51.382 25.5576 46.6841 31.3524 46.6841C37.1472 46.6841 41.8445 51.382 41.8445 57.1762C41.8382 62.9682 37.1443 67.6621 31.3524 67.6683ZM46.5076 58.342C45.7113 58.3363 44.916 58.2879 44.1248 58.1963C44.1516 57.8593 44.176 57.5206 44.176 57.1762C44.176 52.8768 42.0204 48.8632 38.4365 46.4878C34.852 44.1124 30.3158 43.6917 26.3557 45.3669C25.7762 44.1089 25.3185 42.7986 24.9895 41.4535C24.5705 39.731 24.3582 37.9646 24.3577 36.1921C24.3577 23.9593 34.2748 14.0421 46.5076 14.0421C58.741 14.0421 68.6576 23.9593 68.6576 36.1921C68.6576 48.4254 58.741 58.342 46.5076 58.342Z" fill="white"/>
<path d="M11.5344 52.5129C11.5344 51.8691 11.0124 51.3471 10.3686 51.3471C9.72481 51.3471 9.20283 51.8691 9.20283 52.5129C9.20283 54.4449 7.63687 56.0103 5.70546 56.0103C5.06166 56.0103 4.53968 56.5323 4.53968 57.1761C4.53968 57.8199 5.06166 58.3419 5.70546 58.3419C7.63687 58.3419 9.20283 59.9078 9.20283 61.8392C9.20283 62.483 9.72481 63.005 10.3686 63.005C11.0124 63.005 11.5344 62.483 11.5344 61.8392C11.5344 59.9078 13.1004 58.3419 15.0318 58.3419C15.6756 58.3419 16.1975 57.8199 16.1975 57.1761C16.1975 56.5323 15.6756 56.0103 15.0318 56.0103C13.1004 56.0103 11.5344 54.4449 11.5344 52.5129ZM10.3686 58.3783C10.0294 57.9206 9.62406 57.5159 9.16696 57.1761C9.62406 56.8368 10.0294 56.4315 10.3686 55.9744C10.7084 56.4315 11.1132 56.8368 11.5708 57.1761C11.1132 57.5159 10.7084 57.9206 10.3686 58.3783Z" fill="white"/>
<path d="M58.1656 10.5448C58.1656 11.1886 58.6876 11.7105 59.3314 11.7105C59.9752 11.7105 60.4971 11.1886 60.4971 10.5448C60.4971 8.61335 62.0631 7.0474 63.9945 7.0474C64.6383 7.0474 65.1603 6.52541 65.1603 5.88161C65.1603 5.23781 64.6383 4.71582 63.9945 4.71582C62.0631 4.71582 60.4971 3.15043 60.4971 1.21846C60.4971 0.574659 59.9752 0.0526733 59.3314 0.0526733C58.6876 0.0526733 58.1656 0.574659 58.1656 1.21846C58.1656 3.15043 56.5996 4.71582 54.6682 4.71582C54.0244 4.71582 53.5024 5.23781 53.5024 5.88161C53.5024 6.52541 54.0244 7.0474 54.6682 7.0474C56.5996 7.0474 58.1656 8.61335 58.1656 10.5448ZM59.3314 4.67996C59.6712 5.13705 60.0759 5.54235 60.5336 5.88161C60.0759 6.22144 59.6712 6.62616 59.3314 7.08383C58.9921 6.62616 58.5868 6.22144 58.1297 5.88161C58.5868 5.54235 58.9921 5.13705 59.3314 4.67996Z" fill="white"/>
<path d="M61.6632 36.1919C59.7318 36.1919 58.1659 34.6265 58.1659 32.6945C58.1659 32.0507 57.6439 31.5287 57.0001 31.5287C56.3563 31.5287 55.8343 32.0507 55.8343 32.6945C55.8343 34.6265 54.2683 36.1919 52.3369 36.1919C51.6931 36.1919 51.1711 36.7139 51.1711 37.3577C51.1711 38.0015 51.6931 38.5234 52.3369 38.5234C54.2683 38.5234 55.8343 40.0894 55.8343 42.0208C55.8343 42.6646 56.3563 43.1866 57.0001 43.1866C57.6439 43.1866 58.1659 42.6646 58.1659 42.0208C58.1659 40.0894 59.7318 38.5234 61.6632 38.5234C62.307 38.5234 62.829 38.0015 62.829 37.3577C62.829 36.7139 62.307 36.1919 61.6632 36.1919ZM57.0001 38.5599C56.6608 38.1022 56.2555 37.6975 55.7984 37.3577C56.2555 37.0184 56.6608 36.6131 57.0001 36.156C57.3399 36.6131 57.7446 37.0184 58.2023 37.3577C57.7446 37.6975 57.3399 38.1022 57.0001 38.5599Z" fill="white"/>
<path d="M48.8392 26.8656C48.8392 26.2218 48.3172 25.6998 47.6734 25.6998C45.742 25.6998 44.1761 24.1345 44.1761 22.2025C44.1761 21.5587 43.6541 21.0367 43.0103 21.0367C42.3665 21.0367 41.8445 21.5587 41.8445 22.2025C41.8445 24.1345 40.2786 25.6998 38.3472 25.6998C37.7034 25.6998 37.1814 26.2218 37.1814 26.8656C37.1814 27.5094 37.7034 28.0314 38.3472 28.0314C40.2786 28.0314 41.8445 29.5974 41.8445 31.5288C41.8445 32.1726 42.3665 32.6946 43.0103 32.6946C43.6541 32.6946 44.1761 32.1726 44.1761 31.5288C44.1761 29.5974 45.742 28.0314 47.6734 28.0314C48.3172 28.0314 48.8392 27.5094 48.8392 26.8656ZM43.0103 28.0679C42.671 27.6102 42.2657 27.2055 41.8087 26.8656C42.2657 26.5264 42.671 26.1211 43.0103 25.664C43.3501 26.1211 43.7549 26.5264 44.2125 26.8656C43.7549 27.2055 43.3501 27.6102 43.0103 28.0679Z" fill="white"/>
<path d="M15.0317 47.8498H17.3633V50.1814H15.0317V47.8498Z" fill="white"/>
<path d="M3.37362 64.1708H5.70519V66.5024H3.37362V64.1708Z" fill="white"/>
<path d="M69.8235 60.6735C69.8235 58.7421 68.2576 57.1762 66.3262 57.1762C64.3948 57.1762 62.8288 58.7421 62.8288 60.6735C62.8288 62.6055 64.3948 64.1709 66.3262 64.1709C68.2576 64.1709 69.8235 62.6055 69.8235 60.6735ZM65.1604 60.6735C65.1604 60.0297 65.6824 59.5077 66.3262 59.5077C66.97 59.5077 67.492 60.0297 67.492 60.6735C67.492 61.3173 66.97 61.8393 66.3262 61.8393C65.6824 61.8393 65.1604 61.3173 65.1604 60.6735Z" fill="white"/>
<path d="M36.0156 8.21316C36.0156 5.63795 33.9277 3.55001 31.3525 3.55001C28.7773 3.55001 26.6894 5.63795 26.6894 8.21316C26.6894 10.7889 28.7773 12.8763 31.3525 12.8763C33.9277 12.8763 36.0156 10.7889 36.0156 8.21316ZM29.0209 8.21316C29.0209 6.92556 30.0649 5.88159 31.3525 5.88159C32.6401 5.88159 33.6841 6.92556 33.6841 8.21316C33.6841 9.50133 32.6401 10.5447 31.3525 10.5447C30.0649 10.5447 29.0209 9.50133 29.0209 8.21316Z" fill="white"/>
<path d="M43.0104 5.88129H45.342V8.21286H43.0104V5.88129Z" fill="white"/>
<path d="M47.6734 49.0154H50.005V51.347H47.6734V49.0154Z" fill="white"/>
<path d="M54.6685 64.1708H57V66.5024H54.6685V64.1708Z" fill="white"/>
<path d="M15.0317 30.3631H17.3633V32.6947H15.0317V30.3631Z" fill="white"/>
<path d="M5.70519 30.4681L8.03677 30.2581C8.03108 30.2023 7.57057 24.654 10.6421 21.2813C12.4045 19.4916 14.8556 18.5518 17.3631 18.705V16.3734C14.1964 16.206 11.1135 17.4248 8.9168 19.7125C5.15361 23.8349 5.68527 30.2 5.70519 30.4681Z" fill="white"/>
<path d="M47.6734 16.3737V18.7053C48.2563 18.7053 61.8438 18.954 64.0075 35.1806L66.318 34.8726C63.8777 16.586 47.8356 16.3737 47.6734 16.3737Z" fill="white"/>
</svg>
