<svg width="40" height="40" viewBox="0 0 40 40" fill="none" xmlns="http://www.w3.org/2000/svg">
<path d="M38.4034 12.2144C36.2945 7.29778 32.7108 3.72203 27.7531 1.60759C25.2752 0.55079 22.6792 0.0109863 19.9671 0.0109863C17.2555 0.0109863 14.6786 0.545692 12.2035 1.60759C7.2868 3.71641 3.68726 7.28987 1.57464 12.2144C0.516013 14.6816 0 17.2664 0 19.978C0 22.6902 0.516013 25.2964 1.57464 27.7641C3.68726 32.6887 7.28725 36.2836 12.2035 38.3929C14.6791 39.4548 17.2554 39.989 19.9671 39.989C22.6788 39.989 25.2752 39.4492 27.7527 38.3929C32.7105 36.2784 36.2941 32.6803 38.4035 27.7641C39.4653 25.2885 40 22.6902 40 19.978C40 17.2664 39.4658 14.69 38.4034 12.2144ZM35.2107 28.8139C33.6407 31.5064 31.4899 33.6424 28.781 35.2217C26.0885 36.7917 23.1384 37.5834 19.9676 37.5834C17.5839 37.5834 15.3094 37.1244 13.1441 36.1838C10.9788 35.2436 9.10922 34.0077 7.54529 32.4442C5.98137 30.8803 4.7366 28.9925 3.80582 26.8235C2.87778 24.6624 2.42804 22.3622 2.42804 19.9781C2.42804 16.8069 3.20719 13.8717 4.76837 11.1867C6.3351 8.49183 8.48641 6.35353 11.1761 4.77883C13.8654 3.20419 16.7964 2.41661 19.9671 2.41661C23.1384 2.41661 26.088 3.20883 28.7805 4.77883C31.4894 6.35817 33.6356 8.4964 35.2103 11.1866C36.7849 13.8763 37.572 16.8069 37.572 19.978C37.572 23.1493 36.7901 26.1045 35.2107 28.8139Z" fill="#36C0F1"/>
<path d="M21.2351 19.8032V8.47446C21.2351 7.79655 20.6445 7.24976 19.9665 7.24976C19.3324 7.24976 18.7637 7.79655 18.7637 8.47446V19.9781C18.7637 20 18.8075 20.0877 18.8075 20.1531C18.7637 20.5468 18.8733 20.8749 19.1356 21.1376L25.675 27.6765C26.1125 28.1141 26.9216 28.1141 27.3588 27.6765C27.8617 27.1736 27.8286 26.4438 27.3588 25.9707L21.2351 19.8032Z" fill="#36C0F1"/>
</svg>
