<svg width="34" height="34" viewBox="0 0 34 34" fill="none" xmlns="http://www.w3.org/2000/svg">
<path d="M30.7196 31.5893C28.7376 29.6075 26.1033 28.5161 23.3003 28.5161C22.6534 28.5161 22.0145 28.582 21.3871 28.6982V26.5496L27.9578 19.9789C28.3183 19.6185 28.5161 19.1403 28.5161 18.6315C28.5161 17.5808 27.6611 16.7258 26.6104 16.7258C26.1086 16.7258 25.6173 16.9293 25.263 17.2841L23.0416 19.505C22.8914 19.6557 22.6828 19.7419 22.4702 19.7419C22.0244 19.7419 21.6613 19.3788 21.6613 18.933C21.6613 18.7169 21.7451 18.5142 21.8983 18.3611L26.8046 13.4548C27.2011 13.0582 27.4194 12.5312 27.4194 11.9708C27.4194 10.8124 26.4774 9.87097 25.3201 9.87097C24.7591 9.87097 24.2321 10.0892 23.8356 10.4863L22.5503 11.771C22.3588 11.9625 22.1516 12.1315 21.9355 12.2854V10.4167C21.9355 7.94679 22.4284 5.54305 23.4018 3.27265C23.5209 2.99524 23.5806 2.70257 23.5806 2.4008V2.21042C23.5806 0.991542 22.5891 0 21.3708 0C20.4976 0 19.7053 0.514916 19.3505 1.31286L18.9314 2.25433C18.3886 3.47615 18.0084 4.74349 17.7848 6.04163L15.0999 3.35726C14.7034 2.96017 14.1769 2.74194 13.6154 2.74194C12.4581 2.74194 11.5161 3.6834 11.5161 4.84177C11.5161 5.4022 11.7344 5.92917 12.1309 6.32627L15.6098 9.80403C15.7991 9.99387 15.9032 10.2456 15.9032 10.5131C15.9032 11.0665 15.4536 11.5161 14.9007 11.5161C14.637 11.5161 14.3788 11.4093 14.1917 11.2221L12.6892 9.72021C12.256 9.28697 11.68 9.04839 11.0676 9.04839C9.80295 9.04839 8.77419 10.0771 8.77419 11.3418C8.77419 11.9542 9.01277 12.5302 9.44602 12.9634L15.0614 18.5782C15.2507 18.7681 15.3548 19.0198 15.3548 19.2873C15.3548 19.8407 14.9053 20.2903 14.3523 20.2903C14.0886 20.2903 13.8304 20.1835 13.6433 19.9963L11.4789 17.8325C11.1247 17.4777 10.6333 17.2737 10.1315 17.2737C9.08079 17.2742 8.22581 18.1292 8.22581 19.1799C8.22581 19.6887 8.42369 20.1669 8.7841 20.5273L13.7097 25.4529V28.2497C12.9096 28.0708 12.0897 27.9677 11.2561 27.9677C7.76578 27.9677 4.53464 29.5476 2.39196 32.3032L1.92551 32.9032H0V34H34V32.9032H32.0335L30.7196 31.5893ZM23.3011 29.6129C25.8098 29.6129 28.1696 30.5903 29.9436 32.3647L30.4826 32.9032H21.0492L18.7686 30.8505C18.752 30.8358 18.7335 30.8232 18.7169 30.8085C20.116 30.0247 21.6859 29.6129 23.3011 29.6129ZM9.55956 19.7524C9.40639 19.5987 9.32258 19.396 9.32258 19.1799C9.32258 18.7341 9.68514 18.371 10.1315 18.371C10.3446 18.371 10.5532 18.4572 10.7035 18.6079L12.8678 20.7718C13.2644 21.1689 13.7908 21.3871 14.3523 21.3871C15.5096 21.3871 16.4516 20.4456 16.4516 19.2873C16.4516 18.7268 16.2334 18.1999 15.8368 17.8028L10.2215 12.188C9.99548 11.962 9.87097 11.6615 9.87097 11.3418C9.87097 10.682 10.4078 10.1452 11.0676 10.1452C11.3873 10.1452 11.6878 10.2697 11.9138 10.4957L13.4162 11.9976C13.8128 12.3947 14.3392 12.6129 14.9007 12.6129C16.058 12.6129 17 11.6714 17 10.5131C17 9.95264 16.7818 9.42567 16.3852 9.02857L12.9064 5.55081C12.7171 5.36097 12.6129 5.10926 12.6129 4.84177C12.6129 4.28829 13.0625 3.83871 13.6154 3.83871C13.8792 3.83871 14.1373 3.94555 14.3245 4.13272L17.6097 7.41795C17.5725 7.86727 17.5484 8.31899 17.5484 8.77419H18.6452C18.6452 6.66847 19.0789 4.62461 19.9345 2.69963L20.3535 1.75762C20.531 1.35624 20.9308 1.09677 21.3708 1.09677C21.9842 1.09677 22.4839 1.59643 22.4839 2.21042V2.4008C22.4839 2.55262 22.4536 2.70016 22.3939 2.83967C21.3619 5.24743 20.8387 7.79631 20.8387 10.4161V12.8641C20.3182 13.0561 19.765 13.1613 19.1935 13.1613V14.2581C20.7549 14.2581 22.2217 13.6505 23.3257 12.546L24.611 11.2612C24.7982 11.0746 25.0558 10.9677 25.3201 10.9677C25.873 10.9677 26.3226 11.4173 26.3226 11.9708C26.3226 12.2383 26.2184 12.4905 26.0291 12.6798L21.1228 17.5861C20.7629 17.946 20.5645 18.4248 20.5645 18.9335C20.5645 19.9843 21.4195 20.8392 22.4702 20.8392C22.972 20.8392 23.4634 20.6357 23.8176 20.281L26.039 18.0601C26.1892 17.9099 26.3978 17.8231 26.611 17.8231C27.0568 17.8231 27.4199 18.1862 27.4199 18.632C27.4199 18.8481 27.3361 19.0511 27.1829 19.204L20.2903 26.0955V28.9571C19.419 29.2179 18.5849 29.5982 17.8012 30.0812C16.8811 29.4198 15.8714 28.9097 14.8065 28.5544V24.9982L9.55956 19.7524ZM11.2561 29.0645C13.763 29.0645 16.1702 29.9886 18.0344 31.6656L19.4096 32.9032H3.31763C5.25198 30.4633 8.13851 29.0645 11.2561 29.0645Z" fill="white"/>
<path d="M19.1936 22.4839H20.2904V23.5807H19.1936V22.4839Z" fill="white"/>
<path d="M15.9032 26.3226H17V27.4193H15.9032V26.3226Z" fill="white"/>
<path d="M18.0968 18.0968H19.1936V19.1935H18.0968V18.0968Z" fill="white"/>
<path d="M14.2581 14.2581H15.3548V15.3548H14.2581V14.2581Z" fill="white"/>
<path d="M18.6451 10.4194H19.7419V11.5161H18.6451V10.4194Z" fill="white"/>
<path d="M2.1935 6.58064C3.10043 6.58064 3.83866 5.8424 3.83866 4.93548C3.83866 4.02855 3.10043 3.29031 2.1935 3.29031C1.28657 3.29031 0.54834 4.02855 0.54834 4.93548C0.54834 5.8424 1.28657 6.58064 2.1935 6.58064ZM2.1935 4.38709C2.49608 4.38709 2.74189 4.63343 2.74189 4.93548C2.74189 5.23752 2.49608 5.48386 2.1935 5.48386C1.89092 5.48386 1.64511 5.23752 1.64511 4.93548C1.64511 4.63343 1.89092 4.38709 2.1935 4.38709Z" fill="white"/>
<path d="M2.19355 13.7097C3.40332 13.7097 4.3871 12.7259 4.3871 11.5161C4.3871 10.3063 3.40332 9.32257 2.19355 9.32257C0.983776 9.32257 0 10.3063 0 11.5161C0 12.7259 0.983776 13.7097 2.19355 13.7097ZM2.19355 10.4193C2.79843 10.4193 3.29032 10.9112 3.29032 11.5161C3.29032 12.121 2.79843 12.6129 2.19355 12.6129C1.58866 12.6129 1.09677 12.121 1.09677 11.5161C1.09677 10.9112 1.58866 10.4193 2.19355 10.4193Z" fill="white"/>
<path d="M1.64514 0H2.74192V1.09677H1.64514V0Z" fill="white"/>
<path d="M33.4516 8.77419C33.4516 7.86726 32.7133 7.12903 31.8064 7.12903C30.8995 7.12903 30.1613 7.86726 30.1613 8.77419C30.1613 9.68112 30.8995 10.4194 31.8064 10.4194C32.7133 10.4194 33.4516 9.68112 33.4516 8.77419ZM31.8064 9.32258C31.5038 9.32258 31.258 9.07623 31.258 8.77419C31.258 8.47215 31.5038 8.2258 31.8064 8.2258C32.109 8.2258 32.3548 8.47215 32.3548 8.77419C32.3548 9.07623 32.109 9.32258 31.8064 9.32258Z" fill="white"/>
<path d="M31.8065 4.3871C33.0162 4.3871 34 3.40332 34 2.19355C34 0.983776 33.0162 0 31.8065 0C30.5967 0 29.6129 0.983776 29.6129 2.19355C29.6129 3.40332 30.5967 4.3871 31.8065 4.3871ZM31.8065 1.09677C32.4113 1.09677 32.9032 1.58866 32.9032 2.19355C32.9032 2.79843 32.4113 3.29032 31.8065 3.29032C31.2016 3.29032 30.7097 2.79843 30.7097 2.19355C30.7097 1.58866 31.2016 1.09677 31.8065 1.09677Z" fill="white"/>
<path d="M31.2581 12.6129H32.3548V13.7097H31.2581V12.6129Z" fill="white"/>
</svg>
