<svg width="40" height="40" viewBox="0 0 40 40" fill="none" xmlns="http://www.w3.org/2000/svg">
<g clip-path="url(#clip0)">
<path d="M36.6668 13.3337H36.2038L30.4794 3.33445C30.0359 2.56133 29.3197 2.00875 28.4628 1.7793C28.1442 1.69422 27.8202 1.65758 27.4994 1.6682C26.9615 1.68609 26.4328 1.83703 25.9546 2.11539L1.65292 16.2634C0.589561 16.8822 -0.00489155 18.0109 3.03217e-05 19.1671C0.00237407 19.7259 0.145733 20.2911 0.441905 20.8084L5.00003 28.7701V35.0003C5.00003 36.8387 6.49495 38.3337 8.33339 38.3337H36.6668C38.5051 38.3337 40.0001 36.8387 40.0001 35.0003V16.6669C40 14.8286 38.5051 13.3337 36.6668 13.3337ZM5.00003 25.4142L4.36355 24.3023L5.00003 23.9318V25.4142ZM5.00003 22.0034L3.53542 22.856L2.71269 21.4188L5.00003 20.0873V22.0034ZM5.00003 16.6669V18.1588L1.88612 19.9716C1.43597 19.1769 1.70597 18.1612 2.49105 17.7037L5.04558 16.2166C5.02526 16.3654 5.00003 16.5127 5.00003 16.6669ZM34.2826 13.3337H23.203L31.5128 8.49554L34.2826 13.3337ZM30.6848 7.04914L19.8908 13.3336H16.5999L29.8622 5.61226L30.6848 7.04914ZM26.7937 3.55578C27.1713 3.33601 27.6107 3.275 28.0315 3.38898C28.4571 3.50289 28.812 3.77797 29.0325 4.16289L29.0343 4.16594L13.2876 13.3337H9.99784L26.7937 3.55578ZM38.3334 35.0003C38.3334 35.919 37.5855 36.6669 36.6668 36.6669H8.33339C7.41464 36.6669 6.66675 35.919 6.66675 35.0003V16.6669C6.66675 15.7482 7.41464 15.0003 8.33339 15.0003H36.6668C37.5855 15.0003 38.3334 15.7482 38.3334 16.6669V35.0003Z" fill="#36C0F1"/>
<path d="M31.5625 26.667C31.0156 26.667 30.4842 26.7939 30 27.0381C29.5158 26.7939 28.9844 26.667 28.4375 26.667C26.5422 26.667 25 28.1619 25 30.0003C25 31.8388 26.5422 33.3337 28.4375 33.3337C28.9844 33.3337 29.5158 33.2067 30 32.9626C30.4842 33.2067 31.0156 33.3337 31.5625 33.3337C33.4578 33.3337 35 31.8388 35 30.0003C35 28.1619 33.4579 26.667 31.5625 26.667ZM31.5625 31.667C31.1776 31.667 30.8073 31.5449 30.4891 31.3146C30.3434 31.2088 30.1716 31.1559 30 31.1559C29.8283 31.1559 29.6566 31.2088 29.5109 31.3146C29.1927 31.5449 28.8224 31.667 28.4375 31.667C27.4609 31.667 26.6666 30.9191 26.6666 30.0003C26.6666 29.0816 27.4609 28.3337 28.4375 28.3337C28.8224 28.3337 29.1927 28.4558 29.5109 28.686C29.8023 28.8976 30.1978 28.8976 30.4891 28.686C30.8073 28.4557 31.1777 28.3337 31.5626 28.3337C32.5391 28.3337 33.3334 29.0816 33.3334 30.0003C33.3334 30.9191 32.5391 31.667 31.5625 31.667Z" fill="#36C0F1"/>
<path d="M10.8334 28.3337H19.1667C19.6273 28.3337 20.0001 27.9609 20.0001 27.5003C20.0001 27.0397 19.6273 26.667 19.1667 26.667H10.8334C10.3727 26.667 10 27.0397 10 27.5003C10 27.9609 10.3727 28.3337 10.8334 28.3337Z" fill="#36C0F1"/>
<path d="M22.5 31.667H10.8334C10.3727 31.667 10 32.0397 10 32.5003C10 32.9609 10.3727 33.3337 10.8334 33.3337H22.5C22.9606 33.3337 23.3334 32.9609 23.3334 32.5003C23.3334 32.0397 22.9606 31.667 22.5 31.667Z" fill="#36C0F1"/>
</g>
<defs>
<clipPath id="clip0">
<rect width="40" height="40" fill="white"/>
</clipPath>
</defs>
</svg>
