<svg width="40" height="40" viewBox="0 0 40 40" fill="none" xmlns="http://www.w3.org/2000/svg">
<path d="M39.9827 26.9631C39.8266 26.1676 38.448 19.1611 38.1075 18.1382C37.2887 15.6787 35.3215 12.8789 32.8455 10.6487C30.271 8.3299 27.6037 7 25.5273 7H5.32919C4.28243 7 3.43077 7.85166 3.43077 8.89842V11.8814H2.03223C1.51935 11.8814 1.10354 12.2972 1.10354 12.8101C1.10354 13.323 1.51935 13.7388 2.03223 13.7388H3.43069V15.9541H0.928698C0.415815 15.9541 0 16.3699 0 16.8828C0 17.3957 0.415815 17.8115 0.928698 17.8115H3.43069V27.1418C3.43069 28.1886 4.28235 29.0402 5.32911 29.0402H7.64456C7.99076 31.3408 9.98052 33.1104 12.3761 33.1104C14.7716 33.1104 16.7614 31.3408 17.1075 29.0402H25.626C25.9721 31.3408 27.962 33.1104 30.3575 33.1104C32.7531 33.1104 34.7428 31.3408 35.089 29.0402H38.1015C39.1483 29.0402 40 28.1886 40 27.1418C40 27.0819 39.9942 27.0221 39.9827 26.9631ZM36.2389 18.4254L26.6691 18.4253V9.02343C30.0593 9.93396 34.7584 14.4445 36.2389 18.4254ZM12.3762 31.2531C10.7618 31.2531 9.44841 29.9397 9.44841 28.3253C9.44841 26.711 10.7618 25.3977 12.3762 25.3977C13.9905 25.3977 15.3038 26.711 15.3038 28.3253C15.3037 29.9397 13.9905 31.2531 12.3762 31.2531ZM30.3576 31.2531C28.7433 31.253 27.4299 29.9397 27.4299 28.3253C27.4299 26.711 28.7433 25.3977 30.3576 25.3977C31.9719 25.3977 33.2853 26.711 33.2853 28.3253C33.2853 29.9397 31.9719 31.2531 30.3576 31.2531ZM38.0556 27.1829C37.2812 27.1829 35.0038 27.1829 35.0038 27.1829C34.4901 25.0944 32.6024 23.5404 30.3576 23.5404C28.1128 23.5404 26.2251 25.0944 25.7114 27.1829H17.0223C16.5086 25.0944 14.6209 23.5404 12.3762 23.5404C10.1314 23.5404 8.24361 25.0944 7.72992 27.1829H5.32919C5.30658 27.1829 5.28817 27.1645 5.28817 27.1419V17.8116H16.6695C17.1824 17.8116 17.5982 17.3958 17.5982 16.8829C17.5982 16.37 17.1824 15.9542 16.6695 15.9542H5.28809V13.7389H10.5268C11.0396 13.7389 11.4555 13.3231 11.4555 12.8102C11.4555 12.2973 11.0396 11.8815 10.5268 11.8815H5.28809V8.8985C5.28809 8.87589 5.3065 8.85748 5.32911 8.85748H24.8117V19.354C24.8117 19.8669 25.2274 20.2827 25.7404 20.2827L36.7196 20.2828C37.1156 22.0886 37.6588 24.983 38.1212 27.1256C38.1306 27.1687 38.1036 27.1829 38.0556 27.1829Z" fill="#36C0F1"/>
</svg>
