<svg width="40" height="30" viewBox="0 0 40 30" fill="none" xmlns="http://www.w3.org/2000/svg">
<path d="M1.60509 12.2625C1.94362 14.1601 1.72932 15.7207 1.62626 16.4705C1.38711 18.2119 0.874198 19.5153 0.499649 20.4669C0.0598636 21.5844 -0.287499 22.467 0.347534 23.1102C1.15132 23.9244 2.7371 23.3868 4.02849 22.8272C5.73208 22.0891 7.25973 20.9175 8.57917 19.3429C9.35874 20.1504 10.7172 21.4082 12.5861 22.5836C14.4091 23.7303 16.3105 24.5579 18.2743 25.0619L15.5645 27.4386C15.4164 27.5686 15.3435 27.7643 15.3704 27.9594C15.3975 28.1546 15.5207 28.3231 15.6985 28.408C19.8816 30.4042 24.3238 30.0478 26.5013 27.5418C27.1003 26.8526 27.5152 26.0089 27.7384 25.0303C32.4809 23.8295 36.8356 20.6565 39.5191 16.4753C40.1603 15.4863 40.1603 14.2081 39.5191 13.2191C36.8063 9.04066 32.6051 5.91801 27.7383 4.66389C27.5152 3.68541 27.1003 2.8417 26.5013 2.15252C25.2653 0.729801 23.2994 0 21.0653 0C19.364 0 17.5069 0.42338 15.6986 1.28631C15.5208 1.37116 15.3975 1.53968 15.3705 1.73485C15.3435 1.93001 15.4164 2.12572 15.5646 2.25565L18.275 4.63303C16.3109 5.13665 14.409 5.96411 12.5862 7.11065C10.1685 8.63127 8.60409 10.2903 8.04367 10.9331C7.9507 11.0398 7.89937 11.1765 7.89937 11.3182V18.3236C6.64806 19.8932 5.19057 21.0465 3.56261 21.7519C1.58197 22.61 1.21664 22.3225 1.17828 22.2836C1.1053 22.1278 1.38555 21.416 1.59009 20.8961C1.98628 19.8893 2.52904 18.5105 2.78726 16.63C2.89843 15.8206 3.12977 14.1363 2.75882 12.0567C2.4824 10.5069 1.98058 9.35067 1.61415 8.50641C1.42258 8.06499 1.18562 7.51895 1.20507 7.34245C1.27266 7.30511 1.75658 7.11619 3.56261 7.89873C4.58179 8.34031 5.5466 8.96651 6.43001 9.76007C6.67072 9.97617 7.04121 9.9564 7.25754 9.71569C7.4738 9.4749 7.45388 9.10449 7.21316 8.88815C6.23539 8.01006 5.16393 7.31527 4.02849 6.82337C2.95219 6.35694 2.11043 6.1249 1.47313 6.1249C0.971076 6.1249 0.595825 6.26897 0.332611 6.55593C-0.239212 7.17948 0.10424 7.971 0.53918 8.97308C0.882556 9.76413 1.35281 10.8477 1.60509 12.2625ZM25.6167 26.7732C24.7643 27.7542 23.3883 28.3663 21.742 28.4969C20.242 28.6156 18.6288 28.3453 17.0306 27.7116L19.701 25.3694C20.8496 25.5697 22.0175 25.6621 23.2017 25.6446C24.2868 25.6296 25.3705 25.5198 26.4397 25.3198C26.2489 25.8754 25.9738 26.3622 25.6167 26.7732ZM17.0306 1.98275C18.6289 1.34921 20.2421 1.07872 21.7421 1.19748C23.3883 1.32803 24.7644 1.94017 25.6168 2.92123C25.9739 3.33219 26.2489 3.81901 26.4397 4.37458C25.3705 4.17457 24.2869 4.0648 23.2018 4.04972C23.112 4.04839 23.023 4.04785 22.9334 4.04785C21.8417 4.04785 20.764 4.14145 19.7028 4.32653L17.0306 1.98275ZM9.0713 11.5407C9.69375 10.8511 11.107 9.42552 13.2101 8.10272C16.3271 6.14216 19.6841 5.17227 23.1855 5.22149C25.2633 5.2504 27.3367 5.64777 29.2998 6.38483C28.618 7.76177 28.1038 9.21824 27.7684 10.7234C27.698 11.0393 27.897 11.3524 28.2129 11.4227C28.5289 11.4935 28.8419 11.2941 28.9122 10.9782C29.2329 9.53865 29.7284 8.14687 30.3864 6.8329C30.9004 7.064 31.405 7.31894 31.8982 7.59747C34.5607 9.10113 36.856 11.2655 38.5358 13.8567C38.9259 14.4584 38.9259 15.236 38.5358 15.8378C36.856 18.4289 34.5607 20.5933 31.8982 22.097C31.4035 22.3763 30.8974 22.6319 30.382 22.8636C29.4265 20.9486 28.4192 18.0656 28.4892 14.5012C28.4967 14.1178 28.5169 13.7287 28.5495 13.3448C28.5768 13.0223 28.3375 12.7387 28.0151 12.7114C27.9982 12.71 27.9815 12.7093 27.9648 12.7093C27.6637 12.7093 27.4075 12.9402 27.3816 13.2458C27.347 13.6549 27.3253 14.0696 27.3173 14.4783C27.2438 18.2287 28.2892 21.2712 29.2955 23.3111C27.3336 24.0471 25.2617 24.444 23.1853 24.4729C23.1016 24.474 23.0179 24.4746 22.9343 24.4746C19.5227 24.4746 16.2524 23.5052 13.2099 21.5916C11.1069 20.2688 9.6936 18.8432 9.07114 18.1537L9.0713 11.5407Z" fill="white"/>
<path d="M34.3152 16.7953C35.4007 16.7953 36.2837 15.9213 36.2837 14.8471C36.2837 13.7729 35.4006 12.899 34.3152 12.899C33.2297 12.899 32.3467 13.7729 32.3467 14.8471C32.3467 15.9213 33.2298 16.7953 34.3152 16.7953ZM34.3152 14.071C34.7545 14.071 35.1117 14.4192 35.1117 14.8472C35.1117 15.2752 34.7545 15.6234 34.3152 15.6234C33.876 15.6234 33.5186 15.2752 33.5186 14.8472C33.5186 14.4192 33.876 14.071 34.3152 14.071Z" fill="white"/>
<path d="M23.7678 12.1075C24.0915 12.1075 24.3538 11.8452 24.3538 11.5215C24.3538 11.1979 24.0915 10.9356 23.7678 10.9356C23.3286 10.9356 22.9712 10.5874 22.9712 10.1594C22.9712 9.73139 23.3286 9.38317 23.7678 9.38317C24.0915 9.38317 24.3538 9.12089 24.3538 8.79721C24.3538 8.47352 24.0915 8.21125 23.7678 8.21125C22.6823 8.21125 21.7993 9.08519 21.7993 10.1594C21.7993 11.2336 22.6824 12.1075 23.7678 12.1075Z" fill="white"/>
<path d="M23.7678 16.7953C24.0915 16.7953 24.3538 16.533 24.3538 16.2093C24.3538 15.8856 24.0915 15.6233 23.7678 15.6233C23.3286 15.6233 22.9712 15.2751 22.9712 14.8471C22.9712 14.4191 23.3286 14.0709 23.7678 14.0709C24.0915 14.0709 24.3538 13.8086 24.3538 13.4849C24.3538 13.1613 24.0915 12.899 23.7678 12.899C22.6823 12.899 21.7993 13.7729 21.7993 14.8471C21.7993 15.9213 22.6824 16.7953 23.7678 16.7953Z" fill="white"/>
<path d="M14.3925 16.7953C14.7161 16.7953 14.9784 16.533 14.9784 16.2093C14.9784 15.8856 14.7161 15.6233 14.3925 15.6233C13.9532 15.6233 13.5959 15.2751 13.5959 14.8471C13.5959 14.4191 13.9532 14.0709 14.3925 14.0709C14.7161 14.0709 14.9784 13.8086 14.9784 13.4849C14.9784 13.1613 14.7161 12.899 14.3925 12.899C13.3069 12.899 12.4239 13.7729 12.4239 14.8471C12.4239 15.9213 13.307 16.7953 14.3925 16.7953Z" fill="white"/>
<path d="M23.7678 21.483C24.0915 21.483 24.3538 21.2207 24.3538 20.897C24.3538 20.5733 24.0915 20.311 23.7678 20.311C23.3286 20.311 22.9712 19.9628 22.9712 19.5348C22.9712 19.1068 23.3286 18.7586 23.7678 18.7586C24.0915 18.7586 24.3538 18.4963 24.3538 18.1727C24.3538 17.849 24.0915 17.5867 23.7678 17.5867C22.6823 17.5867 21.7993 18.4606 21.7993 19.5348C21.7993 20.609 22.6824 21.483 23.7678 21.483Z" fill="white"/>
<path d="M19.0801 14.4514C19.4038 14.4514 19.6661 14.1891 19.6661 13.8654C19.6661 13.5417 19.4038 13.2795 19.0801 13.2795C18.6409 13.2795 18.2835 12.9312 18.2835 12.5032C18.2835 12.0753 18.6409 11.727 19.0801 11.727C19.4038 11.727 19.6661 11.4648 19.6661 11.1411C19.6661 10.8174 19.4038 10.5551 19.0801 10.5551C17.9946 10.5551 17.1116 11.4291 17.1116 12.5032C17.1116 13.5774 17.9947 14.4514 19.0801 14.4514Z" fill="white"/>
<path d="M19.0801 19.1391C19.4038 19.1391 19.6661 18.8768 19.6661 18.5532C19.6661 18.2295 19.4038 17.9672 19.0801 17.9672C18.6409 17.9672 18.2835 17.619 18.2835 17.191C18.2835 16.763 18.6409 16.4148 19.0801 16.4148C19.4038 16.4148 19.6661 16.1525 19.6661 15.8288C19.6661 15.5051 19.4038 15.2429 19.0801 15.2429C17.9946 15.2429 17.1116 16.1168 17.1116 17.191C17.1116 18.2652 17.9947 19.1391 19.0801 19.1391Z" fill="white"/>
</svg>
