<svg width="66" height="66" viewBox="0 0 66 66" fill="none" xmlns="http://www.w3.org/2000/svg">
<path d="M65.9928 64.9016C65.9822 64.3931 65.9898 61.2495 65.9973 59.2968C65.9984 59.0374 65.8956 58.7882 65.7128 58.6044C65.5296 58.4201 65.2808 58.3169 65.021 58.3169H63.3935V36.3832C63.3935 35.8439 62.9565 35.4068 62.4177 35.4068C61.8784 35.4068 61.4413 35.8434 61.4413 36.3832V58.3169H20.9356C20.99 57.7499 21.1708 57.1975 21.4749 56.7096L22.0555 55.7765C23.2036 53.931 23.2036 51.6384 22.0555 49.7935L21.4915 48.8871C20.7393 47.6781 20.7393 46.176 21.4915 44.967L22.052 44.0662C23.1855 42.2449 23.1829 39.8929 22.0459 38.0741L20.7931 36.069C20.0756 34.9209 18.8384 34.2351 17.4844 34.2351H16.1908C15.016 34.2351 13.9742 34.8489 13.4047 35.8766C12.8352 36.9039 12.8669 38.1124 13.4898 39.1084C14.2345 40.3002 14.2361 41.8416 13.4938 43.035L12.9334 43.9358C11.7853 45.7808 11.7853 48.0734 12.9334 49.9183L13.4974 50.8247C14.2497 52.0337 14.2497 53.5358 13.4974 54.7448L12.9168 55.6778C12.4198 56.4764 12.1338 57.3863 12.0749 58.3169H4.55602V27.9585L7.47705 26.1332C8.66842 25.3884 10.2098 25.3869 11.4031 26.1291L12.304 26.6896C14.1489 27.8377 16.4416 27.8377 18.287 26.6896L19.1929 26.1256C20.4019 25.3733 21.9039 25.3733 23.1129 26.1256L24.0465 26.7062C25.8713 27.8422 28.1458 27.8533 29.9822 26.7354L31.0699 26.0732C32.2597 25.3497 33.7381 25.3492 34.9275 26.0732L36.0156 26.7354C37.8515 27.8533 40.126 27.8417 41.9513 26.7062L42.8844 26.1256C44.0934 25.3733 45.5955 25.3733 46.8045 26.1256L47.7108 26.6896C49.5558 27.8377 51.8484 27.8377 53.6939 26.6896L54.5947 26.1291C55.7881 25.3869 57.3289 25.3879 58.5208 26.1332L61.4413 27.9585V31.8272C61.4413 32.3665 61.8784 32.8036 62.4177 32.8036C62.957 32.8036 63.394 32.3665 63.394 31.8272V18.0937H65.0215C65.4158 18.0937 65.7718 17.8565 65.9228 17.4919C65.9848 17.3429 66.0074 17.1848 65.9938 17.0312C65.9822 16.646 65.9898 13.3941 65.9978 11.3936C65.9984 11.1343 65.8961 10.885 65.7128 10.7007C65.5296 10.5169 65.2808 10.4137 65.0215 10.4137H63.394V8.00526C63.394 7.73436 63.2813 7.47554 63.0829 7.29074L55.5333 0.26184C55.3525 0.0936582 55.1149 0 54.8676 0H11.1297C10.883 0 10.6453 0.0936582 10.4645 0.26184L2.91448 7.29074C2.71609 7.47554 2.6033 7.73436 2.6033 8.00526V10.4137H0.976362C0.437072 10.4137 0 10.8508 0 11.3901V17.1178C0 17.6566 0.437072 18.0942 0.976362 18.0942H2.6033V58.3169H0.976362C0.437072 58.3169 0 58.7539 0 59.2932V65.021C0 65.5603 0.437072 65.9973 0.976362 65.9973H65.021C65.022 65.9968 65.023 65.9968 65.0235 65.9973C65.5628 65.9973 65.9999 65.5603 65.9999 65.021C65.9999 64.9807 65.9973 64.9409 65.9928 64.9016ZM65.9863 16.9718C65.9797 16.9275 65.9702 16.8837 65.9576 16.8409C65.9717 16.8907 65.9807 16.935 65.9863 16.9718ZM65.9213 16.7397C65.9097 16.713 65.8971 16.6863 65.8835 16.6606C65.8976 16.6873 65.9102 16.714 65.9213 16.7397ZM1.95272 12.3664H12.8221C13.3609 12.3664 13.798 11.9293 13.798 11.3901C13.798 10.8508 13.3609 10.4137 12.8221 10.4137H4.55602V8.43075L11.5139 1.95272H54.4834L61.4413 8.43075V10.4137H17.3781C16.8388 10.4137 16.4018 10.8508 16.4018 11.3901C16.4018 11.9293 16.8388 12.3664 17.3781 12.3664H64.0416C64.0396 12.8911 64.0376 13.5674 64.0366 14.2441C64.0356 14.9274 64.0346 15.6117 64.0356 16.1414H1.95272V12.3664ZM61.4413 18.0937V25.6558L59.5556 24.477C57.7363 23.3405 55.3843 23.338 53.5625 24.471L52.6621 25.0314C51.4531 25.7842 49.9511 25.7837 48.7421 25.0314L47.8357 24.4675C45.9902 23.3194 43.6976 23.3194 41.8526 24.4675L40.9196 25.0485C39.7237 25.7928 38.2337 25.7998 37.0308 25.0677L35.9426 24.4055C34.1269 23.2998 31.8705 23.2998 30.0542 24.4055L28.9666 25.0677C27.7636 25.7998 26.2737 25.7928 25.0778 25.0485L24.1447 24.4675C22.2992 23.3194 20.0066 23.3199 18.1616 24.4675L17.2553 25.0314C16.0463 25.7842 14.5442 25.7842 13.3352 25.0314L12.4344 24.471C10.6131 23.338 8.26106 23.3405 6.44177 24.477L4.55602 25.6558V18.0937H61.4413ZM14.5744 56.7096L15.155 55.7765C16.3031 53.931 16.3031 51.6384 15.155 49.7935L14.591 48.8871C13.8388 47.6781 13.8388 46.176 14.591 44.967L15.1515 44.0662C16.285 42.2449 16.2824 39.8929 15.1454 38.0741C14.9048 37.6884 14.8922 37.2206 15.1127 36.8233C15.3333 36.4255 15.7361 36.1878 16.1908 36.1878H17.4844C18.1606 36.1878 18.779 36.5302 19.1375 37.1043L20.3903 39.1089C21.135 40.3002 21.1366 41.8416 20.3943 43.035L19.8339 43.9358C18.6853 45.7808 18.6853 48.0734 19.8339 49.9183L20.3979 50.8252C21.1501 52.0337 21.1501 53.5358 20.3974 54.7448L19.8168 55.6778C19.3203 56.4764 19.0323 57.3863 18.9739 58.3174H14.0321C14.0865 57.7499 14.2708 57.198 14.5744 56.7096ZM64.0366 62.1473C64.0356 62.8306 64.0346 63.5149 64.0356 64.0446H1.95272V60.2696H64.0416C64.0396 60.7943 64.0376 61.4705 64.0366 62.1473Z" fill="white"/>
<path d="M39.3979 49.3847C41.1613 50.3021 43.033 50.7674 44.96 50.7674C47.1635 50.7674 48.9576 50.1576 50.0095 49.6898L52.4074 55.4559C52.5529 55.8063 52.8878 56.0405 53.2669 56.0566C53.281 56.0571 53.2946 56.0576 53.3087 56.0576C53.6718 56.0576 54.0061 55.8557 54.1748 55.5319L58.5002 47.2174C58.6755 46.8811 58.6397 46.4737 58.4091 46.1726C58.1785 45.8715 57.7943 45.731 57.4237 45.8136L51.3288 47.159C50.9446 45.168 49.6057 41.0491 44.9852 38.6452C44.1896 38.2313 43.3719 37.91 42.5375 37.6814C42.537 37.6814 42.5365 37.6814 42.536 37.6814C42.532 37.6799 42.528 37.6789 42.5239 37.6779C42.4056 37.6456 42.2863 37.6154 42.1674 37.5867C42.1548 37.5837 42.1422 37.5807 42.1291 37.5777C42.0153 37.551 41.9015 37.5258 41.7867 37.5021C41.7736 37.4996 41.7606 37.4971 41.747 37.4946C41.6316 37.4709 41.5158 37.4498 41.4 37.4301C41.3889 37.4281 41.3779 37.4261 41.3668 37.4241C41.2474 37.4044 41.1281 37.3863 41.0083 37.3702C41.0002 37.3687 40.9916 37.3677 40.9836 37.3667C40.8597 37.3501 40.7359 37.3355 40.6115 37.3229C40.6069 37.3224 40.6029 37.3219 40.5984 37.3214C40.2091 37.2826 39.8169 37.2619 39.4226 37.2619C36.0464 37.2619 33.6319 38.693 33.3741 38.8516C33.365 38.8572 33.358 38.8617 33.3545 38.8642C33.1697 38.9815 33.0317 39.1553 32.9592 39.3547C32.9582 39.3582 32.9577 39.3622 32.9562 39.3657C32.9436 39.402 32.932 39.4393 32.9234 39.477C32.9063 39.5561 32.8993 39.6376 32.9018 39.7207C32.9018 39.7253 32.9013 39.7298 32.9013 39.7343L32.9018 39.7358C32.9018 39.7424 32.9023 39.752 32.9033 39.7635V39.7671C32.936 40.3124 33.429 46.2793 39.3979 49.3847ZM38.6673 39.2439C38.9115 39.2258 39.1633 39.2157 39.4221 39.2157C39.5812 39.2157 39.7398 39.2197 39.8985 39.2273C39.9075 39.2278 39.9161 39.2283 39.9252 39.2288C40.0843 39.2368 40.2434 39.2484 40.402 39.2645C40.404 39.2645 40.406 39.265 40.408 39.265C40.7243 39.2968 41.038 39.3441 41.3492 39.4065C41.3577 39.408 41.3663 39.41 41.3748 39.4116C41.4317 40.6528 41.1347 41.9559 40.5168 43.1438C39.8985 44.3316 39.0022 45.3226 37.9528 45.9888C35.778 43.9198 35.1204 41.3693 34.928 40.2354C35.6284 39.9015 36.9724 39.3723 38.6673 39.2439ZM55.8033 48.1711L53.4074 52.776L51.855 49.0428L55.8033 48.1711ZM49.4612 47.7945C48.6681 48.1762 47.0311 48.8152 44.96 48.8152C43.3497 48.8152 41.7817 48.4239 40.2988 47.6525C40.0445 47.5201 39.8023 47.3816 39.5712 47.2381C40.6603 46.4148 41.5868 45.3186 42.249 44.0451C42.9116 42.7722 43.2777 41.3844 43.3266 40.0208C43.5814 40.1291 43.8341 40.2474 44.0839 40.3773C48.2305 42.5345 49.227 46.3307 49.4612 47.7945Z" fill="white"/>
<path d="M38.466 41.5899C38.466 41.9494 38.1744 42.241 37.8149 42.241C37.4559 42.241 37.1643 41.9494 37.1643 41.5899C37.1643 41.2304 37.4559 40.9393 37.8149 40.9393C38.1744 40.9393 38.466 41.2304 38.466 41.5899Z" fill="white"/>
<path d="M33.1939 32.9985C33.1939 31.1681 31.7049 29.6792 29.8746 29.6792C28.0447 29.6792 26.5552 31.1686 26.5552 32.9985C26.5552 34.8289 28.0447 36.3178 29.8746 36.3178C31.7049 36.3178 33.1939 34.8289 33.1939 32.9985ZM29.8746 34.3656C29.1208 34.3656 28.5079 33.7523 28.5079 32.9985C28.5079 32.2447 29.1208 31.6319 29.8746 31.6319C30.6284 31.6319 31.2412 32.2447 31.2412 32.9985C31.2412 33.7523 30.6284 34.3656 29.8746 34.3656Z" fill="white"/>
<path d="M32.6082 55.5837C34.4386 55.5837 35.9276 54.0943 35.9276 52.2644C35.9276 50.434 34.4386 48.9451 32.6082 48.9451C30.7779 48.9451 29.2889 50.434 29.2889 52.2644C29.2889 54.0943 30.7779 55.5837 32.6082 55.5837ZM32.6082 50.8973C33.362 50.8973 33.9748 51.5106 33.9748 52.2644C33.9748 53.0177 33.362 53.631 32.6082 53.631C31.8544 53.631 31.2416 53.0177 31.2416 52.2644C31.2411 51.5106 31.8544 50.8973 32.6082 50.8973Z" fill="white"/>
<path d="M58.5778 32.4778C58.5778 30.6475 57.0883 29.1585 55.2585 29.1585C53.4281 29.1585 51.9391 30.648 51.9391 32.4778C51.9391 34.3082 53.4281 35.7972 55.2585 35.7972C57.0883 35.7972 58.5778 34.3082 58.5778 32.4778ZM53.8914 32.4778C53.8914 31.724 54.5047 31.1112 55.258 31.1112C56.0118 31.1112 56.6251 31.724 56.6251 32.4778C56.6251 33.2316 56.0118 33.8449 55.258 33.8449C54.5047 33.8449 53.8914 33.2316 53.8914 32.4778Z" fill="white"/>
</svg>
