<svg width="98" height="110" viewBox="0 0 98 110" fill="none" xmlns="http://www.w3.org/2000/svg">
<g clip-path="url(#clip0)">
<path d="M80.5479 24.1086C85.8195 23.3355 90.7396 27.0607 91.5128 32.3323C92.2859 37.6038 88.5607 42.524 83.2891 43.2971C78.0176 44.0703 73.0974 40.3451 72.3243 35.0735C71.5511 29.8019 75.2764 24.8818 80.5479 24.1086ZM87.3658 32.9649L81.9537 33.738L84.976 29.1693C83.8514 28.3962 82.516 28.115 81.1805 28.3259C78.2284 28.7476 76.1198 31.5591 76.5415 34.5112C76.9633 37.4633 79.7748 39.5719 82.7268 39.1502C85.6789 38.7284 87.7875 35.9169 87.3658 32.9649Z" fill="#FFFBF0"/>
<path d="M51.5889 28.2556C56.8605 27.4824 61.7806 31.2077 62.5538 36.4792C63.327 41.7508 59.6017 46.6709 54.3301 47.4441C49.0586 48.2172 44.1385 44.492 43.3653 39.2204C42.5921 33.9489 46.3174 29.0288 51.5889 28.2556ZM58.4068 37.1118L52.9947 37.885L56.017 33.3163C54.8924 32.5431 53.557 32.262 52.2215 32.4728C49.2694 32.8946 47.1608 35.7061 47.5825 38.6581C48.0043 41.6102 50.8158 43.7188 53.7678 43.2971C56.7199 42.8754 58.8285 40.0639 58.4068 37.1118Z" fill="#FFFBF0"/>
<path d="M60.165 3.72524C60.5165 6.32588 60.2353 8.99681 59.2513 11.4569L59.3216 12.1597C58.689 12.23 58.0564 12.3003 57.4238 12.3706C54.4717 12.7923 51.5197 13.4952 48.5676 14.5495C33.4558 19.7508 24.2481 30.0128 21.5069 41.7508C20.1011 47.655 20.312 53.9808 22.1395 60.1661C22.3503 60.9393 22.6315 61.7125 22.9126 62.4856H22.8424C20.2417 64.6646 16.5868 66.6326 13.705 64.8754C11.6666 63.6102 10.9638 60.7987 11.4558 58.409C11.9478 56.0192 13.4238 53.9808 14.8296 52.0128C12.8615 53.0671 10.8935 54.1214 8.71456 54.4729C6.53565 54.8243 4.14587 54.4026 2.59955 52.786C0.631495 50.6773 0.842357 47.3035 1.54523 44.492C2.24811 41.8914 3.30242 39.4313 4.63788 37.1118C8.29284 30.7859 14.197 25.7252 21.1555 23.2652C19.0468 23.2652 16.8679 23.1949 14.8296 22.5623C12.7912 21.9297 10.8935 20.5943 10.05 18.6262C8.78485 15.6741 10.2609 12.23 12.4398 9.91054C16.3759 5.69329 22.3503 4.00639 28.0436 3.09265C32.05 2.46006 36.197 2.17891 40.2034 2.53035C44.9126 2.95208 49.3408 4.28754 53.1363 7.02875C53.6283 5.20128 54.542 3.51438 55.8775 2.10862C56.5804 1.33546 57.6347 0.632586 58.6187 0.984024C59.6027 1.47604 60.0245 2.67093 60.165 3.72524Z" fill="#36C0F1"/>
<path d="M60.1648 3.72523C60.5162 6.32587 60.2351 8.9968 59.251 11.4569L59.3213 12.1597C58.6887 12.23 58.0561 12.3003 57.4235 12.3706C57.2127 11.0351 56.9315 9.69967 56.5801 8.4345C54.9635 8.92651 53.4172 9.84025 52.2223 11.1054C50.2542 9.13737 48.2862 7.09903 45.9667 5.48242C44.1392 4.21725 42.1712 3.30351 40.1328 2.60063C44.8421 3.02236 49.2702 4.35782 53.0657 7.09903C53.5577 5.27156 54.4715 3.58466 55.8069 2.17891C56.5098 1.40574 57.5641 0.702868 58.5482 1.05431C59.6025 1.47603 60.0242 2.67092 60.1648 3.72523Z" fill="#FFFBF0"/>
<path d="M22.0692 60.3067C22.28 61.0799 22.5612 61.853 22.8423 62.6262H22.772C20.1714 64.8051 16.5165 66.7732 13.6347 65.016C11.5963 63.7508 10.8935 60.9393 11.3855 58.5495C11.8775 56.1597 13.3535 54.1214 14.7593 52.1534C12.7912 53.2077 10.8232 54.262 8.64425 54.6134C6.46534 54.9649 4.07556 54.5431 2.52923 52.9265C0.561182 50.8179 0.772045 47.4441 1.47492 44.6326C2.1778 42.0319 3.23211 39.5719 4.56757 37.2524C4.84872 39.5719 5.90304 41.8914 7.73051 43.2971C9.90943 44.9137 12.9318 45.1246 15.6027 44.4217C17.6411 43.9297 19.5388 42.9457 21.296 41.8914C20.0308 47.7252 20.2417 54.0511 22.0692 60.3067Z" fill="#FFA800"/>
<path d="M82.0953 96.2939C80.8302 99.6677 75.5586 96.9968 71.1305 93.9744C67.5458 91.5847 64.5234 88.9137 64.5234 88.9137C64.5234 88.9137 68.6001 88.2812 72.8877 88.4217C78.4404 88.6326 84.3445 90.1789 82.0953 96.2939Z" fill="#FFA800"/>
<path d="M66.6316 98.4729C67.4751 104.096 67.2642 109.93 62.6252 108.735C57.916 107.54 58.9 101.776 60.7275 96.7859C62.2738 92.5687 64.4527 88.9137 64.4527 88.9137C64.5933 89.1246 65.9287 93.7636 66.6316 98.4729Z" fill="#FFA800"/>
<path d="M60.7988 96.8562C62.3452 92.639 64.5241 88.984 64.5241 88.984C64.5944 89.1949 66.0001 93.7636 66.703 98.5431C64.8052 97.4888 62.8372 96.9265 60.7988 96.8562Z" fill="#E89D13"/>
<path d="M72.8876 88.4217C72.0442 90.1789 71.4819 92.0767 71.1305 93.9744C67.5458 91.5847 64.5234 88.9137 64.5234 88.9137C64.5234 88.9137 68.6001 88.2812 72.8876 88.4217Z" fill="#E89D13"/>
<path d="M41.6086 61.9936C41.8195 63.5399 41.9601 65.0863 41.8898 66.6326C41.8898 68.9521 41.5384 71.2716 40.484 73.3802C39.992 74.3642 39.2892 75.3482 38.1646 75.5591C37.1102 75.77 35.9856 75.1374 35.3531 74.2236C34.7205 73.3099 34.4393 72.1853 34.2285 71.131C33.9473 70.0767 33.877 68.6709 33.4553 67.6869C32.893 66.4217 32.8227 66.492 31.8387 67.0543C30.3626 67.8275 29.0975 69.5847 27.1997 68.3195C26.6374 67.968 26.286 67.4057 26.0048 66.8434C24.8802 64.6645 24.9505 61.9233 25.8642 59.6741C26.286 58.6198 26.9186 57.7061 27.6214 56.8626C28.4649 55.8083 29.5895 54.8946 30.7141 54.1917C32.2604 53.2077 34.0176 52.4345 35.8451 52.7157C37.7428 52.9968 39.3594 54.5431 40.2029 56.3003C41.1166 58.0575 41.3978 60.0256 41.6086 61.9936Z" fill="#8998A4"/>
<path d="M41.6083 61.9936C41.8192 63.5399 41.9598 65.0863 41.8895 66.6326C41.7489 66.3514 41.6786 66.1406 41.538 65.8594C39.4997 61.7827 35.7744 58.5495 31.4869 57.1438C30.4326 56.7923 29.0268 56.8626 27.6211 56.8626C28.4645 55.8083 29.5891 54.8946 30.7137 54.1917C32.2601 53.2077 34.0173 52.4345 35.8447 52.7157C37.7425 52.9968 39.3591 54.5431 40.2026 56.3003C41.1163 58.0575 41.3975 60.0256 41.6083 61.9936Z" fill="#E89D13"/>
<path d="M53.2051 60.5176C53.2051 60.5176 59.1092 60.5879 66.5597 59.6741V59.8147C67.614 60.0958 68.3169 61.361 68.106 62.4856C67.8952 63.6102 67.0517 64.524 65.9974 64.9457C64.9431 65.3674 63.8185 65.3674 62.6939 65.2268C63.3968 65.6486 63.6779 66.5623 63.5374 67.3355C63.3968 68.1086 62.9048 68.8115 62.2722 69.3035C60.5853 70.4984 57.9846 70.2875 56.5789 68.6709L56.368 68.7412L53.2051 60.5176Z" fill="#8998A4"/>
<path d="M56.4393 68.6709L64.452 88.984C61.3594 89.8275 57.7747 89.8275 54.1198 89.0543C50.254 85.8914 47.4425 80.8307 46.0367 76.0511C45.0527 72.7476 44.631 69.1629 45.7556 65.8594C46.8802 62.6262 49.762 60.5176 53.206 60.5176L56.4393 68.6709Z" fill="#FFA800"/>
<path d="M59.321 12.23C56.9312 12.4409 54.4712 12.9329 52.0814 13.5655C50.8865 13.8466 49.7619 14.1981 48.567 14.6198C42.8034 16.5879 37.8833 19.3291 33.8769 22.5623C22.0686 32.1214 17.9919 46.3195 22.0686 60.3067C22.2795 61.0799 22.5606 61.853 22.8418 62.6262C27.9025 76.0511 41.8194 86.5943 54.1197 89.0543C50.2539 85.8914 47.4424 80.8307 46.0367 76.0511C46.0367 75.9808 46.0367 75.9808 45.9664 75.9105C44.9824 72.6773 44.5606 69.0927 45.6852 65.8594C46.8098 62.6262 49.6916 60.5176 53.1357 60.5176C53.1357 60.5176 59.0399 60.5879 66.4903 59.6741C75.2763 58.5495 86.1709 55.9489 92.075 50.115C93.7619 48.4281 95.0271 46.4601 95.73 44.1406C95.8705 43.6486 96.0111 43.1565 96.0814 42.6645C96.2923 41.4696 96.3625 40.2045 96.222 38.7987C94.7459 20.5942 78.0878 10.4026 59.321 12.23ZM41.6086 61.9936C42.0303 65.7891 42.2411 69.7955 40.6245 73.1693C40.6245 73.2396 40.5542 73.3099 40.5542 73.3802C40.0622 74.3642 39.3594 75.3482 38.2347 75.5591C37.1804 75.77 36.0558 75.1374 35.4232 74.2236C34.7907 73.3099 34.5095 72.1853 34.2986 71.131C34.0175 70.0767 33.9472 68.7412 33.5255 67.6869C33.1038 66.7732 32.9632 66.5623 32.5415 66.7732C32.4009 66.8434 32.19 66.9137 31.9089 67.0543C30.4328 67.8275 29.1677 69.5847 27.2699 68.3195C26.7076 67.9681 26.3562 67.4058 26.075 66.8434C24.9504 64.6645 25.0207 61.9233 25.9344 59.6741C26.1453 59.1118 26.4967 58.5495 26.7779 58.0575C27.7619 56.5112 29.1677 55.246 30.714 54.1917C32.2603 53.2077 34.0175 52.4345 35.845 52.7157C37.7427 52.9968 39.3594 54.5431 40.2028 56.3003C41.1165 58.0575 41.3977 60.0256 41.6086 61.9936ZM54.3306 47.4441C49.059 48.2173 44.1389 44.492 43.3657 39.2204C42.5926 33.9489 46.3178 29.0288 51.5894 28.2556C56.8609 27.4824 61.7811 31.2077 62.5542 36.4792C63.3274 41.7508 59.6725 46.7412 54.3306 47.4441ZM72.3242 35.0735C71.551 29.8019 75.2763 24.8818 80.5479 24.1086C82.0239 23.8978 83.4999 24.0383 84.8354 24.4601C88.2795 25.5144 91.0207 28.5367 91.5127 32.3323C91.583 32.6134 91.583 32.8946 91.583 33.1757C91.8642 38.1661 88.2795 42.5942 83.2891 43.2971C78.0175 44.0703 73.0974 40.4153 72.3242 35.0735Z" fill="#FFA800"/>
<path d="M47.8848 56.75C50.4593 56.3804 52.2871 54.2741 51.9672 52.0453C51.6472 49.8166 49.3007 48.3094 46.7262 48.679C44.1516 49.0486 42.3238 51.155 42.6437 53.3837C42.9637 55.6124 45.3102 57.1196 47.8848 56.75Z" fill="#EDF6F9"/>
<path d="M96.152 42.6645C96.0817 43.1566 95.9412 43.6486 95.8006 44.1406C95.0977 46.4601 93.8325 48.4281 92.1456 50.115C90.3884 49.6933 89.053 48.4281 88.8421 46.8115C88.4907 44.5623 90.3181 42.4537 92.9188 42.1022C94.1137 41.8914 95.2383 42.1022 96.152 42.6645Z" fill="#EDF6F9"/>
<path d="M96.2929 38.7987C96.4335 40.7668 96.2929 42.524 95.8009 44.0703C94.7466 39.9233 93.3408 36.2684 91.5836 33.1757C89.6156 29.6613 87.2961 26.7795 84.7657 24.4601C74.082 14.4089 59.3919 13.3546 52.082 13.5655C54.5421 12.9329 56.9319 12.5112 59.3217 12.23C78.0884 10.4026 94.7466 20.5942 96.2929 38.7987Z" fill="#FFFBF0"/>
<path d="M54.19 89.0543C41.8897 86.5943 27.9728 76.0511 22.9121 62.6262C22.6309 61.853 22.3498 61.0799 22.1389 60.3067C18.0622 46.3195 22.1389 32.1214 33.9472 22.5623C31.4169 26.3578 29.3785 30.5048 27.9025 34.8626C26.4265 39.4313 25.583 44.2812 25.583 49.0607C25.583 52.0831 25.8642 55.1757 26.8482 57.9872C26.4968 58.4792 26.2156 59.0415 26.0047 59.6038C25.0207 61.853 24.9504 64.5943 26.1453 66.7732C26.4265 67.3355 26.8482 67.8978 27.3402 68.2492C29.238 69.5144 30.5031 67.8275 31.9792 66.984C32.2603 66.8435 32.4712 66.7732 32.6118 66.7029C32.6118 66.7732 32.6821 66.7732 32.6821 66.7732C32.9632 67.0543 33.2444 67.3355 33.5958 67.6166C34.0175 68.6006 34.1581 69.9361 34.369 71.0607C34.6501 72.115 34.861 73.2396 35.4936 74.1534C36.1261 75.0671 37.2507 75.6997 38.3051 75.4888C39.3594 75.278 40.1325 74.2939 40.6245 73.3099C40.6245 73.2396 40.6948 73.1693 40.6948 73.0991C42.452 74.1534 44.2092 75.0671 46.107 75.8403C46.107 75.9106 46.107 75.9106 46.1773 75.9808C47.5127 80.8307 50.2539 85.8914 54.19 89.0543Z" fill="#36C0F1"/>
<path d="M81.9542 33.738L87.3663 32.9649C87.788 35.9169 85.6794 38.7284 82.7273 39.1502C79.7752 39.5719 76.9637 37.4633 76.542 34.5112C76.1203 31.5591 78.2289 28.7476 81.181 28.3259C82.5165 28.115 83.8519 28.4665 84.9765 29.1693L81.9542 33.738Z" fill="#2D3E50"/>
<path d="M52.9952 37.885L58.4073 37.1118C58.829 40.0639 56.7204 42.8754 53.7683 43.2971C50.8163 43.7188 48.0048 41.6102 47.583 38.6581C47.1613 35.7061 49.2699 32.8946 52.222 32.4728C53.5575 32.262 54.8929 32.6134 56.0175 33.3163L52.9952 37.885Z" fill="#2D3E50"/>
<path d="M53.2079 60.5176C53.2079 60.5176 59.1121 60.5879 66.5626 59.6741C79.636 57.9872 97.4891 53.1374 96.2239 38.7987C94.6073 20.5943 78.0194 10.4026 59.2527 12.23C55.7383 12.5815 52.0833 13.3546 48.4987 14.6198C25.7958 22.4217 16.5178 41.6102 22.0705 60.3067C22.2814 61.0799 22.5625 61.853 22.8437 62.6262C27.9044 76.0511 41.8213 86.5942 54.1217 89.0543C57.7766 89.8275 61.3613 89.8275 64.4539 88.984L56.4412 68.6709L53.2079 60.5176Z" stroke="#202020" stroke-width="2" stroke-miterlimit="10" stroke-linecap="round" stroke-linejoin="round"/>
<path d="M64.5234 88.9137C64.5234 88.9137 79.9164 102.268 82.0953 96.2236C86.1017 85.4696 64.5234 88.9137 64.5234 88.9137Z" stroke="#202020" stroke-width="2" stroke-miterlimit="10" stroke-linecap="round" stroke-linejoin="round"/>
<path d="M64.5246 88.9137C64.5246 88.9137 54.0518 106.626 62.6971 108.735C71.2019 110.914 64.6652 89.4057 64.5246 88.9137Z" stroke="#202020" stroke-width="2" stroke-miterlimit="10" stroke-linecap="round" stroke-linejoin="round"/>
<path d="M27.272 68.2492C26.7097 67.8978 26.3582 67.3355 26.0771 66.7732C24.9525 64.5942 25.0228 61.853 25.9365 59.6038C26.9205 57.3546 28.6777 55.4569 30.7863 54.1214C32.3327 53.1374 34.0899 52.3642 35.9173 52.6454C37.8151 52.9265 39.4317 54.4728 40.2752 56.23C41.1889 57.9872 41.47 59.9553 41.6809 61.9233C42.1026 65.7891 42.3135 69.8658 40.6266 73.3099C40.1346 74.2939 39.4317 75.278 38.3071 75.4888C37.2528 75.6997 36.1282 75.0671 35.4956 74.1534C34.863 73.2396 34.5819 72.115 34.371 71.0607C34.0899 70.0064 34.0196 68.6006 33.5978 67.6166C33.0355 66.3514 32.9653 66.4217 31.9812 66.984C30.3646 67.8275 29.1697 69.5847 27.272 68.2492Z" stroke="#202020" stroke-width="2" stroke-miterlimit="10" stroke-linecap="round" stroke-linejoin="round"/>
<path d="M59.2519 11.5272C60.2359 9.06709 60.5874 6.39616 60.1656 3.79552C60.0251 2.74121 59.6033 1.47604 58.549 1.19489C57.565 0.843448 56.5107 1.54632 55.8078 2.31949C54.5426 3.72524 53.5586 5.41214 53.0666 7.23961C46.0378 2.10862 36.549 1.89776 27.9739 3.30351C22.2806 4.21725 16.3062 5.90415 12.3701 10.1214C10.1912 12.4409 8.71514 15.885 9.98032 18.8371C10.8238 20.8051 12.7918 22.1406 14.7599 22.7732C16.7982 23.4058 18.9771 23.476 21.0857 23.476C11.7375 26.7093 4.14645 34.9329 1.6161 44.5623C0.842933 47.3738 0.632071 50.7476 2.67041 52.8562C4.14645 54.4728 6.60651 54.8946 8.78543 54.5431C10.9643 54.1917 12.9324 53.1374 14.9004 52.0831C13.4947 54.0511 12.0187 56.0895 11.5266 58.4792C11.0346 60.869 11.6672 63.6805 13.7758 64.9457C16.6576 66.7029 20.3829 64.8051 22.9132 62.5559" stroke="#202020" stroke-width="2" stroke-miterlimit="10" stroke-linecap="round" stroke-linejoin="round"/>
<path d="M56.6523 68.6006C58.0581 70.147 60.6587 70.4281 62.3456 69.2332C62.9782 68.7412 63.5405 68.1086 63.6108 67.2652C63.7514 66.492 63.4702 65.5783 62.7674 65.1566C63.892 65.2971 65.0166 65.2971 66.0709 64.8754C67.1252 64.4537 67.9686 63.5399 68.1795 62.4153C68.3904 61.2907 67.6875 60.0958 66.6332 59.7444" stroke="#202020" stroke-width="2" stroke-miterlimit="10" stroke-linecap="round" stroke-linejoin="round"/>
<path d="M53.208 60.5176C49.7639 60.5176 46.8821 62.6262 45.7575 65.8594C44.6329 69.0927 45.0546 72.7476 46.0387 76.0511C47.4444 80.8307 50.2559 85.8914 54.1217 89.0543" stroke="#202020" stroke-width="2" stroke-miterlimit="10" stroke-linecap="round" stroke-linejoin="round"/>
<path d="M62.5557 36.4792C63.3289 41.7508 59.6037 46.6709 54.3321 47.4441C49.0605 48.2172 44.1404 44.492 43.3672 39.2204C42.5941 33.9489 46.3193 29.0288 51.5909 28.2556C56.8625 27.5527 61.7826 31.2077 62.5557 36.4792Z" stroke="#202020" stroke-width="2" stroke-miterlimit="10" stroke-linecap="round" stroke-linejoin="round"/>
<path d="M91.5147 32.3323C92.2879 37.6038 88.5627 42.524 83.2911 43.2971C78.0195 44.0703 73.0994 40.3451 72.3262 35.0735C71.5531 29.8019 75.2783 24.8818 80.5499 24.1086C85.8214 23.3355 90.7416 27.0607 91.5147 32.3323Z" stroke="#202020" stroke-width="2" stroke-miterlimit="10" stroke-linecap="round" stroke-linejoin="round"/>
<path d="M75.4896 45.2652C74.365 47.3035 72.1158 48.8498 69.4448 49.2013C66.8442 49.5527 64.3139 48.7796 62.627 47.2332" stroke="#202020" stroke-width="2" stroke-miterlimit="10" stroke-linecap="round" stroke-linejoin="round"/>
</g>
<defs>
<clipPath id="clip0">
<rect width="97.4185" height="110" fill="white"/>
</clipPath>
</defs>
</svg>
