<svg width="40" height="36" viewBox="0 0 40 36" fill="none" xmlns="http://www.w3.org/2000/svg">
<path d="M17.3334 20.6667C16.9652 20.6667 16.6667 20.9652 16.6667 21.3334V22C16.6667 22.3682 16.9652 22.6667 17.3334 22.6667C17.7015 22.6667 18 22.3682 18 22V21.3334C18 20.9652 17.7015 20.6667 17.3334 20.6667Z" fill="white"/>
<path d="M32.6 19.6312C32.7035 19.4241 32.6921 19.178 32.5697 18.9811C32.4473 18.7845 32.2318 18.6654 32 18.6667H30.4626C29.155 18.667 27.8893 19.1276 26.8874 19.9681C25.8249 18.9684 24.5508 18.2217 23.1602 17.7825L25.138 15.8047C25.3285 15.6139 25.3858 15.3271 25.2826 15.0781C25.1794 14.8291 24.9362 14.6667 24.6667 14.6667H22.7334C21.6742 14.6683 20.6465 15.0286 19.8181 15.6888L17.7315 17.3555C16.3207 17.4746 15.041 18.2301 14.2552 19.4079L12.7761 21.6266C12.6266 21.8506 12.6266 22.1426 12.7761 22.3665L14.2552 24.5853C15.0407 25.765 16.3213 26.5218 17.7334 26.6413L19.82 28.3079C20.6475 28.9691 21.6742 29.3304 22.7334 29.3333H24.6667C24.9362 29.3333 25.1794 29.1709 25.2826 28.9219C25.3858 28.6728 25.3285 28.3861 25.138 28.1953L23.1602 26.2174C24.5508 25.7783 25.8249 25.0316 26.8874 24.0319C27.8893 24.8724 29.155 25.333 30.4626 25.3333H32C32.2318 25.3346 32.4473 25.2155 32.5697 25.0189C32.6921 24.8219 32.7035 24.5758 32.6 24.3688L31.8614 22.8919C31.5821 22.3301 31.5821 21.6699 31.8614 21.1081L32.6 19.6312ZM20.654 16.7334C21.2442 16.2607 21.9772 16.0023 22.7334 16H23.0547L21.7214 17.3333H19.9007L20.654 16.7334ZM18.9212 25.3333H18.1406C17.0257 25.3346 15.9844 24.777 15.3672 23.8486L14.1335 22L15.3659 20.1514C15.9834 19.2223 17.0254 18.665 18.1406 18.6667H18.9212L19.8281 20.4814C20.3041 21.4378 20.3041 22.5622 19.8281 23.5185L18.9212 25.3333ZM22.7334 28C21.9763 27.9984 21.2422 27.7396 20.6514 27.2666L19.8981 26.6667H21.7214L23.0547 28H22.7334ZM26 23.0514C24.4857 24.4759 22.4955 25.2864 20.4167 25.3245L21.0205 24.1152C21.6833 22.7829 21.6833 21.2171 21.0205 19.8848L20.4167 18.6754C22.4955 18.7135 24.4857 19.5241 26 20.9486V23.0514ZM30.6667 23.4879L30.9225 24H30.4639C29.2731 24.0003 28.1367 23.4997 27.3334 22.6208V21.3792C28.1364 20.5006 29.2722 20 30.4626 20H30.9212L30.6667 20.512C30.2015 21.4495 30.2015 22.5504 30.6667 23.4879Z" fill="white"/>
<path d="M8 17.3333C6.89551 17.3333 6 18.2289 6 19.3333C6 20.4378 6.89551 21.3333 8 21.3333C9.10449 21.3333 10 20.4378 10 19.3333C10 18.2289 9.10449 17.3333 8 17.3333ZM8 20C7.63184 20 7.33333 19.7015 7.33333 19.3333C7.33333 18.9652 7.63184 18.6667 8 18.6667C8.36816 18.6667 8.66667 18.9652 8.66667 19.3333C8.66667 19.7015 8.36816 20 8 20Z" fill="white"/>
<path d="M14.6667 14.6667C14.6667 13.5622 13.7712 12.6667 12.6667 12.6667C11.5622 12.6667 10.6667 13.5622 10.6667 14.6667C10.6667 15.7711 11.5622 16.6667 12.6667 16.6667C13.7712 16.6667 14.6667 15.7711 14.6667 14.6667ZM12.6667 15.3333C12.2985 15.3333 12 15.0348 12 14.6667C12 14.2985 12.2985 14 12.6667 14C13.0349 14 13.3334 14.2985 13.3334 14.6667C13.3334 15.0348 13.0349 15.3333 12.6667 15.3333Z" fill="white"/>
<path d="M8 9.33334C6.89551 9.33334 6 10.2289 6 11.3333C6 12.4378 6.89551 13.3333 8 13.3333C9.10449 13.3333 10 12.4378 10 11.3333C10 10.2289 9.10449 9.33334 8 9.33334ZM8 12C7.63184 12 7.33333 11.7015 7.33333 11.3333C7.33333 10.9652 7.63184 10.6667 8 10.6667C8.36816 10.6667 8.66667 10.9652 8.66667 11.3333C8.66667 11.7015 8.36816 12 8 12Z" fill="white"/>
<path d="M39.9421 13.874C39.9167 13.5185 39.8822 13.1628 39.8379 12.8073C39.8327 12.7685 39.8281 12.7308 39.8232 12.692C39.235 8.16698 37.1022 3.98372 33.7855 0.849926C33.6611 0.732087 33.4964 0.666332 33.3252 0.666658H6.6748C6.50358 0.666332 6.33887 0.732087 6.21452 0.849926C2.90918 3.97265 0.779297 8.13801 0.182617 12.6462L0.172526 12.7272C0.124675 13.098 0.0872396 13.471 0.0598958 13.846C0.0540365 13.9287 0.0465495 14.0107 0.0413412 14.0934C0.0166016 14.5045 0 14.9173 0 15.3333C0 26.3789 8.95443 35.3333 20 35.3333C31.0456 35.3333 40 26.3789 40 15.3333C40 14.9261 39.9841 14.5215 39.9606 14.1188C39.9554 14.0374 39.9479 13.956 39.9421 13.874ZM6.94401 1.99999H33.056C34.1344 3.05435 35.0827 4.23437 35.8799 5.51464C35.3411 5.8509 34.7148 6.01985 34.0801 5.99999C33.3831 6.01692 32.6986 5.81542 32.1221 5.42414C30.5153 4.41405 28.472 4.41405 26.8652 5.42414C25.6745 6.19205 24.1442 6.19205 22.9535 5.42414C21.348 4.4147 19.3066 4.4147 17.7012 5.42414C16.5107 6.19205 14.9808 6.19205 13.79 5.42414C13.0111 4.91145 12.0951 4.64745 11.1628 4.66666C10.2311 4.64745 9.31543 4.91145 8.53744 5.42414C7.96126 5.81542 7.27734 6.01659 6.58138 5.99999C5.88509 6.01692 5.20085 5.81542 4.62467 5.42414C4.52344 5.36523 4.40853 5.30338 4.29655 5.24185C5.05599 4.0664 5.94401 2.97916 6.94401 1.99999ZM20 34C9.69564 33.9883 1.34505 25.6377 1.33333 15.3333C1.33333 14.9661 1.34603 14.5999 1.36784 14.2334C1.37207 14.1614 1.37858 14.0898 1.38411 14.0179C1.40658 13.6966 1.43522 13.3753 1.47461 13.056C1.47949 13.0215 1.4834 12.9892 1.48796 12.9534C1.78353 10.651 2.50684 8.4248 3.62142 6.38866C3.73275 6.44791 3.84212 6.51204 3.95475 6.57681C4.73372 7.08853 5.64941 7.3522 6.58138 7.33332C7.51335 7.35253 8.42936 7.08821 9.20801 6.57584C9.78353 6.18456 10.4668 5.98339 11.1628 5.99999C11.8587 5.98339 12.5426 6.18456 13.1188 6.57584C13.8971 7.08853 14.8128 7.35253 15.7448 7.33332C16.6768 7.35253 17.5924 7.08821 18.3714 6.57584C19.5618 5.80793 21.0915 5.80793 22.2819 6.57584C23.8874 7.58593 25.9297 7.58593 27.5355 6.57584C28.7275 5.80793 30.2585 5.80793 31.4505 6.57584C32.2301 7.08853 33.1468 7.35253 34.0794 7.33332C34.9443 7.35546 35.7975 7.12727 36.5361 6.67675C37.5716 8.65396 38.2438 10.8014 38.5199 13.0166C38.5254 13.0566 38.5306 13.0967 38.5355 13.1367C38.5713 13.442 38.598 13.7487 38.6188 14.0553C38.6234 14.1221 38.6299 14.1927 38.6341 14.262C38.6546 14.6178 38.6667 14.9753 38.6667 15.3333C38.6549 25.6377 30.3044 33.9883 20 34Z" fill="white"/>
</svg>
