<svg width="34" height="34" viewBox="0 0 34 34" fill="none" xmlns="http://www.w3.org/2000/svg">
<path d="M19.7854 18.2944C19.5852 18.0943 19.2608 18.0943 19.0605 18.2944L17.4204 19.9345C17.2202 20.1347 17.2202 20.4591 17.4204 20.6594C17.5205 20.7595 17.6517 20.8095 17.7828 20.8095C17.914 20.8095 18.0452 20.7595 18.1452 20.6594L19.7853 19.0193C19.9856 18.8191 19.9856 18.4946 19.7854 18.2944Z" fill="white"/>
<path d="M16.5051 21.5746C16.305 21.3745 15.9805 21.3745 15.7802 21.5746L11.348 26.0068C11.1478 26.2069 11.1478 26.5314 11.348 26.7317C11.4481 26.8318 11.5793 26.8818 11.7104 26.8818C11.8416 26.8818 11.9728 26.8318 12.0728 26.7317L16.505 22.2995C16.7053 22.0993 16.7053 21.7748 16.5051 21.5746Z" fill="white"/>
<path d="M13.0008 8.26763C12.8007 8.06755 12.4762 8.06748 12.2759 8.2677L11.0687 9.47503C10.8685 9.67518 10.8685 9.99971 11.0687 10.1999C11.1688 10.2999 11.5035 10.4452 11.7936 10.1998L13.0008 8.99246C13.201 8.79224 13.201 8.46772 13.0008 8.26763Z" fill="white"/>
<path d="M20.6278 11.4384C20.6278 11.1458 20.5143 10.8713 20.3082 10.6651C20.102 10.459 19.8274 10.3456 19.5349 10.3456C19.2423 10.3456 18.9677 10.459 18.7616 10.6651L18.3677 11.0591C16.5984 11.0778 15.15 11.4292 13.9434 12.1318C11.3844 13.6219 10.8094 16.1503 10.7261 17.7697L8.55869 18.161C8.01775 18.2143 7.71427 18.7512 7.70251 19.1297C7.68771 19.604 8.0115 20.0307 8.47256 20.1439L10.4616 20.6325L10.9502 22.6215C11.0616 23.0752 11.4656 23.392 11.9326 23.392C11.9431 23.392 11.9537 23.3918 11.9643 23.3915C12.4386 23.3768 12.8442 23.0271 12.9286 22.5599L13.3138 20.4263C14.6226 20.2915 15.767 19.943 16.7199 19.3881C18.2255 18.5115 19.2206 17.1658 19.6776 15.3885C19.9737 14.2373 19.96 13.176 19.9191 12.6032L20.3082 12.2117C20.5143 12.0055 20.6278 11.7309 20.6278 11.4384ZM19.5824 11.488L19.0243 12.0494C18.9154 12.1589 18.8618 12.3115 18.878 12.4649C18.9832 13.4547 19.1012 16.8155 16.2041 18.5023C15.2928 19.0331 14.1623 19.3478 12.8443 19.4378C12.6099 19.4538 12.4165 19.6271 12.3748 19.8581L11.9309 22.3168L11.383 20.0865C11.3375 19.9011 11.1929 19.7565 11.0076 19.711L8.77717 19.1631L11.318 18.7044C11.5615 18.6604 11.7388 18.4489 11.7395 18.2016C11.7437 16.8545 12.1025 14.3899 14.4593 13.0176C15.5389 12.389 16.8665 12.0834 18.5179 12.0834L18.5784 12.0835H18.5807C18.7166 12.0835 18.847 12.0295 18.9432 11.9334L19.4865 11.3901C19.5024 11.3741 19.5217 11.3708 19.535 11.3708C19.5483 11.3708 19.5675 11.3741 19.5835 11.3901C19.5995 11.406 19.6029 11.4253 19.6029 11.4385C19.6029 11.4517 19.5994 11.471 19.5824 11.488Z" fill="white"/>
<path d="M29.4887 15.7331C29.3938 15.6374 29.2611 15.5828 29.1265 15.5828C28.9919 15.5828 28.8593 15.6374 28.7644 15.7331C28.6687 15.8281 28.614 15.9607 28.614 16.0953C28.614 16.2299 28.6687 16.3625 28.7644 16.4575C28.8593 16.5532 28.9919 16.6078 29.1265 16.6078C29.2611 16.6078 29.3938 16.5532 29.4887 16.4575C29.5844 16.3625 29.6391 16.2306 29.6391 16.0953C29.6391 15.96 29.5844 15.8281 29.4887 15.7331Z" fill="white"/>
<path d="M33.8497 18.8866C33.7547 18.7909 33.6221 18.7362 33.4875 18.7362C33.3529 18.7362 33.2203 18.7909 33.1253 18.8866C33.0296 18.9815 32.975 19.1141 32.975 19.2487C32.975 19.3833 33.0296 19.5159 33.1253 19.6109C33.2203 19.7066 33.3529 19.7613 33.4875 19.7613C33.6221 19.7613 33.7547 19.7066 33.8497 19.6109C33.9454 19.5159 34 19.384 34 19.2487C34 19.1135 33.9454 18.9815 33.8497 18.8866Z" fill="white"/>
<path d="M29.4887 22.0643C29.3938 21.9687 29.2611 21.914 29.1265 21.914C28.9919 21.914 28.8593 21.9687 28.7644 22.0643C28.6687 22.1593 28.614 22.2919 28.614 22.4265C28.614 22.5611 28.6687 22.6937 28.7644 22.7887C28.8593 22.8844 28.9919 22.939 29.1265 22.939C29.2611 22.939 29.3938 22.8844 29.4887 22.7887C29.5844 22.6937 29.6391 22.5618 29.6391 22.4265C29.6391 22.2912 29.5844 22.1593 29.4887 22.0643Z" fill="white"/>
<path d="M33.8497 25.4716C33.7547 25.3759 33.6221 25.3212 33.4875 25.3212C33.3529 25.3212 33.2203 25.3759 33.1253 25.4716C33.0296 25.5665 32.975 25.6991 32.975 25.8338C32.975 25.9684 33.0296 26.101 33.1253 26.1959C33.2203 26.2916 33.3529 26.3463 33.4875 26.3463C33.6221 26.3463 33.7547 26.2916 33.8497 26.1959C33.9454 26.101 34 25.969 34 25.8338C34 25.6985 33.9454 25.5666 33.8497 25.4716Z" fill="white"/>
<path d="M29.4887 28.8764C29.3938 28.7807 29.2611 28.726 29.1265 28.726C28.9919 28.726 28.8593 28.7807 28.7644 28.8764C28.6687 28.9713 28.614 29.1039 28.614 29.2385C28.614 29.3731 28.6687 29.5057 28.7644 29.6007C28.8593 29.6964 28.9919 29.7511 29.1265 29.7511C29.2611 29.7511 29.3938 29.6964 29.4887 29.6007C29.5844 29.5058 29.6391 29.3738 29.6391 29.2385C29.6391 29.1032 29.5844 28.9713 29.4887 28.8764Z" fill="white"/>
<path d="M33.8497 33.1214C33.7547 33.0256 33.6221 32.971 33.4875 32.971C33.3529 32.971 33.2203 33.0257 33.1253 33.1214C33.0296 33.2163 32.975 33.349 32.975 33.4836C32.975 33.6182 33.0296 33.7508 33.1253 33.8457C33.2203 33.9414 33.3529 33.9961 33.4875 33.9961C33.6221 33.9961 33.7547 33.9414 33.8497 33.8457C33.9454 33.7508 34 33.6188 34 33.4836C34 33.3483 33.9454 33.2163 33.8497 33.1214Z" fill="white"/>
<path d="M32.0621 7.29083C32.0621 6.34879 31.2957 5.5824 30.3536 5.5824H26.6393L21.8242 0.76735C21.3323 0.275546 20.6761 0.00460815 19.9765 0.00460815C19.2769 0.00460815 18.6207 0.275479 18.1288 0.767417C17.4883 1.4079 17.2508 2.30074 17.4156 3.12869L13.6086 6.93569C13.4084 7.13584 13.4084 7.46037 13.6085 7.66052C13.7086 7.76066 14.069 7.90881 14.3333 7.66058L17.8545 4.13946C17.9359 4.25262 26.8369 13.1537 26.9508 13.2357L12.1484 28.0383L3.08643 18.9761L3.03729 18.9568L10.4553 11.5387C10.6554 11.3386 10.6554 11.014 10.4552 10.8139C10.2551 10.6138 9.93059 10.6137 9.73038 10.814L0.629066 19.9153C0.223391 20.321 0 20.8619 0 21.4388C0 22.0155 0.223391 22.5565 0.629 22.9622L8.12813 30.4614C8.54814 30.8814 9.09978 31.0914 9.65155 31.0913C10.2031 31.0912 10.755 30.8813 11.175 30.4614L27.9618 13.6745C28.129 13.7074 29.2146 13.9846 30.3229 12.9615C30.8341 12.4896 31.0858 11.8134 31.0858 11.1138C31.0858 10.4142 30.8148 9.75796 30.323 9.26602L30.0561 8.9992H30.3536C31.2957 8.99927 32.0621 8.23287 32.0621 7.29083ZM10.4502 29.7365C10.0097 30.1768 9.29322 30.1768 8.85308 29.7365L1.35389 22.2373C1.14186 22.0253 1.02505 21.7417 1.02505 21.4388C1.02505 21.1357 1.14186 20.8522 1.35389 20.6402L2.36154 19.6326V19.7009L11.4236 28.763L10.4502 29.7365ZM30.0607 11.1138C30.0607 11.5396 29.8964 11.9383 29.5981 12.2367C29.2998 12.5349 28.9011 12.6993 28.4753 12.6993C28.0495 12.6993 27.6507 12.535 27.3524 12.2366L18.8537 3.73783C18.2346 3.11873 18.2346 2.11135 18.8537 1.49224C19.152 1.19394 19.5507 1.02965 19.9765 1.02965C20.4023 1.02965 20.8011 1.19388 21.0994 1.49224L29.5981 9.99098C29.8964 10.2892 30.0607 10.688 30.0607 11.1138ZM29.0311 7.97422L27.6643 6.60745H30.3536C30.7304 6.60745 31.037 6.91404 31.037 7.29083C31.037 7.66762 30.7304 7.97422 30.3536 7.97422H29.0311Z" fill="white"/>
</svg>
