<svg width="34" height="35" viewBox="0 0 34 35" fill="none" xmlns="http://www.w3.org/2000/svg">
<path d="M16.6505 3.60775C21.024 3.60775 21.5461 3.61936 23.2746 3.70063C24.8755 3.7703 25.734 4.04896 26.314 4.26956C27.0797 4.57144 27.6249 4.93137 28.1934 5.51191C28.7618 6.09244 29.1215 6.64976 29.4231 7.42768C29.6435 8.01982 29.9103 8.90224 29.9915 10.5277C30.0727 12.2926 30.0843 12.8151 30.0843 17.2736C30.0843 21.7321 30.0727 22.2546 29.9915 24.0194C29.9219 25.6449 29.6551 26.5273 29.4231 27.1195C29.1215 27.8974 28.7734 28.4547 28.1934 29.0352C27.6249 29.6158 27.0797 29.9757 26.314 30.2776C25.734 30.5098 24.8639 30.7768 23.2746 30.8465C21.5461 30.9278 21.024 30.9394 16.6505 30.9394C12.2769 30.9394 11.7549 30.9278 10.0264 30.8465C8.42545 30.7768 7.56699 30.4982 6.98694 30.2776C6.22128 29.9757 5.67604 29.6158 5.10759 29.0352C4.53915 28.4547 4.17952 27.8974 3.8779 27.1195C3.65748 26.5273 3.39066 25.6449 3.30945 24.0194C3.22825 22.2546 3.21665 21.7321 3.21665 17.2736C3.21665 12.8151 3.22825 12.2926 3.30945 10.5277C3.37906 8.90224 3.64588 8.01982 3.8779 7.42768C4.17952 6.64976 4.52755 6.09244 5.10759 5.51191C5.67604 4.93137 6.22128 4.57144 6.98694 4.26956C7.56699 4.03735 8.43705 3.7703 10.0264 3.70063C11.7549 3.63097 12.2653 3.60775 16.6505 3.60775ZM16.6505 0.612183C12.1957 0.612183 11.6389 0.635403 9.89877 0.716678C8.15863 0.797953 6.96374 1.07661 5.91966 1.4946C4.84077 1.92419 3.9243 2.49312 3.01943 3.42198C2.10296 4.35084 1.54612 5.27969 1.12849 6.38271C0.722455 7.43929 0.444033 8.65841 0.362827 10.4349C0.281621 12.2113 0.27002 12.7802 0.27002 17.3084C0.27002 21.8366 0.293222 22.4055 0.362827 24.1819C0.444033 25.9584 0.722455 27.1659 1.12849 28.2341C1.54612 29.3255 2.10296 30.266 3.01943 31.1948C3.9359 32.1237 4.84077 32.6926 5.91966 33.1222C6.96374 33.5402 8.15863 33.8189 9.89877 33.9001C11.6505 33.9814 12.2073 34.0046 16.6505 34.0046C21.0936 34.0046 21.6621 33.9814 23.4022 33.9001C25.1423 33.8189 26.3372 33.5402 27.3813 33.1222C28.4602 32.6926 29.3767 32.1237 30.2815 31.1948C31.198 30.266 31.7549 29.3371 32.1725 28.2341C32.5785 27.1775 32.8569 25.9584 32.9381 24.1819C33.0194 22.4055 33.031 21.8366 33.031 17.3084C33.031 12.7802 33.0078 12.2113 32.9381 10.4349C32.8569 8.65841 32.5785 7.4509 32.1725 6.38271C31.7549 5.2913 31.198 4.35084 30.2815 3.42198C29.3651 2.49312 28.4602 1.92419 27.3813 1.4946C26.3372 1.07661 25.1423 0.797953 23.4022 0.716678C21.6505 0.623793 21.0936 0.612183 16.6505 0.612183Z" fill="white"/>
<path d="M16.6504 8.72809C11.9984 8.72809 8.23975 12.5596 8.23975 17.2968C8.23975 22.034 12.01 25.8655 16.6504 25.8655C21.2908 25.8655 25.0611 22.034 25.0611 17.2968C25.0611 12.5596 21.2908 8.72809 16.6504 8.72809ZM16.6504 22.8583C13.6342 22.8583 11.1864 20.3736 11.1864 17.2968C11.1864 14.22 13.6342 11.7353 16.6504 11.7353C19.6666 11.7353 22.1144 14.22 22.1144 17.2968C22.1144 20.3736 19.6666 22.8583 16.6504 22.8583Z" fill="white"/>
<path d="M25.3976 10.3768C26.4803 10.3768 27.3581 9.48271 27.3581 8.37977C27.3581 7.27683 26.4803 6.38273 25.3976 6.38273C24.3148 6.38273 23.437 7.27683 23.437 8.37977C23.437 9.48271 24.3148 10.3768 25.3976 10.3768Z" fill="white"/>
</svg>
