<svg width="35" height="40" viewBox="0 0 35 40" fill="none" xmlns="http://www.w3.org/2000/svg">
<path d="M21.5859 29.4297C24.8125 24.0781 28.8906 16.5547 28.8906 12.6875C28.8906 6.16406 23.5859 0.859375 17.0625 0.859375C10.5391 0.859375 5.23438 6.16406 5.23438 12.6875C5.23438 16.5547 9.3125 24.0781 12.5391 29.4297C8.71094 29.7188 0 30.7578 0 34.2031C0 37.5938 8.84375 39.1406 17.0703 39.1406C25.2891 39.1406 34.1406 37.5938 34.1406 34.2031C34.1328 30.7578 25.4141 29.7188 21.5859 29.4297ZM6.86719 12.6875C6.86719 7.0625 11.4453 2.48438 17.0625 2.48438C22.6875 2.48438 27.2656 7.0625 27.2656 12.6875C27.2656 17.6016 19.4375 29.9297 17.0625 33.5547C14.6875 29.9297 6.86719 17.6016 6.86719 12.6875ZM17.0625 37.5078C7.07031 37.5078 1.625 35.3203 1.625 34.1953C1.625 33.3281 5.21875 31.4609 13.5 30.9844C15.0547 33.4922 16.2344 35.2656 16.3906 35.4766C16.6016 35.7578 17.2188 36.0938 17.7422 35.4766C17.9062 35.2812 19.0781 33.4922 20.6328 30.9844C28.9141 31.4609 32.5078 33.3203 32.5078 34.1953C32.5 35.3281 27.0547 37.5078 17.0625 37.5078Z" fill="#36C0F1"/>
<path d="M22.2109 12.6875C22.2109 9.84375 19.9063 7.53906 17.0625 7.53906C14.2187 7.53906 11.9141 9.84375 11.9141 12.6875C11.9141 15.5312 14.2187 17.8359 17.0625 17.8359C19.9063 17.8359 22.2109 15.5312 22.2109 12.6875ZM13.5391 12.6875C13.5391 10.7422 15.1172 9.16406 17.0625 9.16406C19.0078 9.16406 20.5859 10.7422 20.5859 12.6875C20.5859 14.6328 19.0078 16.2109 17.0625 16.2109C15.1172 16.2109 13.5391 14.6328 13.5391 12.6875Z" fill="#36C0F1"/>
</svg>
