<svg width="80" height="50" viewBox="0 0 80 50" fill="none" xmlns="http://www.w3.org/2000/svg">
<path fill-rule="evenodd" clip-rule="evenodd" d="M74 1H6C3.23858 1 1 3.23858 1 6V44C1 46.7614 3.23858 49 6 49H74C76.7614 49 79 46.7614 79 44V6C79 3.23858 76.7614 1 74 1ZM6 0C2.68629 0 0 2.68629 0 6V44C0 47.3137 2.68629 50 6 50H74C77.3137 50 80 47.3137 80 44V6C80 2.68629 77.3137 0 74 0H6Z" fill="white"/>
<path d="M47.8533 10.0588H35.1445V32.5506H47.8533V10.0588Z" fill="#EEEEEE"/>
<path d="M35.9515 21.3081C35.9491 19.1417 36.4474 17.0031 37.4085 15.0544C38.3696 13.1056 39.7684 11.3978 41.4989 10.0602C39.3563 8.40195 36.783 7.37076 34.0734 7.08453C31.3637 6.79829 28.627 7.26855 26.1759 8.44157C23.7248 9.61458 21.6583 11.443 20.2125 13.7179C18.7667 15.9928 18 18.6224 18 21.3061C18 23.9898 18.7667 26.6194 20.2125 28.8943C21.6583 31.1692 23.7248 32.9976 26.1759 34.1706C28.627 35.3436 31.3637 35.8139 34.0734 35.5277C36.783 35.2414 39.3563 34.2102 41.4989 32.552C39.7689 31.2148 38.3705 29.5076 37.4094 27.5596C36.4483 25.6116 35.9497 23.4738 35.9515 21.3081Z" fill="#C6C6C6"/>
<path d="M65.0001 21.3068C65 23.9907 64.2332 26.6205 62.7871 28.8954C61.3411 31.1704 59.2742 32.9988 56.8228 34.1717C54.3714 35.3445 51.6344 35.8145 48.9246 35.5278C46.2148 35.2412 43.6416 34.2095 41.499 32.5507C43.2283 31.2123 44.6264 29.5047 45.5878 27.5566C46.5491 25.6085 47.0486 23.4708 47.0486 21.3048C47.0486 19.1389 46.5491 17.0012 45.5878 15.0531C44.6264 13.105 43.2283 11.3973 41.499 10.059C43.6416 8.40016 46.2148 7.36847 48.9246 7.08182C51.6344 6.79517 54.3714 7.26513 56.8228 8.43798C59.2742 9.61083 61.3411 11.4392 62.7871 13.7142C64.2332 15.9892 65 18.6189 65.0001 21.3028V21.3068Z" fill="white"/>
<path d="M63.6123 30.1668V29.706H63.8019V29.6106H63.3218V29.706H63.5275V30.1668H63.6123ZM64.5442 30.1668V29.6106H64.399L64.2295 30.0079L64.0601 29.6106H63.931V30.1668H64.0359V29.7497L64.1932 30.1112H64.3022L64.4595 29.7497V30.1708L64.5442 30.1668Z" fill="white"/>
<path d="M26.5509 42.8015V40.4176C26.565 40.2172 26.5356 40.016 26.4646 39.8276C26.3935 39.6392 26.2826 39.4679 26.139 39.325C25.9955 39.1822 25.8227 39.0711 25.6321 38.9991C25.4416 38.9272 25.2376 38.8961 25.0339 38.9079C24.7673 38.8906 24.5008 38.9442 24.2623 39.063C24.0239 39.1819 23.8222 39.3615 23.6783 39.5833C23.5472 39.3682 23.3595 39.1919 23.1351 39.073C22.9108 38.9541 22.658 38.8971 22.4034 38.9079C22.1815 38.8968 21.9606 38.9431 21.7624 39.042C21.5643 39.141 21.3958 39.2892 21.2738 39.472V39.0032H20.4346V42.8015H21.2818V40.7116C21.2638 40.5818 21.2751 40.4496 21.315 40.3245C21.3549 40.1994 21.4224 40.0846 21.5126 39.9881C21.6028 39.8917 21.7135 39.8161 21.8368 39.7667C21.9601 39.7174 22.093 39.6954 22.2259 39.7025C22.7827 39.7025 23.0651 40.0601 23.0651 40.7037V42.8174H23.9123V40.7116C23.895 40.5819 23.9069 40.45 23.9471 40.3252C23.9872 40.2005 24.0547 40.0859 24.1447 39.9897C24.2348 39.8934 24.3452 39.8178 24.4682 39.7682C24.5911 39.7186 24.7237 39.6961 24.8564 39.7025C25.4293 39.7025 25.7037 40.0601 25.7037 40.7037V42.8174L26.5509 42.8015ZM39.0861 39.0032H37.7063V37.851H36.8591V39.0032H36.0925V39.7581H36.8752V41.5063C36.8752 42.3883 37.2222 42.9127 38.2147 42.9127C38.5855 42.914 38.9491 42.8121 39.2637 42.6187L39.0216 41.9115C38.7966 42.0437 38.5411 42.1175 38.2792 42.1261C37.8758 42.1261 37.7225 41.8718 37.7225 41.4904V39.7581H39.0942L39.0861 39.0032ZM46.2434 38.9079C46.0388 38.9019 45.8363 38.9505 45.6574 39.0484C45.4785 39.1463 45.3297 39.2899 45.2267 39.4641V39.0032H44.3956V42.8015H45.2348V40.6719C45.2348 40.0442 45.5091 39.6945 46.0417 39.6945C46.2212 39.6921 46.3994 39.7245 46.5661 39.7899L46.8244 38.9953C46.6327 38.9277 46.4308 38.8928 46.2272 38.892L46.2434 38.9079ZM35.4228 39.3052C34.9478 39.027 34.4017 38.8891 33.8493 38.9079C32.873 38.9079 32.2355 39.3687 32.2355 40.1236C32.2355 40.7434 32.7035 41.1248 33.5669 41.244L33.9704 41.2997C34.4303 41.3632 34.6482 41.4824 34.6482 41.697C34.6482 41.991 34.3416 42.1579 33.7687 42.1579C33.3078 42.171 32.8559 42.031 32.4857 41.7605L32.0822 42.4042C32.5711 42.7403 33.1565 42.913 33.7525 42.8969C34.866 42.8969 35.5116 42.3803 35.5116 41.6572C35.5116 40.9341 35.0032 40.6401 34.164 40.5209L33.7606 40.4653C33.3975 40.4176 33.107 40.3461 33.107 40.0918C33.107 39.8376 33.3813 39.6469 33.8413 39.6469C34.2664 39.6517 34.6831 39.7639 35.0516 39.9726L35.4228 39.3052ZM57.8991 38.9079C57.6945 38.9019 57.4921 38.9505 57.3131 39.0484C57.1342 39.1463 56.9854 39.2899 56.8824 39.4641V39.0032H56.0513V42.8015H56.8905V40.6719C56.8905 40.0442 57.1648 39.6945 57.6974 39.6945C57.8769 39.6921 58.0551 39.7245 58.2219 39.7899L58.4801 38.9953C58.2884 38.9277 58.0865 38.8928 57.883 38.892L57.8991 38.9079ZM47.0866 40.8944C47.0766 41.1613 47.1233 41.4274 47.2237 41.6755C47.3242 41.9236 47.4761 42.1483 47.6697 42.3353C47.8634 42.5223 48.0946 42.6674 48.3485 42.7614C48.6024 42.8553 48.8734 42.8961 49.1442 42.881C49.6481 42.9062 50.1432 42.7446 50.5321 42.428L50.1286 41.7605C49.8385 41.9784 49.4848 42.0982 49.12 42.1022C48.8098 42.0775 48.5204 41.9387 48.3094 41.7134C48.0984 41.4882 47.9813 41.1929 47.9813 40.8865C47.9813 40.58 48.0984 40.2848 48.3094 40.0595C48.5204 39.8342 48.8098 39.6954 49.12 39.6707C49.4848 39.6747 49.8385 39.7945 50.1286 40.0124L50.5321 39.3449C50.1432 39.0283 49.6481 38.8667 49.1442 38.892C48.8734 38.8769 48.6024 38.9176 48.3485 39.0115C48.0946 39.1055 47.8634 39.2506 47.6697 39.4376C47.4761 39.6246 47.3242 39.8493 47.2237 40.0974C47.1233 40.3456 47.0766 40.6116 47.0866 40.8785V40.8944ZM54.9458 40.8944V39.0032H54.1067V39.4641C53.9642 39.2835 53.7801 39.1389 53.5696 39.0422C53.3592 38.9455 53.1284 38.8994 52.8963 38.9079C52.3613 38.9079 51.8482 39.1172 51.4699 39.4897C51.0916 39.8623 50.879 40.3675 50.879 40.8944C50.879 41.4213 51.0916 41.9266 51.4699 42.2991C51.8482 42.6717 52.3613 42.881 52.8963 42.881C53.1284 42.8894 53.3592 42.8433 53.5696 42.7466C53.7801 42.6499 53.9642 42.5053 54.1067 42.3247V42.7856H54.9458V40.8944ZM51.8231 40.8944C51.8365 40.6708 51.916 40.456 52.0518 40.2763C52.1876 40.0967 52.3738 39.9601 52.5874 39.8833C52.8011 39.8065 53.0329 39.793 53.2543 39.8443C53.4756 39.8956 53.6769 40.0096 53.8334 40.1721C53.9898 40.3347 54.0946 40.5388 54.1347 40.7592C54.1749 40.9796 54.1487 41.2069 54.0594 41.4128C53.9701 41.6188 53.8216 41.7946 53.6321 41.9185C53.4427 42.0424 53.2206 42.109 52.9931 42.1102C52.8334 42.1122 52.675 42.0816 52.5278 42.0203C52.3806 41.9591 52.2479 41.8686 52.138 41.7544C52.0282 41.6402 51.9434 41.5048 51.8892 41.3568C51.835 41.2088 51.8125 41.0514 51.8231 40.8944ZM41.6965 38.9079C41.1615 38.9152 40.6514 39.1316 40.2783 39.5094C39.9053 39.8871 39.7 40.3954 39.7075 40.9222C39.715 41.4491 39.9347 41.9514 40.3183 42.3188C40.7019 42.6861 41.218 42.8883 41.753 42.881C42.3334 42.9103 42.9043 42.7262 43.3547 42.3645L42.9512 41.7526C42.6326 42.0042 42.238 42.144 41.8296 42.1499C41.5522 42.1734 41.2765 42.0894 41.061 41.9158C40.8455 41.7422 40.7073 41.4926 40.6758 41.2202H43.5403C43.5403 41.1169 43.5403 41.0136 43.5403 40.9024C43.5403 39.7104 42.7898 38.9158 41.7086 38.9158L41.6965 38.9079ZM41.6965 39.6469C41.8221 39.6442 41.9469 39.666 42.064 39.7109C42.181 39.7558 42.2879 39.8229 42.3786 39.9085C42.4692 39.9941 42.5419 40.0965 42.5924 40.2097C42.6429 40.323 42.6702 40.4449 42.6728 40.5686H40.6556C40.6702 40.3136 40.7856 40.0743 40.9772 39.902C41.1687 39.7297 41.4211 39.6381 41.6803 39.6469H41.6965ZM62.7204 40.9024V37.4775H61.9135V39.4641C61.7709 39.2835 61.5869 39.1389 61.3764 39.0422C61.166 38.9455 60.9352 38.8994 60.7031 38.9079C60.1681 38.9079 59.655 39.1172 59.2767 39.4897C58.8984 39.8623 58.6858 40.3675 58.6858 40.8944C58.6858 41.4213 58.8984 41.9266 59.2767 42.2991C59.655 42.6717 60.1681 42.881 60.7031 42.881C60.9352 42.8894 61.166 42.8433 61.3764 42.7466C61.5869 42.6499 61.7709 42.5053 61.9135 42.3247V42.7856H62.7204V40.9024ZM64.1203 42.2492C64.1728 42.2486 64.2249 42.2581 64.2737 42.277C64.32 42.2957 64.3624 42.3226 64.3987 42.3565C64.4342 42.3908 64.4629 42.4312 64.4834 42.4757C64.5039 42.5221 64.5144 42.5721 64.5144 42.6227C64.5144 42.6733 64.5039 42.7233 64.4834 42.7697C64.4629 42.8142 64.4342 42.8547 64.3987 42.8889C64.3624 42.9228 64.32 42.9497 64.2737 42.9684C64.2254 42.9894 64.1731 43.0002 64.1203 43.0002C64.0439 42.9996 63.9691 42.9776 63.9048 42.9368C63.8405 42.896 63.7894 42.8381 63.7572 42.7697C63.737 42.7233 63.7266 42.6732 63.7266 42.6227C63.7266 42.5722 63.737 42.5222 63.7572 42.4757C63.7778 42.4312 63.8065 42.3908 63.842 42.3565C63.8783 42.3226 63.9207 42.2957 63.967 42.277C64.0196 42.2565 64.0759 42.247 64.1324 42.2492H64.1203ZM64.1203 42.9207C64.1606 42.9209 64.2005 42.9128 64.2373 42.8969C64.272 42.8816 64.3035 42.86 64.3301 42.8333C64.3806 42.7791 64.4086 42.7082 64.4086 42.6346C64.4086 42.5611 64.3806 42.4902 64.3301 42.436C64.3036 42.4092 64.2721 42.3876 64.2373 42.3724C64.2004 42.3566 64.1606 42.3484 64.1203 42.3486C64.0801 42.3488 64.0403 42.3569 64.0033 42.3724C63.9671 42.387 63.9342 42.4087 63.9065 42.436C63.856 42.4902 63.8281 42.5611 63.8281 42.6346C63.8281 42.7082 63.856 42.7791 63.9065 42.8333C63.9342 42.8605 63.9671 42.8821 64.0033 42.8969C64.044 42.9141 64.0881 42.9223 64.1324 42.9207H64.1203ZM64.1445 42.4479C64.1822 42.4461 64.2193 42.4573 64.2494 42.4797C64.2618 42.4897 64.2715 42.5026 64.2778 42.5171C64.2842 42.5316 64.2869 42.5474 64.2858 42.5631C64.2863 42.5763 64.2841 42.5895 64.2793 42.6018C64.2744 42.6141 64.267 42.6253 64.2575 42.6346C64.2341 42.6555 64.2043 42.6681 64.1728 42.6704L64.2898 42.8015H64.197L64.0881 42.6704H64.0518V42.8015H63.9751V42.4519L64.1445 42.4479ZM64.0558 42.5154V42.6108H64.1445C64.1603 42.6154 64.1772 42.6154 64.193 42.6108C64.1958 42.6052 64.1973 42.5991 64.1973 42.5929C64.1973 42.5867 64.1958 42.5806 64.193 42.575C64.1958 42.5695 64.1973 42.5634 64.1973 42.5572C64.1973 42.5509 64.1958 42.5448 64.193 42.5393C64.1772 42.5346 64.1603 42.5346 64.1445 42.5393L64.0558 42.5154ZM59.6178 40.9024C59.6312 40.6788 59.7107 40.4639 59.8465 40.2843C59.9823 40.1046 60.1685 39.968 60.3821 39.8912C60.5958 39.8145 60.8276 39.8009 61.0489 39.8522C61.2703 39.9036 61.4716 40.0175 61.6281 40.1801C61.7845 40.3426 61.8893 40.5467 61.9294 40.7672C61.9696 40.9876 61.9434 41.2148 61.8541 41.4208C61.7648 41.6268 61.6163 41.8025 61.4268 41.9264C61.2374 42.0503 61.0153 42.117 60.7878 42.1181C60.6281 42.1201 60.4697 42.0895 60.3225 42.0283C60.1753 41.9671 60.0426 41.8765 59.9327 41.7623C59.8228 41.6481 59.7381 41.5128 59.6839 41.3648C59.6297 41.2168 59.6072 41.0593 59.6178 40.9024ZM31.2834 40.9024V39.0032H30.4442V39.4641C30.3017 39.2835 30.1176 39.1389 29.9072 39.0422C29.6967 38.9455 29.4659 38.8994 29.2339 38.9079C28.6988 38.9079 28.1857 39.1172 27.8074 39.4897C27.4291 39.8623 27.2166 40.3675 27.2166 40.8944C27.2166 41.4213 27.4291 41.9266 27.8074 42.2991C28.1857 42.6717 28.6988 42.881 29.2339 42.881C29.4659 42.8894 29.6967 42.8433 29.9072 42.7466C30.1176 42.6499 30.3017 42.5053 30.4442 42.3247V42.7856H31.2834V40.9024ZM28.1607 40.9024C28.1741 40.6788 28.2535 40.4639 28.3893 40.2843C28.5251 40.1046 28.7113 39.968 28.925 39.8912C29.1386 39.8145 29.3704 39.8009 29.5918 39.8522C29.8132 39.9036 30.0145 40.0175 30.1709 40.1801C30.3274 40.3426 30.4321 40.5467 30.4723 40.7672C30.5124 40.9876 30.4863 41.2148 30.397 41.4208C30.3077 41.6268 30.1591 41.8025 29.9697 41.9264C29.7802 42.0503 29.5581 42.117 29.3307 42.1181C29.1703 42.1212 29.0109 42.0915 28.8628 42.0307C28.7147 41.97 28.581 41.8796 28.4703 41.7653C28.3595 41.651 28.2741 41.5152 28.2194 41.3667C28.1647 41.2181 28.142 41.06 28.1526 40.9024H28.1607Z" fill="white"/>
</svg>
