<svg width="80" height="50" viewBox="0 0 80 50" fill="none" xmlns="http://www.w3.org/2000/svg">
<rect x="0.5" y="0.5" width="79" height="49" rx="5.5" stroke="white"/>
<path fill-rule="evenodd" clip-rule="evenodd" d="M54.4397 25.6802V35H59.8707V29.4771H66.0259C68.6165 29.4588 70.8171 27.8812 71.6469 25.6802H54.4397Z" fill="white"/>
<path fill-rule="evenodd" clip-rule="evenodd" d="M53.7153 18C54.0317 21.8094 57.812 24.8173 62.4288 24.8173C62.4439 24.8173 71.8722 24.8173 71.8722 24.8173C71.9419 24.4679 71.9784 24.1073 71.9784 23.7386C71.9784 20.583 69.3078 18.0233 66.0043 18.0002L53.7153 18Z" fill="#C6C6C6"/>
<path fill-rule="evenodd" clip-rule="evenodd" d="M45.6775 24.7266L45.6818 24.7179L45.6824 24.718C45.738 24.6228 45.8447 24.5584 45.9672 24.5584C46.1441 24.5584 46.2881 24.6928 46.2929 24.8604L46.2931 24.8604V34.9137H51.7241V18H46.2931C45.6043 18.0219 44.8262 18.5037 44.5369 19.0951L40.2149 27.9314C40.2042 27.9675 40.1875 28.0012 40.1659 28.0315L40.1645 28.0344L40.1639 28.0343C40.0985 28.124 39.9896 28.1827 39.8663 28.1827C39.6664 28.1827 39.5043 28.0282 39.5043 27.8376V18H34.0732V34.9137H39.5043V34.9118C40.1855 34.8779 40.9453 34.4015 41.2304 33.8186L45.6664 24.7494C45.6698 24.7416 45.6735 24.734 45.6775 24.7266Z" fill="white"/>
<path fill-rule="evenodd" clip-rule="evenodd" d="M25.3975 25.0157L22.2233 34.9137H18.3163L15.1402 25.0097C15.1096 24.8511 14.9638 24.731 14.7886 24.731C14.5911 24.731 14.431 24.8836 14.431 25.0718C14.431 25.0733 14.431 25.0747 14.4311 25.0761L14.431 34.9137H9V18H13.6616H15.05C16.0493 18 17.0965 18.7394 17.3885 19.65L20.0317 27.892C20.1632 28.3021 20.3766 28.3016 20.5079 27.892L23.1511 19.65C23.4433 18.7387 24.4902 18 25.4897 18L26.8776 18H31.5388V34.9137H26.1078V25.0761C26.1077 25.0747 26.1078 25.0733 26.1078 25.0718C26.1078 24.8836 25.9477 24.731 25.7502 24.731C25.5728 24.731 25.4256 24.8542 25.3975 25.0157Z" fill="white"/>
</svg>
