<svg width="20" height="20" viewBox="0 0 20 20" fill="none" xmlns="http://www.w3.org/2000/svg">
<g clip-path="url(#clip0)">
<path d="M9.01441 14.0874C7.46395 13.9257 6.06597 13.5439 4.86909 12.6078C4.72057 12.4913 4.56725 12.379 4.43172 12.2489C3.90785 11.7458 3.85506 11.1696 4.26959 10.5757C4.62422 10.0676 5.21952 9.93162 5.83828 10.2234C5.9581 10.28 6.07226 10.3506 6.1816 10.4264C8.4122 11.959 11.4765 12.0013 13.7155 10.4953C13.9373 10.3252 14.1744 10.1865 14.4492 10.1157C14.9836 9.97854 15.4819 10.1748 15.7686 10.6423C16.0962 11.1763 16.0921 11.6974 15.6884 12.1119C15.0692 12.7475 14.3246 13.2072 13.4972 13.5281C12.7148 13.8315 11.8579 13.9842 11.0098 14.0855C11.1378 14.2248 11.1981 14.2933 11.2781 14.3738C12.4298 15.5308 13.5864 16.6831 14.7343 17.8438C15.1254 18.2392 15.2071 18.7296 14.9917 19.1896C14.7563 19.6923 14.2293 20.023 13.7125 19.9876C13.3851 19.965 13.1298 19.8021 12.9029 19.5735C12.0339 18.699 11.1485 17.8406 10.297 16.9496C10.0492 16.6904 9.92999 16.7395 9.71131 16.9644C8.837 17.8645 7.94844 18.7508 7.05465 19.632C6.65332 20.0277 6.17573 20.0989 5.7103 19.8729C5.21554 19.633 4.90072 19.128 4.92501 18.6205C4.94177 18.2772 5.1106 18.0149 5.34625 17.7797C6.48595 16.6416 7.62251 15.5007 8.75949 14.3608C8.83469 14.2849 8.90486 14.2045 9.01441 14.0874Z" fill="#8998A4"/>
<path d="M9.95945 10.1233C7.19346 10.1139 4.92536 7.82084 4.94149 5.05045C4.95741 2.24947 7.22697 -0.00773033 10.0202 1.98985e-05C12.8191 0.00756066 15.0656 2.29723 15.0516 5.12732C15.0373 7.89206 12.7535 10.1329 9.95945 10.1233ZM12.4732 5.05715C12.4684 3.68159 11.3729 2.5865 10.0001 2.58525C8.61573 2.58378 7.51038 3.69877 7.52106 5.0869C7.53133 6.45722 8.63626 7.54456 10.0129 7.53953C11.3853 7.53471 12.4779 6.4325 12.4732 5.05715Z" fill="#8998A4"/>
</g>
<defs>
<clipPath id="clip0">
<rect width="20" height="20" fill="white"/>
</clipPath>
</defs>
</svg>
