<svg width="20" height="20" viewBox="0 0 20 20" fill="none" xmlns="http://www.w3.org/2000/svg">
<path fill-rule="evenodd" clip-rule="evenodd" d="M18.7223 5.99633C18.7031 6.03758 18.6798 6.07717 18.6461 6.11133L7.01855 17.7384C6.97314 17.8167 6.91022 17.8851 6.82064 17.9192L1.04897 19.5359C1.03689 19.5417 1.02314 19.5426 1.0098 19.5467L0.990219 19.5526C0.986886 19.5538 0.983136 19.553 0.980219 19.5542C0.941053 19.5647 0.902303 19.5734 0.861053 19.573C0.820219 19.5742 0.782303 19.5667 0.743553 19.5559C0.734803 19.5534 0.726886 19.5551 0.718136 19.5522C0.714803 19.5509 0.712719 19.548 0.709386 19.5467C0.672719 19.533 0.641053 19.5122 0.609386 19.488C0.593136 19.4763 0.576053 19.4659 0.562303 19.4522C0.548553 19.4384 0.538136 19.4213 0.526469 19.4051C0.502303 19.3738 0.481886 19.3417 0.467719 19.3051C0.466053 19.3018 0.463553 19.2997 0.462303 19.2963C0.459386 19.288 0.461053 19.2797 0.458553 19.2709C0.448136 19.2326 0.440636 19.1943 0.441469 19.1538C0.441469 19.1122 0.449803 19.0734 0.460219 19.0342C0.461886 19.0309 0.460636 19.0276 0.461886 19.0247L0.467719 19.0042C0.472303 18.9917 0.473136 18.978 0.478553 18.9655L2.09522 13.1938C2.12939 13.1038 2.19772 13.0422 2.27605 12.9959L13.7256 1.54591C13.7423 1.52716 13.7619 1.51133 13.779 1.493L13.9036 1.36841C13.9098 1.36216 13.9177 1.36008 13.9244 1.35425C14.5261 0.779248 15.3336 0.416748 16.2323 0.416748C18.084 0.416748 19.5852 1.918 19.5852 3.76966C19.5852 4.62842 19.254 5.40383 18.7223 5.99633ZM17.1477 6.45842L15.6398 4.9505L5.7898 14.8009C5.79147 14.8042 5.79564 14.8055 5.7973 14.8088L6.78605 16.8201L17.1477 6.45842ZM1.4848 18.5305L2.64522 18.2059L1.80939 17.3705L1.4848 18.5305ZM2.06147 16.4709L3.54397 17.9538L6.09397 17.2392C6.09397 17.2392 5.01647 15.0009 5.0148 15.0001L2.77564 13.9209L2.06147 16.4709ZM5.20605 14.2184C5.20939 14.2201 5.21064 14.2238 5.21397 14.2259L15.0644 4.37508L13.5565 2.86716L3.1948 13.2288L5.20605 14.2184ZM16.2194 1.25008C15.4769 1.25008 14.8144 1.57341 14.349 2.08091L14.3461 2.078L14.1319 2.29175L17.7231 5.883L17.9427 5.663L17.9402 5.6605C18.444 5.1955 18.7648 4.53508 18.7648 3.7955C18.7648 2.38966 17.6252 1.25008 16.2194 1.25008Z" fill="#36C0F1"/>
</svg>
