<svg width="20" height="18" viewBox="0 0 20 18" fill="none" xmlns="http://www.w3.org/2000/svg">
<path d="M18.6312 14.2371L15.8451 11.4507C15.2902 10.898 14.3712 10.9148 13.7969 11.4893L12.3932 12.8926C12.3045 12.8437 12.2128 12.7927 12.1162 12.7385C11.2299 12.2474 10.0167 11.5742 8.74005 10.2967C7.45964 9.01641 6.78585 7.80136 6.29321 6.91439C6.24122 6.82043 6.19141 6.72983 6.14223 6.64379L7.08429 5.70313L7.54744 5.23941C8.1226 4.66409 8.13846 3.74536 7.58481 3.19103L4.79869 0.404295C4.24504 -0.149249 3.32563 -0.132456 2.75047 0.442856L1.96525 1.23259L1.98671 1.25389C1.72341 1.58985 1.50339 1.97733 1.33966 2.39519C1.18874 2.79293 1.09477 3.17248 1.0518 3.55281C0.683911 6.60269 2.07762 9.39005 5.85996 13.1724C11.0883 18.4004 15.3017 18.0055 15.4834 17.9862C15.8793 17.9389 16.2587 17.8443 16.6443 17.6946C17.0585 17.5327 17.4457 17.313 17.7815 17.0503L17.7986 17.0655L18.5941 16.2866C19.1681 15.7114 19.1846 14.7923 18.6312 14.2371Z" fill="#36C0F1"/>
</svg>
