<svg width="40" height="40" viewBox="0 0 40 40" fill="none" xmlns="http://www.w3.org/2000/svg">
<path d="M10 31.25V38.75H30V31.25V26.25H10V31.25ZM12.5 28.75H27.5V31.25H12.5V28.75ZM12.5 33.75H27.5V36.25H12.5V33.75Z" fill="#36C0F1"/>
<path d="M30 8.75V1.25H10V8.75V13.75H30V8.75Z" fill="#36C0F1"/>
<path d="M35 8.75H32.5V13.75V16.25H7.5V13.75V8.75H5C2.5 8.75 0 11.25 0 13.75V26.25C0 28.75 2.5 31.25 5 31.25H7.5V26.25V23.75H32.5V26.25V31.25H35C37.5 31.25 40 28.75 40 26.25V13.75C40 11.25 37.5 8.75 35 8.75Z" fill="#36C0F1"/>
</svg>
