<svg width="16" height="16" viewBox="0 0 16 16" fill="none" xmlns="http://www.w3.org/2000/svg">
<path d="M15.6644 14.2004L11.4872 10.0232C12.2331 8.97891 12.6807 7.71082 12.6807 6.36816C12.6807 2.8623 9.84618 0.027832 6.34037 0.027832C2.83455 0.027832 0 2.86234 0 6.36816C0 9.87398 2.83451 12.7085 6.34033 12.7085C7.68299 12.7085 8.95108 12.2609 9.99537 11.515L14.1725 15.6922C14.5455 16.0651 15.2168 16.0651 15.6644 15.6922C16.1119 15.2447 16.1119 14.6479 15.6644 14.2004ZM6.34033 11.2167C3.655 11.2167 1.49185 9.05348 1.49185 6.3682C1.49185 3.68287 3.655 1.51972 6.34033 1.51972C9.02565 1.51972 11.1888 3.68287 11.1888 6.3682C11.1888 9.05348 9.02565 11.2167 6.34033 11.2167Z" fill="#36C0F1"/>
</svg>
