<svg width="40" height="40" viewBox="0 0 40 40" fill="none" xmlns="http://www.w3.org/2000/svg">
<path d="M31.6927 14.3023C29.392 14.3023 27.3405 13.206 26.0283 11.5116L15.0399 17.6495C15.2974 18.3887 15.4386 19.186 15.4386 20.0083C15.4386 20.8389 15.2974 21.6279 15.0316 22.3754L26.0116 28.505C27.3156 26.8023 29.3754 25.6977 31.6844 25.6977C35.6213 25.6977 38.8356 28.9037 38.8356 32.8488C38.8356 36.794 35.6296 40 31.6844 40C27.7392 40 24.5332 36.794 24.5332 32.8488C24.5332 32.0183 24.6744 31.2209 24.9402 30.4817L13.9685 24.3522C12.6645 26.0631 10.6047 27.1595 8.29569 27.1595C4.35882 27.1595 1.14453 23.9535 1.14453 20.0083C1.14453 16.0631 4.35882 12.8571 8.304 12.8571C10.613 12.8571 12.6728 13.9618 13.9851 15.6728L24.9651 9.53488C24.6994 8.78738 24.5498 7.98173 24.5498 7.15116C24.5498 3.21429 27.7558 0 31.701 0C35.6462 0 38.8522 3.20598 38.8522 7.15116C38.8522 11.0963 35.6379 14.3023 31.6927 14.3023ZM31.6927 37.7492C34.4003 37.7492 36.6013 35.5482 36.6013 32.8405C36.6013 30.1329 34.4003 27.9319 31.6927 27.9319C28.9851 27.9319 26.7841 30.1329 26.7841 32.8405C26.7841 35.5482 28.9934 37.7492 31.6927 37.7492ZM8.304 15.0997C5.59636 15.0997 3.39536 17.3007 3.39536 20.0083C3.39536 22.7159 5.59636 24.9169 8.304 24.9169C11.0116 24.9169 13.2126 22.7159 13.2126 20.0083C13.2126 17.3007 11.0033 15.0997 8.304 15.0997ZM31.6927 2.25083C28.9851 2.25083 26.7841 4.45183 26.7841 7.15947C26.7841 9.86711 28.9851 12.0681 31.6927 12.0681C34.4003 12.0681 36.6013 9.86711 36.6013 7.15947C36.6013 4.45183 34.4003 2.25083 31.6927 2.25083Z" fill="#36C0F1"/>
</svg>
