<svg width="74" height="74" viewBox="0 0 74 74" fill="none" xmlns="http://www.w3.org/2000/svg">
<path d="M71.7431 33.5112C71.9121 32.6076 72.1104 31.0238 71.8994 29.2302C71.4808 25.673 69.6604 22.9245 66.6244 21.2537C65.9483 19.3755 62.9552 12.5864 54.3728 10.2775C53.3829 9.15988 49.6943 5.62971 43.2633 6.50773C43.232 6.48316 43.201 6.45859 43.1713 6.43518C42.2413 5.70038 40.306 4.17139 36.9999 4.17139C33.6937 4.17139 31.7584 5.70038 30.8284 6.43518C30.7987 6.45845 30.7677 6.48316 30.7364 6.50773C24.3048 5.62942 20.6167 9.16003 19.6269 10.2775C11.0446 12.5863 8.05155 19.3754 7.37529 21.2537C4.33941 22.9247 2.51889 25.673 2.10033 29.2302C1.88931 31.0238 2.08775 32.6076 2.25657 33.5112C1.36351 34.257 0 35.8719 0 38.7794C0 43.8955 2.00436 48.4312 5.95772 52.2607C9.23656 55.4369 13.2076 57.5459 16.107 59.086C17.6445 59.9028 18.9725 60.6081 19.4639 61.0995C19.7626 61.3982 19.7824 62.6477 19.7957 63.4746C19.8181 64.8732 19.8394 66.1945 20.6301 67.0483C21.9476 68.4712 25.0598 69.33 30.1442 69.6737C33.5438 69.9036 36.5969 69.8137 37.0003 69.8003C37.1859 69.8065 37.9309 69.8289 39.0125 69.8289C40.2836 69.8289 42.0196 69.798 43.8564 69.6737C48.9407 69.33 52.0529 68.4712 53.3705 67.0483C54.1612 66.1945 54.1823 64.8732 54.2049 63.4746C54.218 62.6477 54.2381 61.3982 54.5367 61.0995C55.0281 60.6081 56.3561 59.9028 57.8936 59.086C60.793 57.5459 64.7639 55.4369 68.0429 52.2607C71.9956 48.4313 74 43.8955 74 38.7794C74 35.8719 72.6365 34.257 71.7431 33.5112ZM56.8413 57.1057C55.0056 58.0807 53.6795 58.7851 52.9506 59.5138C52.01 60.4545 51.9856 61.9716 51.9623 63.4386C51.952 64.0818 51.9328 65.2788 51.7248 65.5246C51.3722 65.9053 50.1231 66.7575 45.8713 67.2425L61.9446 30.8608C62.195 30.2944 61.9386 29.6324 61.372 29.3821C60.8057 29.1318 60.1435 29.388 59.8933 29.9548L43.3235 67.4608C42.4415 67.5144 41.5853 67.5465 40.8022 67.5645L49.1062 31.8578C49.2464 31.2547 48.8712 30.6521 48.2681 30.5118C47.6657 30.3719 47.0624 30.7468 46.9221 31.3499L38.4956 67.5836C37.6076 67.5778 37.0539 67.5585 37.0409 67.558C37.0275 67.5576 37.0139 67.5573 37.0004 67.5573C36.987 67.5573 36.9734 67.5574 36.96 67.558C36.9468 67.5585 36.3931 67.5778 35.5051 67.5836L32.6412 55.2691C32.5009 54.6658 31.8986 54.2903 31.2952 54.431C30.6919 54.5712 30.3169 55.174 30.4571 55.777L33.1984 67.5647C32.4155 67.5466 31.559 67.5147 30.677 67.4609L14.1064 29.9546C13.8594 29.3958 13.1866 29.1353 12.6277 29.382C12.0689 29.6288 11.8083 30.3018 12.0552 30.8607L28.1287 67.2424C23.8769 66.7575 22.628 65.9055 22.2759 65.5255C22.0672 65.2786 22.0481 64.0816 22.0377 63.4387C22.0143 61.9717 21.99 60.4547 21.0494 59.514C20.3207 58.7853 18.9943 58.0808 17.1588 57.1058C11.5797 54.1423 2.2424 49.1829 2.2424 38.7794C2.2424 36.0444 3.87893 35.0743 4.02086 34.9954C4.51458 34.7619 4.7399 34.2167 4.5919 33.69C4.50591 33.384 2.55893 26.1585 8.79834 23.0388C9.07757 22.8992 9.28686 22.6465 9.37415 22.3469C9.37979 22.3274 9.96572 20.3585 11.6404 18.1515C13.8585 15.2285 16.8487 13.28 20.5285 12.3601C20.7748 12.2985 20.9961 12.151 21.1504 11.9493C21.2827 11.7765 24.4622 7.72772 30.836 8.79046C31.3915 8.88282 31.8136 8.51484 32.2189 8.1947C33.0621 7.52856 34.4733 6.41379 37.0001 6.41379C39.527 6.41379 40.9383 7.52856 41.7814 8.1947C42.1866 8.51513 42.6087 8.88282 43.1643 8.79046C49.5369 7.7283 52.7176 11.7765 52.8465 11.9451C53.0012 12.1511 53.2218 12.2977 53.4716 12.3601C57.1513 13.28 60.1416 15.2286 62.3597 18.1515C64.0346 20.3585 64.6202 22.3273 64.6251 22.344C64.7116 22.6461 64.9207 22.8983 65.2017 23.0388C71.4357 26.1559 69.4974 33.3716 69.4082 33.6893C69.261 34.2076 69.5033 34.7574 69.9855 34.9985C70.0033 35.0074 71.7576 35.9634 71.7576 38.7795C71.7576 49.1829 62.4203 54.1423 56.8413 57.1057Z" fill="white"/>
<path d="M66.3304 37.8502C65.8173 37.5035 65.1202 37.6386 64.7737 38.1519L53.0633 55.4933C52.7482 55.96 52.836 56.6092 53.2652 56.9743C53.7682 57.4017 54.5527 57.2946 54.9215 56.7483L66.6319 39.4068C66.9788 38.8937 66.8436 38.1968 66.3304 37.8502Z" fill="white"/>
<path d="M51.6055 16.1598C51.0023 16.0196 50.3996 16.3948 50.2594 16.9979L48.0344 26.5656C47.8978 27.1533 48.2675 27.758 48.8517 27.9064C49.4522 28.0589 50.0783 27.6762 50.2185 27.0736L52.4436 17.506C52.5838 16.9028 52.2086 16.3003 51.6055 16.1598Z" fill="white"/>
<path d="M43.0992 12.5492C42.4848 12.4843 41.9311 12.9287 41.8649 13.5447L38.2771 47.0316C38.2121 47.6391 38.665 48.201 39.2726 48.2659C39.8802 48.3308 40.4419 47.878 40.5069 47.2704L44.0948 13.7835C44.1605 13.1678 43.7149 12.6151 43.0992 12.5492Z" fill="white"/>
<path d="M20.9363 55.4932L9.22585 38.1519C8.8794 37.6387 8.18233 37.5035 7.66924 37.8503C7.15601 38.1969 7.02102 38.8938 7.36761 39.407L19.078 56.7485C19.4468 57.2946 20.2313 57.4019 20.7341 56.9745C21.1638 56.6093 21.2516 55.96 20.9363 55.4932Z" fill="white"/>
<path d="M31.5281 50.4852L23.7405 16.9983C23.6002 16.3952 22.9976 16.0197 22.3945 16.1602C21.7912 16.3004 21.4162 16.9032 21.5564 17.5062L29.344 50.9931C29.4842 51.5962 30.1103 51.9779 30.7108 51.8259C31.2952 51.6782 31.6646 51.0726 31.5281 50.4852Z" fill="white"/>
<path d="M35.7231 47.0316L32.1351 13.5448C32.069 12.9291 31.5159 12.4835 30.9008 12.5492C30.2851 12.6151 29.8394 13.1678 29.9053 13.7835L33.4931 47.2704C33.5583 47.878 34.1199 48.3308 34.7274 48.2659C35.3352 48.2009 35.7881 47.6388 35.7231 47.0316Z" fill="white"/>
</svg>
