<svg width="34" height="34" viewBox="0 0 34 34" fill="none" xmlns="http://www.w3.org/2000/svg">
<path d="M3.02475 16.8703L7.40679 20.0363C8.12999 20.5543 8.43323 21.4814 8.15593 22.3268L6.48203 27.4499C6.04001 28.758 6.50745 30.2011 7.6322 31.0018C8.74944 31.8361 10.2812 31.84 11.4023 31.0114L15.7849 27.845C16.5096 27.3194 17.4902 27.3194 18.2149 27.845L22.5975 31.0114C23.7189 31.8397 25.2504 31.8358 26.3676 31.0018C27.4926 30.2013 27.9598 28.7578 27.5172 27.4499L25.8439 22.3268C25.5671 21.4811 25.8714 20.5535 26.5953 20.0363L30.9779 16.8703C32.0988 16.0602 32.568 14.619 32.1392 13.3043C31.7102 11.9897 30.4811 11.1025 29.0983 11.1095H23.6792C22.7866 11.1132 21.9936 10.5409 21.7158 9.6927L20.0411 4.56905C19.6084 3.25623 18.3822 2.36908 16.9999 2.36908C15.6176 2.36908 14.3914 3.25623 13.9587 4.56905L12.2845 9.69011C12.0062 10.5383 11.2127 11.1103 10.3201 11.1067H4.90332C3.51891 11.0984 2.28831 11.9863 1.85927 13.3025C1.43022 14.6187 1.90155 16.0612 3.02475 16.8703ZM2.93681 13.667C3.19933 12.8052 4.00294 12.2234 4.90332 12.2429H10.3201C11.7035 12.2473 12.932 11.3591 13.3618 10.0442L15.0352 4.92079C15.3161 4.07463 16.1076 3.50343 16.9994 3.50343C17.8909 3.50343 18.6824 4.07463 18.9633 4.92079L20.6375 10.0442C21.067 11.3588 22.2953 12.247 23.6787 12.2429H29.0954C29.9867 12.2356 30.7805 12.8058 31.058 13.6527C31.3359 14.4999 31.0337 15.4293 30.311 15.951L25.9289 19.1177C24.805 19.9232 24.3342 21.3649 24.7655 22.6785L26.4394 27.8024C26.7305 28.6436 26.4283 29.5762 25.6989 30.0867C24.979 30.6325 23.9845 30.6348 23.2621 30.0921L18.8795 26.9262C17.7589 26.1142 16.2432 26.1142 15.1226 26.9262L10.7388 30.0901C10.0163 30.6319 9.02207 30.6296 8.30223 30.0844C7.57254 29.5741 7.27008 28.6416 7.56139 27.8001L9.23555 22.6762C9.66641 21.3626 9.1956 19.9211 8.07214 19.1154L3.68829 15.951C2.95471 15.4438 2.64758 14.5105 2.93681 13.667Z" fill="white"/>
<path d="M30.6 3.39995C31.5388 3.39995 32.2999 2.63887 32.2999 1.7001C32.2999 0.761078 31.5388 0 30.6 0C29.661 0 28.8999 0.761078 28.8999 1.7001C28.8999 2.63887 29.661 3.39995 30.6 3.39995ZM30.6 1.13332C30.9128 1.13332 31.1665 1.38701 31.1665 1.7001C31.1665 2.01294 30.9128 2.26663 30.6 2.26663C30.2869 2.26663 30.0332 2.01294 30.0332 1.7001C30.0332 1.38701 30.2869 1.13332 30.6 1.13332Z" fill="white"/>
<path d="M6.23331 7.36668C7.17207 7.36668 7.93315 6.60561 7.93315 5.66658C7.93315 4.72781 7.17207 3.96674 6.23331 3.96674C5.29428 3.96674 4.5332 4.72781 4.5332 5.66658C4.5332 6.60561 5.29428 7.36668 6.23331 7.36668ZM6.23331 5.10005C6.54614 5.10005 6.79984 5.35374 6.79984 5.66658C6.79984 5.97968 6.54614 6.23337 6.23331 6.23337C5.92021 6.23337 5.66652 5.97968 5.66652 5.66658C5.66652 5.35374 5.92021 5.10005 6.23331 5.10005Z" fill="white"/>
<path d="M1.7001 25.5C2.63887 25.5 3.39995 24.7389 3.39995 23.7999C3.39995 22.8611 2.63887 22.1 1.7001 22.1C0.761078 22.1 0 22.8611 0 23.7999C0 24.7389 0.761078 25.5 1.7001 25.5ZM1.7001 23.2334C2.01294 23.2334 2.26663 23.487 2.26663 23.7999C2.26663 24.113 2.01294 24.3667 1.7001 24.3667C1.38701 24.3667 1.13332 24.113 1.13332 23.7999C1.13332 23.487 1.38701 23.2334 1.7001 23.2334Z" fill="white"/>
<path d="M26.0668 9.06679C27.3184 9.06679 28.3335 8.05176 28.3335 6.7999C28.3335 5.54803 27.3184 4.53326 26.0668 4.53326C24.815 4.53326 23.7999 5.54803 23.7999 6.7999C23.7999 8.05176 24.815 9.06679 26.0668 9.06679ZM26.0668 5.66658C26.6927 5.66658 27.2001 6.17397 27.2001 6.7999C27.2001 7.42583 26.6927 7.93321 26.0668 7.93321C25.4409 7.93321 24.9332 7.42583 24.9332 6.7999C24.9332 6.17397 25.4409 5.66658 26.0668 5.66658Z" fill="white"/>
<path d="M29.4668 31.7334C29.4668 32.9852 30.4816 34 31.7334 34C32.9853 34 34.0001 32.9852 34.0001 31.7334C34.0001 30.4815 32.9853 29.4667 31.7334 29.4667C30.4816 29.4667 29.4668 30.4815 29.4668 31.7334ZM32.8667 31.7334C32.8667 32.3593 32.3594 32.8667 31.7334 32.8667C31.1075 32.8667 30.6001 32.3593 30.6001 31.7334C30.6001 31.1074 31.1075 30.6001 31.7334 30.6001C32.3594 30.6001 32.8667 31.1074 32.8667 31.7334Z" fill="white"/>
<path d="M19.2666 19.8334C18.3279 19.8334 17.5668 20.5945 17.5668 21.5333C17.5668 22.4723 18.3279 23.2334 19.2666 23.2334C20.2056 23.2334 20.9667 22.4723 20.9667 21.5333C20.9667 20.5945 20.2056 19.8334 19.2666 19.8334ZM19.2666 22.1001C18.9538 22.1001 18.7001 21.8464 18.7001 21.5333C18.7001 21.2204 18.9538 20.9668 19.2666 20.9668C19.5797 20.9668 19.8334 21.2204 19.8334 21.5333C19.8334 21.8464 19.5797 22.1001 19.2666 22.1001Z" fill="white"/>
<path d="M22.1001 24.3667C22.1001 24.6795 21.8464 24.9332 21.5333 24.9332C21.2205 24.9332 20.9668 24.6795 20.9668 24.3667C20.9668 24.0536 21.2205 23.7999 21.5333 23.7999C21.8464 23.7999 22.1001 24.0536 22.1001 24.3667Z" fill="white"/>
<path d="M23.7999 26.6333C23.7999 26.9464 23.5462 27.2001 23.2334 27.2001C22.9203 27.2001 22.6666 26.9464 22.6666 26.6333C22.6666 26.3205 22.9203 26.0668 23.2334 26.0668C23.5462 26.0668 23.7999 26.3205 23.7999 26.6333Z" fill="white"/>
<path d="M25.5 28.9C25.5 29.2131 25.2463 29.4668 24.9332 29.4668C24.6204 29.4668 24.3667 29.2131 24.3667 28.9C24.3667 28.5871 24.6204 28.3334 24.9332 28.3334C25.2463 28.3334 25.5 28.5871 25.5 28.9Z" fill="white"/>
<path d="M14.7333 19.8334C13.7943 19.8334 13.0332 20.5945 13.0332 21.5333C13.0332 22.4723 13.7943 23.2334 14.7333 23.2334C15.6721 23.2334 16.4332 22.4723 16.4332 21.5333C16.4332 20.5945 15.6721 19.8334 14.7333 19.8334ZM14.7333 22.1001C14.4202 22.1001 14.1665 21.8464 14.1665 21.5333C14.1665 21.2204 14.4202 20.9668 14.7333 20.9668C15.0461 20.9668 15.2998 21.2204 15.2998 21.5333C15.2998 21.8464 15.0461 22.1001 14.7333 22.1001Z" fill="white"/>
<path d="M13.0332 24.3667C13.0332 24.6795 12.7795 24.9332 12.4667 24.9332C12.1536 24.9332 11.8999 24.6795 11.8999 24.3667C11.8999 24.0536 12.1536 23.7999 12.4667 23.7999C12.7795 23.7999 13.0332 24.0536 13.0332 24.3667Z" fill="white"/>
<path d="M11.3334 26.6333C11.3334 26.9464 11.0797 27.2001 10.7666 27.2001C10.4538 27.2001 10.2001 26.9464 10.2001 26.6333C10.2001 26.3205 10.4538 26.0668 10.7666 26.0668C11.0797 26.0668 11.3334 26.3205 11.3334 26.6333Z" fill="white"/>
<path d="M9.63332 28.9C9.63332 29.2131 9.37962 29.4668 9.06679 29.4668C8.75369 29.4668 8.5 29.2131 8.5 28.9C8.5 28.5871 8.75369 28.3334 9.06679 28.3334C9.37962 28.3334 9.63332 28.5871 9.63332 28.9Z" fill="white"/>
<path d="M13.3087 18.6749C13.4062 18.6921 13.5051 18.7006 13.6039 18.7006C14.5162 18.6999 15.2659 17.9805 15.3048 17.0693C15.3437 16.1577 14.6578 15.3775 13.7489 15.2989C12.8402 15.2205 12.0307 15.8716 11.9126 16.7761C11.7949 17.6809 12.4102 18.5178 13.3087 18.6749ZM13.2742 16.5365C13.3692 16.4693 13.4825 16.4332 13.5987 16.4332C13.6319 16.4335 13.6649 16.4363 13.6975 16.4418C13.9637 16.4882 14.1601 16.7165 14.1665 16.9868C14.1728 17.2571 13.9876 17.4942 13.7237 17.553C13.4597 17.6122 13.1909 17.4765 13.0817 17.2293C12.9725 16.9818 13.0529 16.6918 13.2742 16.5365Z" fill="white"/>
<path d="M19.422 18.3906C19.7068 18.5919 20.0471 18.6998 20.396 18.7001C20.4949 18.6998 20.5937 18.6915 20.6912 18.6744C21.4902 18.5349 22.0793 17.8503 22.0982 17.0394C22.1171 16.2288 21.5607 15.5173 20.769 15.3406C19.9776 15.164 19.1714 15.5712 18.8438 16.3131C18.5159 17.055 18.7582 17.9245 19.422 18.3906ZM19.9364 16.6742C20.0225 16.551 20.1543 16.4672 20.3024 16.4418C20.3351 16.4361 20.368 16.4335 20.4012 16.4332C20.6622 16.4337 20.8891 16.6127 20.9506 16.8664C21.0124 17.1201 20.8925 17.3829 20.6609 17.5032C20.429 17.6233 20.1452 17.5694 19.9735 17.3727C19.8015 17.1764 19.7864 16.8877 19.9364 16.6742Z" fill="white"/>
<path d="M16.0218 15.5572C16.3069 15.7585 16.6472 15.8667 16.9961 15.8667C17.095 15.8667 17.1938 15.8581 17.2913 15.8413C18.0903 15.7017 18.6794 15.0172 18.6983 14.2063C18.7173 13.3954 18.1608 12.6841 17.3692 12.5075C16.5775 12.3306 15.7715 12.7378 15.4436 13.4797C15.116 14.2216 15.358 15.0913 16.0218 15.5572ZM16.5365 13.8408C16.6226 13.7176 16.7544 13.634 16.9025 13.6086C16.9352 13.6029 16.9681 13.6001 17.0011 13.6001C17.2623 13.6006 17.4893 13.7793 17.5507 14.033C17.6125 14.2867 17.4926 14.5497 17.261 14.6698C17.0291 14.7899 16.7453 14.7362 16.5733 14.5396C16.4016 14.343 16.3863 14.0545 16.5365 13.8408Z" fill="white"/>
<path d="M24.2635 16.7593C24.3955 16.5717 24.4012 16.3232 24.2785 16.1297C24.1558 15.9362 23.9283 15.8355 23.7026 15.875C23.4767 15.9144 23.2969 16.0859 23.2469 16.3097C23.1971 16.5333 23.2866 16.765 23.4741 16.8968C23.7301 17.0768 24.0837 17.015 24.2635 16.7593Z" fill="white"/>
<path d="M17.4635 11.0924C17.5953 10.9049 17.6013 10.6566 17.4786 10.4629C17.3556 10.2694 17.1284 10.169 16.9027 10.2084C16.6768 10.2478 16.497 10.4193 16.4469 10.6429C16.3969 10.8665 16.4866 11.0984 16.6742 11.2302C16.9302 11.4102 17.2835 11.3485 17.4635 11.0924Z" fill="white"/>
<path d="M17.4635 8.25927C17.5953 8.07172 17.6013 7.82322 17.4786 7.62971C17.3556 7.43619 17.1284 7.33555 16.9027 7.37498C16.6768 7.41441 16.497 7.58587 16.4469 7.80973C16.3969 8.03333 16.4866 8.26498 16.6742 8.39675C16.9302 8.57677 17.2835 8.51504 17.4635 8.25927Z" fill="white"/>
<path d="M17.4635 5.42584C17.5953 5.2383 17.6013 4.98979 17.4786 4.79628C17.3556 4.60277 17.1284 4.50238 16.9027 4.54155C16.6768 4.58098 16.497 4.7527 16.4469 4.9763C16.3969 5.19991 16.4866 5.43181 16.6742 5.56358C16.9302 5.74335 17.2835 5.68187 17.4635 5.42584Z" fill="white"/>
<path d="M25.9635 2.59243C26.0953 2.40488 26.1012 2.15664 25.9785 1.96287C25.8556 1.76935 25.6284 1.66897 25.4027 1.7084C25.1768 1.74782 24.997 1.91929 24.9469 2.14289C24.8969 2.36649 24.9866 2.5984 25.1742 2.73017C25.4302 2.9102 25.7835 2.84846 25.9635 2.59243Z" fill="white"/>
<path d="M4.99686 8.8258C5.12864 8.63825 5.1346 8.38975 5.01191 8.19623C4.88895 8.00272 4.66172 7.90233 4.43604 7.94176C4.2101 7.98093 4.03034 8.15266 3.98028 8.37626C3.93047 8.59986 4.01996 8.83176 4.20751 8.96354C4.46354 9.14356 4.81684 9.08183 4.99686 8.8258Z" fill="white"/>
<path d="M4.63656 21.2075C4.50478 21.395 4.49882 21.6435 4.62151 21.837C4.74447 22.0305 4.9717 22.1312 5.19738 22.0918C5.42331 22.0523 5.60308 21.8809 5.65314 21.657C5.70321 21.4334 5.61345 21.2015 5.42591 21.0697C5.16988 20.89 4.81658 20.9514 4.63656 21.2075Z" fill="white"/>
<path d="M27.6637 33.1925C27.7955 33.005 27.8015 32.7564 27.6785 32.5629C27.5558 32.3694 27.3286 32.269 27.1026 32.3085C26.877 32.3476 26.6969 32.5194 26.6471 32.743C26.5971 32.9666 26.6868 33.1985 26.8741 33.3302C27.1301 33.51 27.4837 33.4485 27.6637 33.1925Z" fill="white"/>
<path d="M27.0968 15.6259C27.2286 15.4384 27.2345 15.1899 27.1118 14.9964C26.9889 14.8029 26.7617 14.7022 26.536 14.7416C26.31 14.7811 26.1303 14.9525 26.0802 15.1761C26.0302 15.4 26.1199 15.6317 26.3075 15.7634C26.5635 15.9435 26.9168 15.8817 27.0968 15.6259Z" fill="white"/>
<path d="M29.9302 14.4924C30.0619 14.3051 30.0679 14.0566 29.945 13.8631C29.8223 13.6696 29.595 13.5689 29.3691 13.6083C29.1434 13.6478 28.9637 13.8192 28.9136 14.0428C28.8635 14.2667 28.9533 14.4983 29.1408 14.6301C29.3969 14.8101 29.7502 14.7484 29.9302 14.4924Z" fill="white"/>
<path d="M10.5259 16.8968C10.7134 16.765 10.8029 16.5333 10.7531 16.3097C10.703 16.0859 10.5233 15.9144 10.2973 15.875C10.0717 15.8355 9.84416 15.9362 9.72146 16.1297C9.59876 16.3232 9.60447 16.5717 9.73651 16.7593C9.91627 17.015 10.2698 17.0768 10.5259 16.8968Z" fill="white"/>
<path d="M7.69251 15.7634C7.88006 15.6317 7.96981 15.4 7.91974 15.1761C7.86968 14.9525 7.68992 14.7811 7.46398 14.7416C7.2383 14.7022 7.01107 14.8029 6.88811 14.9964C6.76542 15.1899 6.77139 15.4384 6.90316 15.6259C7.08318 15.8817 7.43648 15.9435 7.69251 15.7634Z" fill="white"/>
<path d="M4.8591 14.6301C5.04665 14.4983 5.1364 14.2667 5.08634 14.0428C5.03627 13.8192 4.85651 13.6478 4.63083 13.6083C4.40489 13.5689 4.17766 13.6696 4.05496 13.8631C3.93201 14.0566 3.93798 14.3051 4.06975 14.4924C4.24977 14.7484 4.60308 14.8101 4.8591 14.6301Z" fill="white"/>
</svg>
