<svg width="110" height="110" viewBox="0 0 110 110" fill="none" xmlns="http://www.w3.org/2000/svg">
<g clip-path="url(#clip0)">
<path d="M61.3735 80.2302C65.3021 79.5317 68.3576 76.7381 69.4925 73.0714C70.0163 71.5873 70.1036 69.9286 69.8417 68.2698L68.9687 63.5556L48.6275 67.1349L49.4132 71.8492C49.6751 73.5079 50.3735 75.0794 51.3338 76.3016C53.6036 79.2698 57.4449 80.9286 61.3735 80.2302ZM100.397 26.627C106.683 26.4524 110.437 33.5238 106.77 38.5873L92.3655 58.4921C90.8814 60.5 90.5322 63.119 91.4052 65.4762L99.6989 88.6111C101.794 94.5476 96.2068 100.222 90.2703 98.3016L66.8735 90.7937C64.5163 90.0079 61.8973 90.5317 59.9767 92.0159L40.5084 107.032C35.5322 110.873 28.3735 107.294 28.3735 101.095L28.2862 76.4762C28.2862 73.9444 27.064 71.6746 24.9687 70.2778L4.62745 56.4841C-0.523344 52.9048 0.611576 45.0476 6.54808 43.0397L29.9449 35.3571C32.3021 34.5714 34.1354 32.6508 34.8338 30.2937L41.7306 6.72222C43.4767 0.698414 51.3338 -0.61111 55.0005 4.36508L69.4925 24.1825C70.9767 26.1905 73.3338 27.3254 75.7782 27.2381L100.397 26.627ZM85.6433 47.0556C84.5957 41.119 78.9211 37.1032 72.9846 38.1508C67.0481 39.1984 63.0322 44.873 64.0798 50.8095C65.1274 56.746 70.8021 60.7619 76.7386 59.7143C82.6751 58.6667 86.6909 52.9921 85.6433 47.0556ZM48.8894 53.5159C47.8417 47.5794 42.1671 43.5635 36.2306 44.6111C30.2941 45.6587 26.2782 51.3333 27.3259 57.2698C28.3735 63.2063 34.0481 67.2222 39.9846 66.1746C45.9211 65.127 49.937 59.4524 48.8894 53.5159Z" fill="#FFA800"/>
<path d="M41.6433 6.72223L34.7465 30.2937C34.0481 32.6508 32.2148 34.5714 29.8576 35.3571L6.54808 43.0397C0.611576 44.9603 -0.523344 52.9048 4.62745 56.4841L24.8814 70.3651C26.9767 71.7619 28.1989 74.119 28.1989 76.5635L28.2862 101.183C28.2862 107.032 34.4846 110.437 39.3735 107.817C35.8814 107.294 32.9132 104.413 32.8259 100.397L32.7386 75.7778C32.7386 73.246 31.5163 70.9762 29.4211 69.5794L9.16713 55.6111C4.01634 52.0317 5.15126 44.1746 11.0878 42.1667L34.4846 34.4841C36.8417 33.6984 38.6751 31.7778 39.3735 29.4206L46.2703 5.84921C46.8814 3.75397 48.2782 2.18254 50.0243 1.30953C46.5322 0.873021 42.7782 2.88096 41.6433 6.72223Z" fill="#EDF6F9"/>
<path d="M45.3984 2.18254C47.3191 2.44444 49.1524 3.40476 50.4619 5.23809L64.954 25.0556C66.4381 27.0635 68.7953 28.1984 71.2397 28.1111L95.7714 27.4127C102.057 27.2381 105.811 34.3095 102.144 39.373L87.827 59.3651C86.3429 61.373 85.9937 63.9921 86.8667 66.3492L95.1603 89.4841C96.5572 93.3254 94.6365 97.0794 91.581 98.7381C96.9937 99.5238 101.708 94.1984 99.7 88.6984L91.4064 65.4762C90.5333 63.119 90.9699 60.5 92.3667 58.4921L106.771 38.5873C110.438 33.5238 106.684 26.4524 100.398 26.627L75.8667 27.3254C73.4222 27.4127 70.9778 26.2778 69.581 24.2698L55.0016 4.36508C52.6445 1.13492 48.5413 0.523807 45.3984 2.18254Z" fill="#EDF6F9"/>
<path d="M35.8964 77.9751C38.8412 77.461 40.8721 75.0034 40.4326 72.4861C39.9931 69.9687 37.2495 68.3449 34.3047 68.859C31.3599 69.3732 29.329 71.8307 29.7685 74.3481C30.208 76.8654 32.9516 78.4893 35.8964 77.9751Z" fill="#36C0F1"/>
<path d="M84.6034 69.4232C87.5482 68.909 89.5792 66.4515 89.1396 63.9341C88.7001 61.4168 85.9565 59.7929 83.0117 60.3071C80.0669 60.8212 78.036 63.2788 78.4755 65.7961C78.9151 68.3134 81.6586 69.9373 84.6034 69.4232Z" fill="#36C0F1"/>
<path d="M45.1346 83.7222L35.2695 102.405" stroke="#EDF6F9" stroke-width="3" stroke-miterlimit="10" stroke-linecap="round" stroke-linejoin="round"/>
<path d="M28.7245 54.5635L7.85938 50.9841" stroke="#EDF6F9" stroke-width="3" stroke-miterlimit="10" stroke-linecap="round" stroke-linejoin="round"/>
<path d="M51.4227 30.0318L48.3672 9.07938" stroke="#EDF6F9" stroke-width="3" stroke-miterlimit="10" stroke-linecap="round" stroke-linejoin="round"/>
<path d="M81.7148 44L100.747 34.5714" stroke="#EDF6F9" stroke-width="3" stroke-miterlimit="10" stroke-linecap="round" stroke-linejoin="round"/>
<path d="M77.875 77.1746L92.629 92.2778" stroke="#EDF6F9" stroke-width="3" stroke-miterlimit="10" stroke-linecap="round" stroke-linejoin="round"/>
<path d="M69.4908 73.0714C68.3558 76.6508 65.3876 79.5318 61.3717 80.2302C60.0622 80.4921 58.84 80.4048 57.6177 80.2302C55.086 79.7064 52.9035 78.3095 51.332 76.3016C52.467 72.7222 55.4352 69.8413 59.4511 69.1429C62.0701 68.7064 64.6019 69.2302 66.6971 70.5397C67.7447 71.2381 68.705 72.1111 69.4908 73.0714Z" fill="#BEC3C7"/>
<path opacity="0.57" d="M66.6971 70.5397C64.9511 70.627 63.2051 71.2381 61.8082 72.373C59.8003 73.9445 58.4035 76.3889 57.7923 78.9206C57.705 79.3572 57.6177 79.7064 57.6177 80.1429C55.086 79.6191 52.9035 78.2222 51.332 76.2143C52.467 72.6349 55.4352 69.754 59.4511 69.0556C62.0701 68.7064 64.6019 69.2302 66.6971 70.5397Z" fill="#A7A9AC"/>
<path d="M68.9676 63.5556L69.7533 68.2698C70.0153 69.9286 69.9279 71.5873 69.4041 73.0714C67.1343 70.1032 63.293 68.4444 59.3645 69.1429C55.4359 69.8413 52.3803 72.7222 51.2454 76.3016C50.2851 75.0794 49.5867 73.5079 49.3248 71.8492L48.5391 67.1349L68.9676 63.5556Z" fill="#2D1E00"/>
<path d="M72.985 38.1508C78.9216 37.1032 84.5962 41.119 85.6438 47.0556C86.6914 52.9921 82.6755 58.6667 76.739 59.7143C70.8025 60.7619 65.1279 56.746 64.0803 50.8095C63.0327 44.873 67.0485 39.1984 72.985 38.1508ZM80.9295 47.8413L74.8184 48.8889L78.0485 43.6508C76.739 42.8651 75.2549 42.5159 73.6835 42.7778C70.366 43.3889 68.0962 46.619 68.7073 49.9365C69.3184 53.254 72.4612 55.5238 75.866 55C79.2708 54.4762 81.5406 51.246 80.9295 47.8413Z" fill="#FFFBF0"/>
<path d="M36.2311 44.6111C42.1676 43.5635 47.8422 47.5794 48.8899 53.5159C49.9375 59.4524 45.9216 65.127 39.9851 66.1746C34.0486 67.2222 28.374 63.2063 27.3264 57.2698C26.2788 51.3333 30.2946 45.6587 36.2311 44.6111ZM44.1756 54.3016L38.1518 55.3492L41.3819 50.1111C40.0724 49.3254 38.5883 48.9762 37.0169 49.2381C33.6994 49.8492 31.4295 53.0794 31.9534 56.3968C32.5645 59.7143 35.7946 61.9841 39.1121 61.373C42.5169 60.8492 44.7867 57.619 44.1756 54.3016Z" fill="#FFFBF0"/>
<path d="M74.9046 48.9762L81.0157 47.9286C81.6268 51.246 79.357 54.4762 76.0395 55.0873C72.722 55.6984 69.4919 53.4286 68.8808 50.0238C68.2697 46.7064 70.5395 43.4762 73.857 42.8651C75.3411 42.6032 76.9125 42.8651 78.222 43.7381L74.9046 48.9762Z" fill="#2D1E00"/>
<path d="M38.1519 55.3492L44.1757 54.3016C44.7868 57.6191 42.517 60.8492 39.1995 61.4603C35.8821 62.0714 32.6519 59.8016 32.0408 56.4841C31.4297 53.1667 33.6995 49.9365 37.1043 49.3254C38.5884 49.0635 40.1599 49.3254 41.4694 50.1984L38.1519 55.3492Z" fill="#2D1E00"/>
<path d="M55.0005 4.36508L69.4925 24.1825C70.9767 26.1905 73.3338 27.3254 75.7782 27.2381L100.31 26.5397C106.596 26.3651 110.35 33.4365 106.683 38.5L92.2782 58.4048C90.7941 60.4127 90.4449 63.0317 91.3179 65.3889L99.6116 88.5238C101.707 94.4603 96.1195 100.135 90.183 98.2143L66.7862 90.7064C64.429 89.9206 61.81 90.4444 59.8894 91.9286L40.4211 106.944C35.4449 110.786 28.2862 107.206 28.2862 101.008L28.1989 76.3889C28.1989 73.8571 26.9767 71.5873 24.8814 70.1905L4.62745 56.4841C-0.523344 52.9048 0.611576 45.0476 6.54808 43.0397L29.9449 35.3571C32.3021 34.5714 34.1354 32.6508 34.8338 30.2937L41.7306 6.72222C43.4767 0.698414 51.3338 -0.61111 55.0005 4.36508Z" stroke="#2D1E00" stroke-width="2" stroke-miterlimit="10" stroke-linecap="round" stroke-linejoin="round"/>
<path d="M48.8899 53.5159C49.9375 59.4524 45.9216 65.127 39.9851 66.1746C34.0486 67.2222 28.374 63.2063 27.3264 57.2698C26.2788 51.3333 30.2946 45.6587 36.2311 44.6111C42.1676 43.5635 47.8422 47.4921 48.8899 53.5159Z" stroke="#2D1E00" stroke-width="2" stroke-miterlimit="10" stroke-linecap="round" stroke-linejoin="round"/>
<path d="M85.6438 47.0556C86.6914 52.9921 82.6755 58.6667 76.739 59.7143C70.8025 60.7619 65.1279 56.746 64.0803 50.8095C63.0327 44.873 67.0485 39.1984 72.985 38.1508C78.9216 37.1032 84.5962 41.119 85.6438 47.0556Z" stroke="#2D1E00" stroke-width="2" stroke-miterlimit="10" stroke-linecap="round" stroke-linejoin="round"/>
<path d="M51.3353 76.3016C50.3749 75.0794 49.6765 73.5079 49.4146 71.8492L48.6289 67.1349L68.9702 63.5556L69.7559 68.2698C70.0178 69.9286 69.9305 71.5873 69.4067 73.0714" stroke="#2D1E00" stroke-width="2" stroke-miterlimit="10" stroke-linecap="round" stroke-linejoin="round"/>
<path d="M69.4908 73.0714C68.3558 76.6508 65.3876 79.5317 61.3717 80.2302C57.4431 80.9286 53.6019 79.2698 51.332 76.3016C52.467 72.7222 55.4352 69.8413 59.4511 69.1429C63.3796 68.4444 67.2209 70.1032 69.4908 73.0714Z" stroke="#2D1E00" stroke-width="2" stroke-miterlimit="10" stroke-linecap="round" stroke-linejoin="round"/>
</g>
<defs>
<clipPath id="clip0">
<rect width="109.476" height="110" fill="white"/>
</clipPath>
</defs>
</svg>
