<svg width="60" height="74" viewBox="0 0 60 74" fill="none" xmlns="http://www.w3.org/2000/svg">
<path d="M0.562912 23.2059C1.15217 26.0006 2.46562 28.5911 4.37209 30.7181C7.12612 35.9161 9.13763 41.4753 10.3465 47.2324C12.133 55.3949 10.1929 65.2573 7.47656 71.4098C7.29178 71.8274 7.35326 72.3135 7.63578 72.672C7.91882 73.0308 8.37702 73.2042 8.82657 73.1217L51.5502 65.3212C51.5977 65.3124 51.6448 65.3007 51.691 65.287C57.3875 63.4361 60.7339 57.5473 59.4081 51.7061L45.5401 9.57888C45.3845 9.09337 44.9457 8.75382 44.437 8.72437C43.9284 8.69492 43.4534 8.98177 43.2431 9.44585C41.0833 14.1285 31.4256 21.3276 23.745 23.9785C18.7334 25.7089 9.57559 27.8594 4.56979 26.8265C3.80342 25.5803 3.26782 24.2065 2.98845 22.7707C2.46298 19.0033 3.744 15.208 6.44579 12.53C10.2463 8.44135 16.1131 6.34524 22.7143 6.66323L21.5247 7.71816C21.0146 8.17044 20.9686 8.95112 21.4212 9.46065C21.874 9.971 22.6547 10.0171 23.1642 9.56446L26.082 6.97706C26.367 6.72439 26.5187 6.35446 26.494 5.97448L26.2078 1.53724C26.1642 0.857748 25.5773 0.342312 24.8975 0.386491C24.2177 0.43067 23.7026 1.017 23.7468 1.6968L23.9134 4.27806C16.1503 3.62649 9.15219 5.99973 4.64316 10.853C1.40923 14.0951 -0.103682 18.6749 0.562912 23.2059ZM24.5538 26.3124C31.7071 23.8424 40.217 17.8246 44.0175 12.8424L57.0335 52.3758C58.0218 56.9062 55.4326 61.4522 51.0314 62.9127L10.5829 70.294C12.9869 63.7673 14.4666 54.5228 12.7574 46.7045C11.8758 42.7315 10.6776 38.8357 9.17451 35.0538C11.845 36.9294 14.7947 38.373 17.9138 39.3318C18.5648 39.5325 19.255 39.1668 19.4552 38.5155C19.6559 37.8644 19.2902 37.1742 18.6388 36.974C14.0324 35.6119 9.87283 33.047 6.58708 29.5431C12.5266 29.8066 20.6144 27.6752 24.5538 26.3124Z" fill="white"/>
<path d="M43.2435 56.3075L45.3795 57.5407C45.9693 57.8812 46.7236 57.6791 47.0641 57.0893C47.4046 56.4995 47.2025 55.7452 46.6127 55.4047L44.4767 54.1715C43.8864 53.8306 43.1326 54.0331 42.7921 54.6229C42.4516 55.2127 42.6532 55.9666 43.2435 56.3075Z" fill="white"/>
<path d="M46.9432 49.8994L49.0792 51.1326C49.669 51.4732 50.4233 51.271 50.7638 50.6812C51.1043 50.0914 50.9022 49.3371 50.3124 48.9966L48.1764 47.7634C47.5861 47.4226 46.8323 47.625 46.4918 48.2148C46.1513 48.8046 46.3528 49.5586 46.9432 49.8994Z" fill="white"/>
<path d="M35.4044 30.4215L33.2684 29.1883L34.5016 27.0523L36.6376 28.2856L35.4044 30.4215Z" fill="white"/>
<path d="M20.0337 47.1792L17.8977 45.946L19.131 43.81L21.267 45.0432L20.0337 47.1792Z" fill="white"/>
<path d="M34.2925 39.7474L32.1565 38.5142L33.3897 36.3782L35.5257 37.6114L34.2925 39.7474Z" fill="white"/>
<path d="M20.8595 33.4161L18.7235 32.1828L19.9568 30.0468L22.0928 31.2801L20.8595 33.4161Z" fill="white"/>
<path d="M19.3725 58.1897L17.2365 56.9564L18.4697 54.8204L20.6057 56.0537L19.3725 58.1897Z" fill="white"/>
</svg>
