<svg width="18" height="19" viewBox="0 0 18 19" fill="none" xmlns="http://www.w3.org/2000/svg">
<g clip-path="url(#clip0)">
<path d="M9.00018 9.95263C11.229 9.95263 13.036 7.88473 13.036 5.33388C13.036 1.79655 11.2291 0.715179 9.00018 0.715179C6.77119 0.715179 4.96436 1.79655 4.96436 5.33388C4.9644 7.88473 6.77124 9.95263 9.00018 9.95263Z" fill="#36C0F1"/>
<path d="M17.912 16.7514L15.8759 12.2666C15.7827 12.0614 15.6191 11.8912 15.4155 11.7875L12.2555 10.1791C12.1859 10.1437 12.1015 10.1506 12.0388 10.197C11.1451 10.8579 10.0943 11.2073 9.00004 11.2073C7.90565 11.2073 6.8549 10.8579 5.96116 10.197C5.89834 10.1506 5.81396 10.1437 5.74428 10.1791L2.58456 11.7875C2.38083 11.8912 2.2174 12.0613 2.12418 12.2666L0.0880541 16.7514C-0.0523244 17.0605 -0.0235536 17.4143 0.16504 17.6979C0.353546 17.9814 0.672576 18.1506 1.01848 18.1506H16.9815C17.3274 18.1506 17.6465 17.9813 17.835 17.6978C18.0235 17.4143 18.0524 17.0604 17.912 16.7514Z" fill="#36C0F1"/>
</g>
<defs>
<clipPath id="clip0">
<rect y="0.633331" width="18" height="17.5997" fill="white"/>
</clipPath>
</defs>
</svg>
