<svg width="80" height="50" viewBox="0 0 80 50" fill="none" xmlns="http://www.w3.org/2000/svg">
<rect x="0.5" y="0.5" width="79" height="49" rx="5.5" stroke="white"/>
<path d="M36.3 35.7116H31.1965L34.3886 16.3511H39.4918L36.3 35.7116Z" fill="white"/>
<path d="M54.8004 16.8243C53.7938 16.4325 52.1972 16 50.223 16C45.1832 16 41.6342 18.6362 41.6124 22.4051C41.5706 25.1859 44.1534 26.7304 46.0852 27.6575C48.0596 28.605 48.7308 29.2234 48.7308 30.0679C48.7107 31.3649 47.1353 31.9628 45.666 31.9628C43.6285 31.9628 42.5367 31.6545 40.8776 30.9329L40.2056 30.6236L39.4915 34.9696C40.6884 35.5045 42.8937 35.9792 45.1832 36C50.5381 36 54.0243 33.4046 54.0656 29.3882C54.086 27.1842 52.7221 25.4955 49.7818 24.1155C47.9968 23.2297 46.9037 22.6324 46.9037 21.726C46.9246 20.902 47.8283 20.058 49.8432 20.058C51.5023 20.0167 52.7213 20.4079 53.6447 20.7993L54.1063 21.0049L54.8004 16.8243Z" fill="white"/>
<path d="M61.5834 28.8529C62.0037 27.7406 63.6209 23.4359 63.6209 23.4359C63.5997 23.4773 64.0403 22.3032 64.2923 21.5824L64.649 23.2506C64.649 23.2506 65.6154 27.8849 65.8253 28.8529C65.0277 28.8529 62.5914 28.8529 61.5834 28.8529ZM67.8829 16.3511H63.9354C62.7181 16.3511 61.7932 16.7009 61.268 17.9574L53.6875 35.7113H59.0424C59.0424 35.7113 59.924 33.3218 60.1135 32.8071C60.7009 32.8071 65.9101 32.8071 66.6659 32.8071C66.8124 33.4869 67.2748 35.7113 67.2748 35.7113H72.0001L67.8829 16.3511Z" fill="white"/>
<path d="M26.9339 16.3511L21.936 29.5531L21.3898 26.8756C20.4658 23.7861 17.5679 20.4294 14.334 18.7603L18.9119 35.6911H24.3087L32.3304 16.3511H26.9339Z" fill="white"/>
<path d="M17.2949 16.3511H9.084L9 16.7423C15.405 18.3489 19.647 22.2216 21.3898 26.8764L19.6048 17.9785C19.311 16.742 18.4079 16.3919 17.2949 16.3511Z" fill="#C6C6C6"/>
</svg>
