<svg width="24" height="24" viewBox="0 0 24 24" fill="none" xmlns="http://www.w3.org/2000/svg">
<path d="M23.0054 16.2106C22.2908 15.3536 21.4499 14.6221 20.6543 13.8454C19.9365 13.1452 19.8912 12.7391 20.4682 11.931C21.098 11.0491 21.7752 10.2009 22.4107 9.32298C23.0039 8.50247 23.6102 7.6842 23.9224 6.70177C24.1204 6.07675 23.9453 5.80068 23.3043 5.69124C23.1939 5.67209 23.0797 5.6711 22.9673 5.6711L19.1647 5.66662C18.6964 5.65966 18.4375 5.86385 18.2718 6.27896C18.0482 6.84006 17.8177 7.40066 17.5513 7.94211C16.9469 9.16977 16.2719 10.3564 15.3255 11.3612C15.1169 11.5828 14.8861 11.8629 14.5374 11.7475C14.1011 11.5883 13.9725 10.8695 13.9797 10.6265L13.976 6.23742C13.8915 5.61041 13.7524 5.33085 13.1299 5.20898L9.1798 5.20973C8.65252 5.20973 8.38814 5.41343 8.10659 5.74322C7.94418 5.93374 7.89518 6.05735 8.22896 6.12052C8.88457 6.24488 9.25391 6.66919 9.35191 7.32654C9.50909 8.37687 9.49815 9.43142 9.40762 10.486C9.38101 10.7939 9.32803 11.101 9.20591 11.3886C9.0149 11.8405 8.70649 11.9325 8.30134 11.6544C7.93448 11.4027 7.67681 11.0476 7.42461 10.6909C6.47726 9.35233 5.72142 7.90879 5.1051 6.39187C4.92702 5.95364 4.61986 5.68801 4.15551 5.6808C3.01465 5.66264 1.87355 5.65966 0.73269 5.68179C0.0462369 5.69472 -0.158455 6.028 0.1211 6.65029C1.36368 9.41426 2.74678 12.1014 4.55221 14.5492C5.47917 15.8055 6.54342 16.9145 7.91831 17.7004C9.47651 18.5913 11.1538 18.8595 12.9205 18.7769C13.7477 18.7381 13.9962 18.523 14.0345 17.6985C14.0603 17.1344 14.1242 16.5735 14.4026 16.0666C14.6757 15.5692 15.0893 15.4744 15.566 15.7839C15.8046 15.9388 16.0055 16.136 16.1953 16.344C16.6609 16.8533 17.1098 17.3781 17.5931 17.8703C18.1992 18.4871 18.9172 18.8515 19.8201 18.7771L23.315 18.7779C23.8781 18.7411 24.1701 18.0506 23.8468 17.4221C23.6197 16.9819 23.3217 16.5899 23.0054 16.2106Z" fill="#8998A4"/>
</svg>
