<svg width="40" height="40" fill="none" xmlns="http://www.w3.org/2000/svg"><path d="M15.313 26.058H9.159a.74.74 0 00-.722.72v2.741a.74.74 0 00.722.721h6.153a.74.74 0 00.722-.72v-2.741a.708.708 0 00-.721-.721zm-3.799 2.74H9.88V27.5h1.634v1.298zm3.077-.048h-1.634v-1.298h1.634v1.298zm15.815-2.692h-6.154a.74.74 0 00-.72.72v2.741a.74.74 0 00.72.721h6.154a.74.74 0 00.721-.72v-2.741a.708.708 0 00-.72-.721zm-3.798 2.74h-1.634V27.5h1.634v1.298zm3.077-.048h-1.634v-1.298h1.634v1.298zM22.429 3.077h-5.337a.74.74 0 00-.72.721.74.74 0 00.72.721h5.337a.74.74 0 00.72-.72.74.74 0 00-.72-.722z" fill="#36C0F1"/><path d="M35.165 6.587h-.913V4.76A4.74 4.74 0 0029.492 0H10.453a4.74 4.74 0 00-4.76 4.76v1.827H4.78c-1.25 0-2.307 1.057-2.307 2.355v5.337a2.36 2.36 0 002.355 2.356h.914v21.394A1.98 1.98 0 007.713 40h5.77a1.98 1.98 0 001.97-1.971v-1.875h9.087v1.875A1.98 1.98 0 0026.511 40h5.77a1.98 1.98 0 001.97-1.971V16.635h.914a2.36 2.36 0 002.356-2.356V8.942a2.36 2.36 0 00-2.356-2.355zM5.694 15.192H4.78a.913.913 0 01-.913-.913V8.942c0-.48.385-.913.913-.913h.914v7.163zm7.692 23.366h-5.77a.534.534 0 01-.528-.53v-3.22c.865.817 2.02 1.346 3.317 1.346h3.462v1.875h.048c0 .288-.24.529-.529.529zm18.702 0h-5.77a.533.533 0 01-.528-.53v-1.874h3.462c1.298 0 2.451-.529 3.317-1.346v3.22c.048.29-.193.53-.481.53zm.529-8.654v1.538A3.324 3.324 0 0129.3 34.76H10.453a3.324 3.324 0 01-3.317-3.318v-6.73h25.289c.096 0 .144 0 .192-.049v5.24zm0-6.539c-.048 0-.144-.048-.192-.048h-1.443l-10.625-6.923c-.336-.192-.769-.144-1.01.193-.192.336-.144.769.193 1.01l8.75 5.672h-8.317L9.396 16.394c-.337-.192-.77-.144-1.01.193-.192.336-.144.769.192 1.01l8.75 5.672H7.136V8.03h25.48v15.336zm0-16.778H7.137V4.76a3.324 3.324 0 013.316-3.318H29.3a3.324 3.324 0 013.317 3.318v1.827zm3.221 7.692c0 .48-.385.913-.913.913h-.914V8.03h.914c.528 0 .913.433.913.913v5.337z" fill="#36C0F1"/></svg>