<svg width="71" height="70" fill="none" xmlns="http://www.w3.org/2000/svg"><path d="M46.508 11.71a24.28 24.28 0 00-16.321 6.277c-5.155-6.604-14.473-8.233-21.562-3.768-7.09 4.464-9.648 13.57-5.92 21.073 3.728 7.503 12.53 10.964 20.37 8.01.33 1.086.74 2.146 1.222 3.173a12.816 12.816 0 1019.428 14.022 24.474 24.474 0 102.783-48.787zM3.373 28.032a13.964 13.964 0 0125.143-8.394 24.286 24.286 0 00-6.001 21.382A13.95 13.95 0 013.373 28.03zm27.98 39.636c-5.795 0-10.493-4.697-10.493-10.492 0-5.794 4.698-10.492 10.492-10.492 5.795 0 10.492 4.698 10.492 10.492-.006 5.792-4.7 10.486-10.492 10.492zm15.155-9.326a22.092 22.092 0 01-2.383-.146c.027-.337.051-.675.051-1.02a12.824 12.824 0 00-17.82-11.81 21.644 21.644 0 01-1.367-3.913 22.288 22.288 0 01-.631-5.26c0-12.234 9.917-22.15 22.15-22.15 12.233 0 22.15 9.916 22.15 22.15 0 12.232-9.917 22.149-22.15 22.149z" fill="#fff"/><path d="M11.534 52.513a1.166 1.166 0 00-2.331 0 3.497 3.497 0 01-3.498 3.497 1.166 1.166 0 000 2.332 3.497 3.497 0 013.498 3.497 1.166 1.166 0 002.331 0 3.498 3.498 0 013.498-3.497 1.166 1.166 0 000-2.332 3.497 3.497 0 01-3.498-3.497zm-1.165 5.865a5.807 5.807 0 00-1.202-1.202c.457-.34.862-.745 1.202-1.202.34.458.744.863 1.202 1.202-.458.34-.863.745-1.202 1.202zm47.797-47.833a1.166 1.166 0 002.331 0 3.498 3.498 0 013.498-3.498 1.166 1.166 0 000-2.331 3.497 3.497 0 01-3.498-3.498 1.166 1.166 0 10-2.331 0 3.497 3.497 0 01-3.498 3.498 1.166 1.166 0 000 2.331 3.498 3.498 0 013.498 3.498zM59.33 4.68c.34.457.745.862 1.203 1.202-.458.34-.863.744-1.203 1.202a5.812 5.812 0 00-1.201-1.202A5.81 5.81 0 0059.33 4.68zm2.333 31.512a3.497 3.497 0 01-3.497-3.498 1.166 1.166 0 00-2.332 0 3.497 3.497 0 01-3.497 3.498 1.166 1.166 0 000 2.331 3.498 3.498 0 013.497 3.498 1.166 1.166 0 002.332 0 3.498 3.498 0 013.497-3.498 1.166 1.166 0 100-2.331zM57 38.56a5.81 5.81 0 00-1.202-1.202A5.81 5.81 0 0057 36.156c.34.457.745.862 1.202 1.202A5.81 5.81 0 0057 38.56zm-8.16-11.694c0-.644-.523-1.166-1.167-1.166a3.497 3.497 0 01-3.497-3.497 1.166 1.166 0 00-2.332 0 3.497 3.497 0 01-3.497 3.497 1.166 1.166 0 000 2.331 3.498 3.498 0 013.497 3.498 1.166 1.166 0 002.332 0 3.498 3.498 0 013.497-3.498c.644 0 1.166-.522 1.166-1.165zm-5.83 1.202a5.815 5.815 0 00-1.201-1.202 5.81 5.81 0 001.201-1.202c.34.457.745.862 1.203 1.202-.458.34-.863.744-1.203 1.202zM15.032 47.85h2.331v2.331h-2.331V47.85zM3.374 64.17h2.331v2.332H3.374v-2.331zm66.449-3.497a3.497 3.497 0 10-6.994 0 3.497 3.497 0 006.994 0zm-4.663 0a1.166 1.166 0 112.332 0 1.166 1.166 0 01-2.332 0zM36.016 8.213a4.663 4.663 0 10-9.327 0 4.663 4.663 0 009.327 0zm-6.995 0a2.332 2.332 0 114.663 0 2.332 2.332 0 01-4.663 0zM43.01 5.881h2.332v2.332H43.01V5.88zm4.663 43.134h2.332v2.332h-2.332v-2.332zm6.996 15.155H57v2.332h-2.331v-2.331zM15.032 30.363h2.331v2.332h-2.331v-2.332zm-9.327.105l2.332-.21c-.006-.056-.466-5.604 2.605-8.977a8.69 8.69 0 016.721-2.576v-2.332a10.911 10.911 0 00-8.446 3.34C5.154 23.834 5.685 30.2 5.705 30.468zm41.968-14.094v2.331c.583 0 14.17.249 16.334 16.476l2.311-.308c-2.44-18.287-18.482-18.5-18.645-18.5z" fill="#fff"/></svg>