<svg width="40" height="40" fill="none" xmlns="http://www.w3.org/2000/svg"><g clip-path="url(#clip0)" fill="#36C0F1"><path d="M36.667 13.334h-.463l-5.725-10a3.307 3.307 0 00-2.98-1.666 3.281 3.281 0 00-1.544.447L1.653 16.263a3.34 3.34 0 00-1.211 4.545L5 28.77V35a3.337 3.337 0 003.333 3.334h28.334A3.337 3.337 0 0040 35V16.667a3.337 3.337 0 00-3.333-3.333zM5 25.414l-.636-1.112.636-.37v1.482zm0-3.41l-1.465.852-.822-1.437L5 20.087v1.916zm0-5.337v1.492l-3.114 1.813c-.45-.795-.18-1.81.605-2.268l2.555-1.487c-.02.148-.046.296-.046.45zm29.283-3.333h-11.08l8.31-4.838 2.77 4.838zm-3.598-6.285L19.89 13.334H16.6l13.262-7.722.823 1.437zm-3.891-3.493c.377-.22.817-.281 1.238-.167.425.114.78.389 1 .774l.002.003-15.746 9.168h-3.29l16.796-9.778zM38.334 35a1.67 1.67 0 01-1.667 1.667H8.333A1.669 1.669 0 016.667 35V16.667c0-.919.748-1.667 1.666-1.667h28.334c.919 0 1.666.748 1.666 1.667V35z"/><path d="M31.563 26.667c-.547 0-1.079.127-1.563.371a3.458 3.458 0 00-1.563-.371C26.543 26.667 25 28.162 25 30c0 1.839 1.542 3.334 3.438 3.334A3.46 3.46 0 0030 32.963a3.459 3.459 0 001.563.37C33.458 33.334 35 31.84 35 30c0-1.838-1.542-3.333-3.438-3.333zm0 5a1.82 1.82 0 01-1.074-.352.832.832 0 00-.978 0 1.82 1.82 0 01-1.073.352c-.977 0-1.771-.748-1.771-1.667 0-.918.794-1.666 1.77-1.666.385 0 .756.122 1.074.352a.833.833 0 00.978 0 1.82 1.82 0 011.074-.352c.976 0 1.77.748 1.77 1.666 0 .92-.794 1.667-1.77 1.667zm-20.73-3.333h8.334a.833.833 0 100-1.667h-8.334a.833.833 0 100 1.667zM22.5 31.667H10.833a.833.833 0 100 1.667H22.5a.833.833 0 100-1.667z"/></g><defs><clipPath id="clip0"><path fill="#fff" d="M0 0h40v40H0z"/></clipPath></defs></svg>