<svg width="40" height="40" fill="none" xmlns="http://www.w3.org/2000/svg"><path d="M39.983 26.963c-.156-.795-1.535-7.802-1.875-8.825-.82-2.46-2.786-5.26-5.262-7.49C30.27 8.33 27.604 7 25.527 7H5.33a1.9 1.9 0 00-1.898 1.898v2.983h-1.4a.929.929 0 000 1.858h1.399v2.215H.929a.929.929 0 000 1.857H3.43v9.33a1.9 1.9 0 001.898 1.9h2.316a4.793 4.793 0 004.731 4.07 4.792 4.792 0 004.732-4.07h8.518a4.792 4.792 0 004.732 4.07 4.792 4.792 0 004.731-4.07h3.013A1.9 1.9 0 0040 27.14a.967.967 0 00-.017-.178zm-3.744-8.538h-9.57V9.023c3.39.911 8.09 5.421 9.57 9.402zM12.376 31.253a2.931 2.931 0 01-2.928-2.928 2.931 2.931 0 012.928-2.927 2.93 2.93 0 012.928 2.927 2.931 2.931 0 01-2.928 2.928zm17.982 0a2.931 2.931 0 01-2.928-2.928 2.931 2.931 0 012.928-2.927 2.931 2.931 0 012.927 2.927 2.931 2.931 0 01-2.927 2.928zm7.698-4.07h-3.052a4.793 4.793 0 00-4.646-3.643 4.793 4.793 0 00-4.647 3.643h-8.689a4.793 4.793 0 00-4.646-3.643 4.793 4.793 0 00-4.646 3.643h-2.4a.041.041 0 01-.042-.041v-9.33H16.67a.929.929 0 000-1.858H5.29V13.74h5.238a.929.929 0 000-1.857h-5.24V8.899c0-.023.018-.042.041-.042h19.483v10.497c0 .513.415.929.928.929h10.98c.396 1.806.939 4.7 1.401 6.843.01.043-.017.057-.065.057z" fill="#36C0F1"/></svg>