<svg width="98" height="110" fill="none" xmlns="http://www.w3.org/2000/svg"><g clip-path="url(#clip0)"><path d="M80.548 24.109c5.272-.774 10.192 2.952 10.965 8.223.773 5.272-2.952 10.192-8.224 10.965-5.271.773-10.192-2.952-10.965-8.223-.773-5.272 2.952-10.192 8.224-10.965zm6.818 8.856l-5.412.773 3.022-4.569a5.196 5.196 0 00-3.796-.843c-2.952.422-5.06 3.233-4.639 6.185.422 2.952 3.234 5.06 6.186 4.64 2.952-.423 5.06-3.234 4.639-6.186zm-35.777-4.709c5.272-.774 10.192 2.952 10.965 8.223.773 5.272-2.952 10.192-8.224 10.965-5.271.773-10.191-2.952-10.965-8.224-.773-5.271 2.952-10.191 8.224-10.964zm6.818 8.856l-5.412.773 3.022-4.569a5.196 5.196 0 00-3.796-.843c-2.952.422-5.06 3.233-4.638 6.185.421 2.952 3.233 5.06 6.185 4.64 2.952-.423 5.06-3.234 4.639-6.186z" fill="#FFFBF0"/><path d="M60.165 3.725c.352 2.6.07 5.272-.914 7.732l.07.703-1.897.21a45.245 45.245 0 00-8.856 2.18c-15.112 5.2-24.32 15.463-27.061 27.2-1.406 5.905-1.195 12.23.633 18.416.21.773.491 1.547.773 2.32h-.07c-2.601 2.179-6.256 4.147-9.138 2.39-2.038-1.266-2.741-4.077-2.25-6.467.493-2.39 1.969-4.428 3.375-6.396-1.969 1.054-3.937 2.108-6.115 2.46-2.18.351-4.57-.07-6.115-1.687-1.97-2.109-1.758-5.483-1.055-8.294.703-2.6 1.757-5.06 3.093-7.38 3.655-6.326 9.559-11.387 16.518-13.847-2.11 0-4.288-.07-6.326-.703-2.039-.632-3.937-1.968-4.78-3.936-1.265-2.952.21-6.396 2.39-8.715 3.936-4.218 9.91-5.905 15.604-6.818 4.006-.633 8.153-.914 12.16-.563 4.709.422 9.137 1.758 12.932 4.499a11.4 11.4 0 012.741-4.92C56.58 1.335 57.636.633 58.62.984c.984.492 1.406 1.687 1.546 2.741z" fill="#36C0F1"/><path d="M60.165 3.725c.351 2.6.07 5.272-.914 7.732l.07.703-1.898.21a35.512 35.512 0 00-.843-3.935c-1.616.492-3.163 1.405-4.358 2.67-1.968-1.968-3.936-4.006-6.255-5.623-1.828-1.265-3.796-2.178-5.834-2.881 4.71.421 9.137 1.757 12.933 4.498a11.401 11.401 0 012.74-4.92c.704-.773 1.758-1.476 2.742-1.125 1.054.422 1.476 1.617 1.617 2.671z" fill="#FFFBF0"/><path d="M22.07 60.307c.21.773.491 1.546.772 2.32h-.07c-2.6 2.178-6.255 4.146-9.137 2.389-2.039-1.265-2.742-4.077-2.25-6.467.492-2.39 1.969-4.428 3.374-6.396-1.968 1.055-3.936 2.109-6.115 2.46-2.179.352-4.568-.07-6.115-1.687-1.968-2.108-1.757-5.482-1.054-8.293.703-2.601 1.757-5.061 3.093-7.38.28 2.319 1.335 4.638 3.163 6.044 2.178 1.617 5.2 1.828 7.872 1.125 2.038-.492 3.936-1.476 5.693-2.53-1.265 5.833-1.054 12.16.773 18.415zm60.025 35.987c-1.265 3.374-6.536.703-10.965-2.32-3.584-2.39-6.607-5.06-6.607-5.06s4.077-.633 8.365-.492c5.552.21 11.456 1.757 9.207 7.872zm-15.463 2.179c.843 5.623.632 11.457-4.007 10.262-4.709-1.195-3.725-6.959-1.898-11.95 1.547-4.216 3.726-7.871 3.726-7.871.14.21 1.476 4.85 2.179 9.559z" fill="#FFA800"/><path d="M60.799 96.856c1.546-4.217 3.725-7.872 3.725-7.872.07.21 1.476 4.78 2.179 9.56-1.898-1.055-3.866-1.617-5.904-1.688zm12.089-8.434c-.844 1.757-1.406 3.655-1.758 5.552-3.584-2.39-6.607-5.06-6.607-5.06s4.077-.633 8.365-.492z" fill="#E89D13"/><path d="M41.609 61.994c.21 1.546.351 3.092.28 4.639 0 2.32-.35 4.639-1.405 6.747-.492.984-1.195 1.968-2.32 2.18-1.054.21-2.178-.423-2.81-1.336-.633-.914-.915-2.039-1.126-3.093-.28-1.054-.351-2.46-.773-3.444-.562-1.265-.632-1.195-1.616-.633-1.476.773-2.741 2.53-4.64 1.266-.562-.352-.913-.914-1.194-1.477-1.125-2.178-1.054-4.92-.14-7.169.421-1.054 1.054-1.968 1.756-2.811.844-1.055 1.969-1.968 3.093-2.671 1.546-.984 3.304-1.758 5.131-1.476 1.898.28 3.514 1.827 4.358 3.584.914 1.758 1.195 3.726 1.406 5.694z" fill="#8998A4"/><path d="M41.608 61.994c.211 1.546.352 3.092.282 4.639-.141-.282-.211-.492-.352-.774-2.038-4.076-5.764-7.31-10.051-8.715-1.054-.352-2.46-.281-3.866-.281.844-1.055 1.968-1.968 3.093-2.671 1.546-.984 3.303-1.758 5.13-1.476 1.898.28 3.515 1.827 4.359 3.584.913 1.758 1.194 3.726 1.405 5.694z" fill="#E89D13"/><path d="M53.205 60.518s5.904.07 13.355-.844v.14c1.054.282 1.757 1.547 1.546 2.672-.21 1.124-1.054 2.038-2.109 2.46-1.054.421-2.178.421-3.303.28.703.423.984 1.336.843 2.11-.14.773-.632 1.475-1.265 1.968-1.687 1.194-4.287.983-5.693-.633l-.211.07-3.163-8.223z" fill="#8998A4"/><path d="M56.44 68.67l8.012 20.314c-3.093.844-6.677.844-10.332.07-3.866-3.163-6.677-8.223-8.083-13.003-.984-3.303-1.406-6.888-.281-10.192 1.124-3.233 4.006-5.341 7.45-5.341l3.233 8.153z" fill="#FFA800"/><path d="M59.321 12.23c-2.39.21-4.85.703-7.24 1.335-1.195.282-2.32.633-3.514 1.055-5.764 1.968-10.684 4.71-14.69 7.942-11.808 9.56-15.885 23.757-11.808 37.745.21.773.492 1.546.773 2.32 5.06 13.424 18.977 23.967 31.278 26.427-3.866-3.163-6.678-8.223-8.083-13.003 0-.07 0-.07-.07-.14-.985-3.234-1.406-6.818-.282-10.052 1.125-3.233 4.007-5.341 7.45-5.341 0 0 5.905.07 13.355-.844 8.786-1.124 19.68-3.725 25.585-9.559 1.687-1.687 2.952-3.655 3.655-5.974.14-.492.281-.984.351-1.477.211-1.194.281-2.46.141-3.865-1.476-18.205-18.134-28.396-36.901-26.569zM41.609 61.994c.421 3.795.632 7.802-.985 11.175 0 .07-.07.14-.07.211-.492.984-1.195 1.968-2.32 2.18-1.054.21-2.178-.423-2.81-1.336-.633-.914-.914-2.039-1.125-3.093-.282-1.054-.352-2.39-.773-3.444-.422-.914-.563-1.125-.985-.914-.14.07-.351.14-.632.281-1.476.773-2.741 2.53-4.64 1.266-.561-.352-.913-.914-1.194-1.477-1.125-2.178-1.054-4.92-.14-7.169.21-.562.562-1.124.843-1.617.984-1.546 2.39-2.811 3.936-3.865 1.546-.984 3.303-1.758 5.131-1.476 1.898.28 3.514 1.827 4.358 3.584.913 1.758 1.195 3.726 1.406 5.694zm12.722-14.55c-5.272.773-10.192-2.952-10.965-8.224-.773-5.271 2.952-10.191 8.223-10.964 5.272-.774 10.192 2.952 10.965 8.223.773 5.272-2.882 10.262-8.223 10.965zm17.993-12.37c-.773-5.272 2.952-10.192 8.224-10.965a9.727 9.727 0 014.287.351c3.445 1.054 6.186 4.077 6.678 7.872.07.281.07.563.07.844.281 4.99-3.303 9.418-8.294 10.121-5.272.773-10.192-2.882-10.965-8.223z" fill="#FFA800"/><path d="M47.885 56.75c2.574-.37 4.402-2.476 4.082-4.705-.32-2.228-2.666-3.736-5.24-3.366-2.575.37-4.403 2.476-4.083 4.705.32 2.228 2.666 3.736 5.24 3.366zm48.267-14.086c-.07.493-.21.985-.351 1.477-.703 2.32-1.969 4.287-3.655 5.974-1.758-.422-3.093-1.687-3.304-3.303-.351-2.25 1.476-4.358 4.077-4.71 1.195-.21 2.32 0 3.233.563z" fill="#EDF6F9"/><path d="M96.293 38.799c.14 1.968 0 3.725-.492 5.271-1.054-4.147-2.46-7.802-4.217-10.894-1.968-3.515-4.288-6.397-6.818-8.716-10.684-10.05-25.374-11.105-32.684-10.895a54.333 54.333 0 017.24-1.335c18.766-1.827 35.425 8.364 36.97 26.569z" fill="#FFFBF0"/><path d="M54.19 89.054c-12.3-2.46-26.217-13.003-31.278-26.428-.281-.773-.562-1.546-.773-2.32-4.077-13.986 0-28.185 11.808-37.744a52.653 52.653 0 00-6.045 12.3c-1.476 4.57-2.319 9.42-2.319 14.199 0 3.022.281 6.115 1.265 8.926a7.085 7.085 0 00-.843 1.617c-.984 2.249-1.055 4.99.14 7.17.282.561.703 1.124 1.195 1.475 1.898 1.265 3.163-.421 4.64-1.265.28-.14.491-.21.632-.281 0 .07.07.07.07.07.281.281.562.563.914.844.422.984.562 2.32.773 3.444.281 1.054.492 2.179 1.125 3.092.632.914 1.757 1.547 2.811 1.336 1.054-.211 1.828-1.195 2.32-2.18 0-.07.07-.14.07-.21 1.757 1.054 3.514 1.968 5.412 2.741 0 .07 0 .07.07.14 1.336 4.85 4.077 9.911 8.013 13.074z" fill="#36C0F1"/><path d="M81.954 33.738l5.412-.773c.422 2.952-1.687 5.763-4.639 6.185-2.952.422-5.763-1.687-6.185-4.639-.422-2.952 1.687-5.763 4.639-6.185 1.335-.211 2.67.14 3.796.843l-3.023 4.569zm-28.959 4.147l5.412-.773c.422 2.952-1.687 5.763-4.639 6.185-2.952.422-5.763-1.687-6.185-4.639-.422-2.952 1.687-5.763 4.639-6.185 1.335-.211 2.67.14 3.795.843l-3.022 4.569z" fill="#2D3E50"/><path d="M53.208 60.518s5.904.07 13.355-.844c13.073-1.687 30.926-6.537 29.66-20.875-1.616-18.205-18.204-28.396-36.97-26.569a46.291 46.291 0 00-10.754 2.39C25.796 22.422 16.518 41.61 22.07 60.307c.211.773.492 1.546.774 2.32 5.06 13.424 18.977 23.967 31.278 26.427 3.655.773 7.24.773 10.332-.07L56.44 68.671l-3.233-8.153zm11.315 28.396s15.393 13.354 17.572 7.31c4.007-10.754-17.572-7.31-17.572-7.31z" stroke="#202020" stroke-width="2" stroke-miterlimit="10" stroke-linecap="round" stroke-linejoin="round"/><path d="M64.525 88.914s-10.473 17.712-1.828 19.821c8.505 2.179 1.968-19.33 1.828-19.821zM27.272 68.25c-.562-.352-.914-.915-1.195-1.477-1.125-2.179-1.054-4.92-.14-7.17.983-2.248 2.74-4.146 4.85-5.482 1.546-.984 3.303-1.757 5.13-1.476 1.898.281 3.515 1.828 4.358 3.585.914 1.757 1.195 3.725 1.406 5.693.422 3.866.633 7.943-1.054 11.387-.492.984-1.195 1.968-2.32 2.179-1.054.21-2.179-.422-2.811-1.336-.633-.913-.914-2.038-1.125-3.092-.281-1.055-.351-2.46-.773-3.444-.563-1.266-.633-1.195-1.617-.633-1.616.844-2.811 2.6-4.709 1.265zm31.98-56.723c.984-2.46 1.335-5.13.914-7.731-.14-1.055-.563-2.32-1.617-2.601-.984-.352-2.038.351-2.741 1.124-1.265 1.406-2.25 3.093-2.741 4.92-7.03-5.13-16.518-5.341-25.093-3.935-5.693.913-11.668 2.6-15.604 6.817-2.179 2.32-3.655 5.764-2.39 8.716.844 1.968 2.812 3.304 4.78 3.936 2.038.633 4.217.703 6.326.703-9.348 3.233-16.94 11.457-19.47 21.086-.773 2.812-.984 6.186 1.054 8.294 1.476 1.617 3.937 2.039 6.115 1.687 2.18-.351 4.147-1.406 6.115-2.46-1.405 1.968-2.881 4.007-3.373 6.396-.492 2.39.14 5.202 2.249 6.467 2.882 1.757 6.607-.14 9.137-2.39M56.652 68.6c1.406 1.547 4.007 1.828 5.694.633.632-.492 1.195-1.124 1.265-1.968.14-.773-.14-1.687-.844-2.108 1.125.14 2.25.14 3.304-.282 1.054-.421 1.898-1.335 2.109-2.46.21-1.124-.493-2.32-1.547-2.67m-13.425.773c-3.444 0-6.326 2.108-7.45 5.341-1.125 3.234-.703 6.889.28 10.192 1.406 4.78 4.218 9.84 8.084 13.003" stroke="#202020" stroke-width="2" stroke-miterlimit="10" stroke-linecap="round" stroke-linejoin="round"/><path d="M62.556 36.48c.773 5.27-2.952 10.19-8.224 10.964-5.272.773-10.192-2.952-10.965-8.224-.773-5.271 2.952-10.191 8.224-10.964 5.271-.703 10.192 2.952 10.965 8.223zm28.959-4.148c.773 5.272-2.952 10.192-8.224 10.965-5.272.773-10.192-2.952-10.965-8.223-.773-5.272 2.952-10.192 8.224-10.965 5.271-.774 10.192 2.952 10.965 8.223zM75.49 45.265c-1.125 2.038-3.374 3.585-6.045 3.936-2.6.352-5.131-.421-6.818-1.968" stroke="#202020" stroke-width="2" stroke-miterlimit="10" stroke-linecap="round" stroke-linejoin="round"/></g><defs><clipPath id="clip0"><path fill="#fff" d="M0 0h97.418v110H0z"/></clipPath></defs></svg>