<svg width="34" height="34" fill="none" xmlns="http://www.w3.org/2000/svg"><path d="M19.785 18.294c-.2-.2-.524-.2-.724 0l-1.64 1.64a.513.513 0 10.724.725l1.64-1.64c.2-.2.2-.524 0-.725zm-3.28 3.281c-.2-.2-.524-.2-.725 0l-4.432 4.432a.513.513 0 10.725.725l4.432-4.433c.2-.2.2-.524 0-.724zM13 8.268c-.2-.2-.524-.2-.724 0l-1.207 1.207c-.2.2-.2.525 0 .725.1.1.434.245.725 0L13 8.992c.2-.2.2-.524 0-.724zm7.628 3.17c0-.292-.114-.567-.32-.773a1.086 1.086 0 00-.773-.32c-.293 0-.567.114-.773.32l-.394.394c-1.77.019-3.218.37-4.425 1.073-2.559 1.49-3.134 4.018-3.217 5.638l-2.167.391c-.541.053-.845.59-.856.969-.015.474.308.9.77 1.014l1.989.489.488 1.989a1.01 1.01 0 001.014.77c.475-.015.88-.365.965-.832l.385-2.134c1.309-.134 2.453-.483 3.406-1.038 1.506-.877 2.5-2.222 2.958-4a8.933 8.933 0 00.241-2.785l.39-.391c.205-.207.319-.481.319-.774zm-1.046.05l-.558.561a.513.513 0 00-.146.416c.105.99.223 4.35-2.674 6.037-.911.531-2.042.846-3.36.936a.513.513 0 00-.47.42l-.443 2.459-.548-2.23a.512.512 0 00-.375-.376l-2.23-.548 2.54-.459a.512.512 0 00.421-.502c.005-1.348.363-3.812 2.72-5.184 1.08-.629 2.407-.935 4.059-.935h.063a.513.513 0 00.362-.15l.543-.543a.067.067 0 01.049-.02.067.067 0 01.068.068.069.069 0 01-.02.05zm9.907 4.245a.514.514 0 00-.725 0 .514.514 0 000 .724.514.514 0 00.875-.362.513.513 0 00-.15-.362zm4.361 3.154a.514.514 0 00-.725 0 .514.514 0 00.362.874.514.514 0 00.513-.512.513.513 0 00-.15-.362zm-4.361 3.177a.515.515 0 00-.725 0 .514.514 0 000 .725.514.514 0 00.875-.363.513.513 0 00-.15-.362zm4.361 3.408a.514.514 0 00-.725 0 .514.514 0 000 .724.514.514 0 00.725 0 .513.513 0 000-.724zm-4.361 3.404a.514.514 0 00-.725 0 .514.514 0 000 .725.514.514 0 00.725 0 .513.513 0 000-.725zm4.361 4.245a.514.514 0 00-.725 0 .514.514 0 000 .725.514.514 0 00.725 0 .513.513 0 000-.725z" fill="#fff"/><path d="M32.062 7.29a1.71 1.71 0 00-1.708-1.708h-3.715L21.824.767a2.595 2.595 0 00-1.848-.762c-.7 0-1.355.27-1.847.762a2.612 2.612 0 00-.713 2.362l-3.807 3.807c-.2.2-.2.524 0 .725.1.1.46.248.724 0l3.522-3.522c.08.114 8.982 9.015 9.096 9.097L12.148 28.038l-9.062-9.062-.049-.02 7.418-7.417a.513.513 0 10-.725-.725l-9.1 9.101A2.14 2.14 0 000 21.44c0 .576.223 1.117.629 1.523l7.5 7.5c.42.42.97.63 1.523.63.551 0 1.103-.21 1.523-.63l16.787-16.788c.167.033 1.253.31 2.36-.713.512-.471.764-1.148.764-1.847 0-.7-.271-1.356-.763-1.848L30.056 9h.298a1.71 1.71 0 001.708-1.708zM10.45 29.738a1.13 1.13 0 01-1.597 0l-7.5-7.5a1.12 1.12 0 01-.328-.798c0-.303.117-.587.329-.799l1.008-1.007v.068l9.062 9.062-.974.973zm19.61-18.623a1.577 1.577 0 01-1.585 1.585c-.426 0-.824-.164-1.123-.462l-8.498-8.5a1.59 1.59 0 010-2.245 1.576 1.576 0 011.123-.462c.425 0 .824.164 1.122.462l8.5 8.499c.297.298.462.697.462 1.123zm-1.029-3.14l-1.367-1.367h2.69a.684.684 0 010 1.367H29.03z" fill="#fff"/></svg>