<svg width="66" height="66" fill="none" xmlns="http://www.w3.org/2000/svg"><path d="M65.993 64.902c-.01-.509-.003-3.653.004-5.605a.977.977 0 00-.976-.98h-1.627V36.383a.976.976 0 10-1.953 0v21.934H20.936c.054-.567.235-1.12.539-1.607l.58-.934a5.627 5.627 0 000-5.983l-.564-.906a3.687 3.687 0 010-3.92l.561-.9a5.697 5.697 0 00-.006-5.993l-1.253-2.005a3.88 3.88 0 00-3.309-1.834h-1.293a3.146 3.146 0 00-2.786 1.642 3.144 3.144 0 00.085 3.231 3.735 3.735 0 01.004 3.927l-.56.9a5.626 5.626 0 000 5.983l.563.907a3.687 3.687 0 010 3.92l-.58.933a5.677 5.677 0 00-.842 2.639H4.556V27.959l2.921-1.826a3.734 3.734 0 013.926-.004l.901.56a5.627 5.627 0 005.983 0l.906-.563a3.686 3.686 0 013.92 0l.934.58a5.633 5.633 0 005.935.03l1.088-.663a3.698 3.698 0 013.858 0l1.088.662a5.634 5.634 0 005.935-.029l.933-.58a3.687 3.687 0 013.92 0l.907.564a5.627 5.627 0 005.983 0l.9-.56a3.733 3.733 0 013.927.003l2.92 1.826v3.868a.976.976 0 101.953 0V18.094h1.628a.975.975 0 00.972-1.063c-.012-.385-.004-3.637.004-5.637a.98.98 0 00-.977-.98h-1.627V8.005c0-.27-.113-.53-.311-.714L55.533.26a.977.977 0 00-.665-.26H11.13a.977.977 0 00-.666.262L2.914 7.29a.977.977 0 00-.31.714v2.409H.975A.976.976 0 000 11.39v5.728c0 .539.437.976.976.976h1.627v40.223H.976a.976.976 0 00-.976.976v5.728c0 .54.437.976.976.976h64.047a.976.976 0 00.97-1.095zm-.007-47.93zm-.065-.232zM1.953 12.366h10.87a.976.976 0 000-1.952H4.555V8.43l6.958-6.478h42.97L61.44 8.43v1.983H17.378a.976.976 0 100 1.952h46.664l-.005 1.878c-.001.683-.002 1.368-.001 1.897H1.953v-3.775zm59.488 5.728v7.562l-1.885-1.179a5.7 5.7 0 00-5.993-.006l-.9.56a3.685 3.685 0 01-3.92 0l-.907-.563a5.627 5.627 0 00-5.983 0l-.933.58a3.691 3.691 0 01-3.89.02l-1.087-.663a5.641 5.641 0 00-5.889 0l-1.087.663a3.691 3.691 0 01-3.89-.02l-.932-.58a5.628 5.628 0 00-5.983 0l-.907.563a3.685 3.685 0 01-3.92 0l-.9-.56a5.7 5.7 0 00-5.993.006l-1.886 1.179v-7.562h56.885zM14.574 56.71l.581-.934a5.627 5.627 0 000-5.983l-.564-.906a3.687 3.687 0 010-3.92l.56-.9a5.697 5.697 0 00-.006-5.993 1.218 1.218 0 01-.032-1.25c.22-.398.623-.636 1.078-.636h1.293c.677 0 1.295.342 1.653.916l1.253 2.005a3.734 3.734 0 01.004 3.926l-.56.9a5.624 5.624 0 000 5.983l.564.907a3.685 3.685 0 010 3.92l-.581.933a5.678 5.678 0 00-.843 2.64h-4.942a3.72 3.72 0 01.542-1.608zm49.463 5.437c-.001.684-.002 1.368-.001 1.898H1.953V60.27h62.089l-.005 1.877z" fill="#fff"/><path d="M39.398 49.385c1.763.917 3.635 1.382 5.562 1.382 2.203 0 3.998-.61 5.05-1.077l2.397 5.766c.146.35.48.584.86.6l.042.002a.977.977 0 00.866-.526l4.325-8.315a.976.976 0 00-1.076-1.403l-6.095 1.345c-.384-1.991-1.723-6.11-6.344-8.514a12.394 12.394 0 00-2.447-.964h-.002a12.413 12.413 0 00-.369-.095l-.038-.008a13.032 13.032 0 00-.342-.076l-.04-.007a10.367 10.367 0 00-.347-.065l-.033-.006c-.12-.02-.239-.038-.359-.054l-.024-.003a11.609 11.609 0 00-.373-.044l-.013-.002c-.389-.038-.781-.06-1.175-.06-3.377 0-5.791 1.432-6.049 1.59a.978.978 0 00-.415.503l-.003.012a1.007 1.007 0 00-.054.355v.015l.001.028v.003c.033.545.526 6.512 6.495 9.618zm-.73-10.141a10.208 10.208 0 011.23-.017l.027.002c.16.008.318.02.477.035l.006.001c.316.032.63.08.941.142l.026.005c.057 1.24-.24 2.544-.858 3.732-.619 1.188-1.515 2.179-2.564 2.845-2.175-2.07-2.833-4.62-3.025-5.754.7-.334 2.044-.863 3.74-.991zm17.135 8.927l-2.396 4.605-1.552-3.733 3.948-.872zm-6.342-.377a10.582 10.582 0 01-4.501 1.021c-1.61 0-3.178-.391-4.661-1.162a10.918 10.918 0 01-.728-.415 9.505 9.505 0 002.678-3.193 9.502 9.502 0 001.078-4.024c.254.108.507.226.757.356 4.146 2.157 5.143 5.954 5.377 7.417z" fill="#fff"/><path d="M38.466 41.59a.651.651 0 11-1.302 0 .651.651 0 011.302 0zm-5.272-8.592c0-1.83-1.49-3.319-3.32-3.319a3.324 3.324 0 00-3.319 3.32c0 1.83 1.49 3.319 3.32 3.319 1.83 0 3.319-1.49 3.319-3.32zm-3.32 1.368a1.368 1.368 0 010-2.734 1.368 1.368 0 010 2.734zm2.734 21.218c1.83 0 3.32-1.49 3.32-3.32 0-1.83-1.49-3.319-3.32-3.319a3.323 3.323 0 00-3.32 3.32c0 1.83 1.49 3.319 3.32 3.319zm0-4.687a1.368 1.368 0 010 2.734 1.368 1.368 0 010-2.734zm25.97-18.419c0-1.83-1.49-3.32-3.32-3.32a3.324 3.324 0 00-3.319 3.32c0 1.83 1.49 3.32 3.32 3.32 1.83 0 3.319-1.49 3.319-3.32zm-4.687 0a1.368 1.368 0 012.734 0c0 .754-.613 1.367-1.367 1.367a1.369 1.369 0 01-1.367-1.367z" fill="#fff"/></svg>