<svg width="40" height="30" fill="none" xmlns="http://www.w3.org/2000/svg"><path d="M1.605 12.262c.339 1.898.124 3.459.021 4.209C1.387 18.21.874 19.515.5 20.466c-.44 1.117-.787 2-.152 2.643.803.814 2.39.277 3.68-.283 1.704-.738 3.232-1.91 4.551-3.484a21.72 21.72 0 004.007 3.24c1.823 1.147 3.725 1.975 5.688 2.479l-2.71 2.377a.586.586 0 00.134.969c4.184 1.996 8.626 1.64 10.803-.866.6-.69 1.014-1.533 1.237-2.512 4.743-1.2 9.098-4.373 11.781-8.555a2.996 2.996 0 000-3.256c-2.713-4.178-6.914-7.301-11.78-8.555-.224-.979-.639-1.822-1.238-2.511C25.265.73 23.3 0 21.065 0c-1.701 0-3.558.423-5.366 1.286a.586.586 0 00-.134.97l2.71 2.377c-1.964.504-3.866 1.331-5.689 2.478-2.418 1.52-3.982 3.18-4.542 3.822a.586.586 0 00-.145.385v7.006c-1.25 1.57-2.708 2.723-4.336 3.428-1.981.858-2.346.57-2.385.532-.073-.156.208-.868.412-1.388.396-1.007.939-2.386 1.197-4.266.111-.81.343-2.494-.028-4.573-.277-1.55-.778-2.706-1.145-3.55-.191-.442-.428-.988-.409-1.165.068-.037.552-.226 2.358.557A10.619 10.619 0 016.43 9.76a.586.586 0 00.783-.872 11.791 11.791 0 00-3.185-2.065c-1.076-.466-1.918-.698-2.555-.698-.502 0-.877.144-1.14.43-.572.624-.229 1.416.206 2.418.344.791.814 1.875 1.066 3.29zm24.012 14.511c-.853.981-2.229 1.593-3.875 1.724-1.5.119-3.113-.152-4.711-.785l2.67-2.343c1.149.2 2.316.293 3.5.276a19.048 19.048 0 003.239-.325 4.345 4.345 0 01-.823 1.453zM17.03 1.983c1.598-.634 3.211-.904 4.711-.786 1.646.131 3.022.743 3.875 1.724.357.411.632.898.823 1.454a19.054 19.054 0 00-3.507-.327c-1.091 0-2.169.093-3.23.279L17.03 1.983zM9.07 11.54c.623-.69 2.036-2.115 4.14-3.438 3.116-1.96 6.473-2.93 9.975-2.882A18.14 18.14 0 0129.3 6.385a19.175 19.175 0 00-1.532 4.338.586.586 0 101.144.255c.32-1.44.816-2.831 1.474-4.145a18.51 18.51 0 011.512.764 19.208 19.208 0 016.638 6.26c.39.601.39 1.379 0 1.98a19.21 19.21 0 01-6.638 6.26c-.494.28-1 .535-1.516.767a17.961 17.961 0 01-1.833-9.52.586.586 0 00-1.167-.098c-.035.409-.057.824-.065 1.232a19.137 19.137 0 001.979 8.833 18.143 18.143 0 01-6.362 1.164c-3.411 0-6.682-.97-9.724-2.883-2.103-1.323-3.516-2.749-4.139-3.438V11.54z" fill="#fff"/><path d="M34.315 16.795a1.96 1.96 0 001.969-1.948 1.96 1.96 0 00-1.969-1.948 1.96 1.96 0 00-1.968 1.948 1.96 1.96 0 001.968 1.948zm0-2.724c.44 0 .797.348.797.776a.787.787 0 01-.797.776.788.788 0 01-.796-.776c0-.428.357-.776.796-.776zm-10.547-1.964a.586.586 0 100-1.171.788.788 0 01-.797-.777c0-.428.358-.776.797-.776a.586.586 0 100-1.172 1.96 1.96 0 00-1.969 1.948 1.96 1.96 0 001.969 1.948zm0 4.688a.586.586 0 100-1.172.788.788 0 01-.797-.776c0-.428.358-.776.797-.776a.586.586 0 100-1.172 1.96 1.96 0 00-1.969 1.948 1.96 1.96 0 001.969 1.948zm-9.375 0a.586.586 0 000-1.172.787.787 0 01-.797-.776c0-.428.357-.776.796-.776a.586.586 0 000-1.172 1.96 1.96 0 00-1.968 1.948 1.96 1.96 0 001.969 1.948zm9.375 4.688a.586.586 0 100-1.172.788.788 0 01-.797-.776c0-.428.358-.776.797-.776a.586.586 0 100-1.172 1.96 1.96 0 00-1.969 1.948 1.96 1.96 0 001.969 1.948zm-4.688-7.032a.586.586 0 100-1.171.788.788 0 01-.796-.777c0-.428.357-.776.796-.776a.586.586 0 100-1.172 1.96 1.96 0 00-1.968 1.948 1.96 1.96 0 001.968 1.948zm0 4.689a.586.586 0 100-1.173.788.788 0 01-.796-.776c0-.428.357-.776.796-.776a.586.586 0 100-1.172 1.96 1.96 0 00-1.968 1.948 1.96 1.96 0 001.968 1.948z" fill="#fff"/></svg>