<svg width="40" height="36" fill="none" xmlns="http://www.w3.org/2000/svg"><path d="M17.333 20.667a.667.667 0 00-.666.666V22A.667.667 0 0018 22v-.667a.667.667 0 00-.667-.666z" fill="#fff"/><path d="M32.6 19.631a.667.667 0 00-.6-.964h-1.537c-1.308 0-2.574.46-3.576 1.301a9.703 9.703 0 00-3.727-2.186l1.978-1.977a.667.667 0 00-.471-1.138h-1.934a4.69 4.69 0 00-2.915 1.022l-2.087 1.666a4.65 4.65 0 00-3.476 2.053l-1.479 2.219a.666.666 0 000 .74l1.48 2.218a4.65 4.65 0 003.477 2.056l2.087 1.667a4.687 4.687 0 002.913 1.025h1.934a.667.667 0 00.471-1.138l-1.978-1.978a9.702 9.702 0 003.727-2.185 5.564 5.564 0 003.576 1.301H32a.667.667 0 00.6-.964l-.739-1.477a2.003 2.003 0 010-1.784l.739-1.477zm-11.946-2.898a3.342 3.342 0 012.08-.733h.32l-1.333 1.333h-1.82l.753-.6zm-1.733 8.6h-.78a3.326 3.326 0 01-2.774-1.484L14.133 22l1.233-1.849a3.325 3.325 0 012.775-1.484h.78l.907 1.814a3.408 3.408 0 010 3.037l-.907 1.815zM22.733 28a3.343 3.343 0 01-2.082-.733l-.753-.6h1.823L23.055 28h-.322zM26 23.051a8.373 8.373 0 01-5.583 2.274l.603-1.21a4.749 4.749 0 000-4.23l-.603-1.21A8.373 8.373 0 0126 20.95v2.102zm4.667.437l.255.512h-.458a4.24 4.24 0 01-3.13-1.38v-1.24A4.24 4.24 0 0130.462 20h.458l-.254.512a3.347 3.347 0 000 2.976zM8 17.333a2 2 0 100 4 2 2 0 000-4zM8 20a.667.667 0 110-1.333A.667.667 0 018 20zm6.667-5.333a2 2 0 10-4 0 2 2 0 004 0zm-2 .666a.667.667 0 110-1.333.667.667 0 010 1.333zM8 9.333a2 2 0 100 4 2 2 0 000-4zM8 12a.667.667 0 110-1.333A.667.667 0 018 12z" fill="#fff"/><path d="M39.942 13.874a20.36 20.36 0 00-.104-1.067l-.015-.115A19.804 19.804 0 0033.785.85a.668.668 0 00-.46-.183H6.675a.667.667 0 00-.46.183A19.802 19.802 0 00.183 12.646l-.01.081c-.048.371-.086.744-.113 1.119l-.019.247c-.024.412-.041.824-.041 1.24 0 11.046 8.954 20 20 20s20-8.954 20-20c0-.407-.016-.812-.04-1.214-.005-.082-.012-.163-.018-.245zM6.944 2h26.112a18.852 18.852 0 012.824 3.515 3.21 3.21 0 01-1.8.485 3.342 3.342 0 01-1.958-.576 4.939 4.939 0 00-5.257 0 3.609 3.609 0 01-3.912 0 4.933 4.933 0 00-5.252 0 3.608 3.608 0 01-3.911 0 4.605 4.605 0 00-2.627-.757 4.599 4.599 0 00-2.626.757A3.34 3.34 0 016.581 6a3.339 3.339 0 01-1.956-.576c-.102-.059-.216-.12-.328-.182A18.867 18.867 0 016.944 2zM20 34C9.696 33.988 1.345 25.638 1.333 15.333c0-.367.013-.733.035-1.1.004-.072.01-.143.016-.215.023-.321.051-.643.09-.962l.014-.103A18.604 18.604 0 013.621 6.39c.112.059.221.123.334.188a4.614 4.614 0 002.626.756 4.606 4.606 0 002.627-.757A3.335 3.335 0 0111.163 6a3.34 3.34 0 011.956.576 4.6 4.6 0 002.626.757 4.607 4.607 0 002.626-.757 3.607 3.607 0 013.91 0 4.933 4.933 0 005.255 0 3.615 3.615 0 013.915 0c.78.513 1.696.777 2.628.757a4.497 4.497 0 002.457-.656 18.633 18.633 0 012.083 7.378l.015.207c.02.356.033.713.033 1.071C38.655 25.638 30.304 33.988 20 34z" fill="#fff"/></svg>