<svg width="34" height="35" fill="none" xmlns="http://www.w3.org/2000/svg"><path d="M16.65 3.608c4.374 0 4.896.011 6.625.093 1.6.07 2.459.348 3.039.569.766.301 1.31.661 1.88 1.242.568.58.928 1.138 1.23 1.916.22.592.486 1.474.567 3.1.082 1.765.093 2.287.093 6.746 0 4.458-.011 4.98-.093 6.745-.07 1.626-.336 2.508-.568 3.1-.301.778-.65 1.336-1.23 1.916-.568.58-1.113.94-1.879 1.243-.58.232-1.45.499-3.04.569-1.728.08-2.25.092-6.623.092-4.374 0-4.896-.011-6.625-.093-1.6-.07-2.459-.348-3.04-.568a5.022 5.022 0 01-1.878-1.243 5.278 5.278 0 01-1.23-1.916c-.22-.592-.487-1.474-.569-3.1-.08-1.764-.092-2.287-.092-6.745 0-4.459.011-4.981.092-6.746.07-1.626.337-2.508.569-3.1.302-.778.65-1.336 1.23-1.916A5.022 5.022 0 016.987 4.27c.58-.233 1.45-.5 3.04-.57 1.728-.069 2.238-.092 6.624-.092zm0-2.996c-4.454 0-5.011.023-6.751.105-1.74.081-2.935.36-3.98.778a7.982 7.982 0 00-2.9 1.927 8.092 8.092 0 00-1.89 2.96C.721 7.44.443 8.659.362 10.436.282 12.21.27 12.78.27 17.308c0 4.529.023 5.098.093 6.874.081 1.776.36 2.984.765 4.052.418 1.091.975 2.032 1.891 2.96a8.08 8.08 0 002.9 1.928c1.045.418 2.24.697 3.98.778 1.752.081 2.308.105 6.752.105 4.443 0 5.011-.024 6.751-.105 1.74-.081 2.935-.36 3.98-.778a7.981 7.981 0 002.9-1.927 8.091 8.091 0 001.89-2.96c.407-1.058.685-2.277.766-4.053.081-1.776.093-2.345.093-6.874 0-4.528-.023-5.097-.093-6.873-.081-1.777-.36-2.984-.766-4.052-.417-1.092-.974-2.032-1.89-2.961a8.08 8.08 0 00-2.9-1.927c-1.045-.418-2.24-.697-3.98-.778C21.65.624 21.094.612 16.65.612z" fill="#fff"/><path d="M16.65 8.728c-4.652 0-8.41 3.832-8.41 8.569 0 4.737 3.77 8.569 8.41 8.569 4.64 0 8.411-3.832 8.411-8.57 0-4.736-3.77-8.568-8.41-8.568zm0 14.13c-3.016 0-5.464-2.484-5.464-5.561s2.448-5.562 5.464-5.562c3.017 0 5.464 2.485 5.464 5.562 0 3.077-2.447 5.561-5.464 5.561zm8.748-12.481c1.082 0 1.96-.894 1.96-1.997 0-1.103-.878-1.997-1.96-1.997-1.083 0-1.961.894-1.961 1.997 0 1.103.878 1.997 1.96 1.997z" fill="#fff"/></svg>