<svg width="83" height="62" fill="none" xmlns="http://www.w3.org/2000/svg"><path d="M6.8 51.884l2.578-.02h4.247v.696c-1.752.036-3.165.056-4.237.056v2.05c.32-.087.774-.133 1.37-.133 1.062 0 1.92.185 2.558.548.644.364.963.908.963 1.625s-.288 1.317-.858 1.799c-.575.482-1.428.722-2.568.722a21.35 21.35 0 01-2.092-.112l-.34-.046V52.61H6.799v-.727zm2.594 6.518a22.86 22.86 0 001.537.067c.753 0 1.334-.174 1.742-.523.408-.348.612-.774.612-1.276s-.24-.881-.727-1.138c-.481-.256-1.166-.384-2.05-.384-.476 0-.848.03-1.12.087v3.167h.006zm6.041-.963c0-1.2.889-1.799 2.662-1.799.523 0 1.12.062 1.789.18v-.646c0-.723-.523-1.087-1.575-1.087a18.3 18.3 0 00-1.674.077l-.224.036v-.666c.58-.113 1.302-.164 2.154-.164.858 0 1.465.164 1.816.487.355.328.533.789.533 1.399v2.316c0 .261.037.451.11.569.073.123.204.184.392.184.188 0 .413-.076.675-.225a3.82 3.82 0 00.638-.451l.261-.22.304.445c-.053.082-.173.22-.356.41a5.097 5.097 0 01-.507.472 2.62 2.62 0 01-.57.328c-.225.097-.45.143-.67.143-.78 0-1.208-.435-1.292-1.306a2.12 2.12 0 01-.507.686c-.455.416-1.01.62-1.663.62-.66 0-1.203-.158-1.637-.471-.44-.318-.66-.753-.66-1.317zm1.02-.067c0 .364.156.646.47.851.314.205.69.308 1.125.308.664 0 1.276-.328 1.836-.99v-1.209a9.53 9.53 0 00-1.585-.144c-1.23-.005-1.846.395-1.846 1.184zm6.736-3.182v-.656c.8-.113 1.329-.164 1.585-.164.466 0 .81.087 1.025.266.215.18.325.554.325 1.133v.087a3.22 3.22 0 01.601-.712 2.826 2.826 0 011.988-.78c.768 0 1.433.267 1.998.8.564.533.847 1.23.847 2.091 0 .861-.335 1.573-1.01 2.132-.669.559-1.522.835-2.557.835-.617 0-1.24-.061-1.867-.19v2.81h-1.02V54.81c0-.262-.074-.43-.22-.523-.146-.087-.424-.133-.832-.133l-.863.036zm2.935 4.048c.68.154 1.286.231 1.82.231.763 0 1.38-.2 1.862-.6.48-.4.716-.922.716-1.573 0-.65-.22-1.168-.648-1.558a2.251 2.251 0 00-1.559-.584c-.371 0-.737.087-1.109.266-.371.18-.627.328-.769.456-.14.129-.25.231-.319.313v3.05h.006zm6.904-2.208c0-1.45.34-2.573 1.024-3.367.686-.795 1.611-1.25 2.778-1.369a6.536 6.536 0 001.354-.256c.367-.118.597-.22.696-.313l.147-.133.439.354a.703.703 0 00-.058.097c-.02.046-.094.123-.209.241-.115.113-.251.22-.403.318-.397.25-.925.415-1.574.487-.983.102-1.747.43-2.29.989-.55.553-.843 1.424-.89 2.608.052-.082.105-.154.152-.215a3.4 3.4 0 01.35-.343c.183-.164.377-.308.57-.416a3.68 3.68 0 01.795-.312c.33-.097.685-.144 1.051-.144.764 0 1.386.185 1.878.559.492.374.738.943.738 1.712 0 .768-.283 1.409-.853 1.927-.57.512-1.386.768-2.453.768-1.062 0-1.872-.292-2.422-.881-.544-.584-.82-1.358-.82-2.311zm1.02 0c0 .763.193 1.358.58 1.793.387.43.941.651 1.653.651.71 0 1.27-.184 1.673-.548a1.75 1.75 0 00.607-1.348c0-.533-.183-.928-.544-1.189-.36-.256-.842-.39-1.438-.39-.649.006-1.329.226-2.04.657a4.322 4.322 0 00-.371.245l-.126.113v.016h.005zm6.01-1.84v-.646c.533-.118.982-.18 1.348-.18.367 0 .696.129 1.01.39.309.262.56.574.748.943.188.354.36.784.507 1.286.24.805.413 1.615.508 2.42.444-.62.878-1.451 1.302-2.486.424-1.035 1.297-5.786-2.113-12.397l1.46-1.117c3.064 8.384 1.981 12.75 1.427 13.862-.56 1.107-1.13 2.045-1.72 2.809-1.308 1.655-2.621 2.634-3.95 2.926l-.371-.83c.507-.098 1.083-.354 1.726-.774a7.338 7.338 0 001.648-1.456c-.142-.748-.382-1.63-.712-2.65-.209-.63-.47-1.147-.774-1.557-.303-.41-.622-.615-.957-.615l-1.088.072zm8.917 4.243c-.617-.528-.92-1.235-.92-2.111 0-.882.329-1.594.982-2.137.66-.544 1.48-.815 2.47-.815.658 0 1.197.051 1.615.154l.236.046v.733a14.362 14.362 0 00-1.731-.123c-.785 0-1.407.19-1.868.568-.46.38-.69.892-.69 1.528 0 .635.214 1.142.638 1.522.429.379.947.563 1.569.563.408 0 .806-.076 1.193-.24.387-.16.674-.318.852-.472l.282-.246.32.456a2.358 2.358 0 01-.398.456c-.183.17-.366.313-.56.43a3.654 3.654 0 01-1.783.477c-.858.005-1.595-.261-2.207-.789z" fill="#2D3E50"/><path d="M48.987 48.614v-.543h.152c.084 0 .194-.005.32-.01a1.171 1.171 0 00.883-.385.947.947 0 00.246-.666c0-.369-.09-.625-.272-.774-.183-.148-.413-.22-.696-.22-.22 0-.418.02-.59.056a1.445 1.445 0 00-.42.154l-.172-.513c.105-.061.272-.123.508-.184.235-.062.502-.092.8-.092.193 0 .382.02.565.066.183.046.345.123.486.23.141.109.251.257.34.447.084.184.13.42.13.702 0 .287-.073.553-.219.8a1.357 1.357 0 01-.67.558v.036c.32.061.57.21.759.45.183.236.277.56.277.96a2.1 2.1 0 01-.151.83c-.1.23-.236.42-.403.568a1.64 1.64 0 01-.586.328 2.268 2.268 0 01-.696.108 3.92 3.92 0 01-.758-.062 1.976 1.976 0 01-.502-.159l.172-.568c.115.061.262.112.445.148.183.041.403.062.67.062a1.153 1.153 0 00.8-.313c.104-.102.183-.225.246-.384.057-.154.088-.333.088-.533 0-.364-.099-.625-.292-.795-.2-.164-.46-.261-.79-.287-.058-.005-.11-.01-.152-.01h-.517v-.005zm3.097.697c0-.753.13-1.312.397-1.666.267-.353.643-.533 1.135-.533.523 0 .91.185 1.161.544.246.364.371.912.371 1.65 0 .758-.136 1.317-.402 1.67-.267.354-.644.529-1.13.529-.523 0-.91-.185-1.161-.544-.246-.364-.371-.912-.371-1.65zm.643 0c0 .246.016.471.047.671.031.2.084.374.152.518a.866.866 0 00.277.338.69.69 0 00.413.123.724.724 0 00.67-.39c.146-.26.224-.68.224-1.26 0-.24-.015-.461-.047-.666a1.89 1.89 0 00-.151-.523.867.867 0 00-.278-.338.69.69 0 00-.413-.123c-.293 0-.512.133-.664.395-.157.26-.23.676-.23 1.255zm3.055 0c0-.753.13-1.312.397-1.666.267-.353.644-.533 1.135-.533.523 0 .91.185 1.161.544.246.364.372.912.372 1.65 0 .758-.136 1.317-.403 1.67-.267.354-.643.529-1.13.529-.523 0-.91-.185-1.16-.544-.247-.364-.372-.912-.372-1.65zm.643 0c0 .246.016.471.047.671.032.2.084.374.152.518a.867.867 0 00.277.338.69.69 0 00.413.123.724.724 0 00.67-.39c.146-.26.225-.68.225-1.26 0-.24-.016-.461-.048-.666a1.89 1.89 0 00-.151-.523.867.867 0 00-.277-.338.69.69 0 00-.413-.123c-.293 0-.513.133-.665.395-.151.26-.23.676-.23 1.255zm6.088-.395l.063-.8h-.037l-.256.713-.795 1.61h-.225l-.832-1.61-.23-.712h-.042l.068.79v2.5h-.554v-4.192h.617l.931 1.82.188.543h.016l.204-.564.863-1.804h.633v4.192h-.617v-2.486h.005zm1.585-1.45a2.06 2.06 0 01.601-.236 3.22 3.22 0 01.748-.082c.241 0 .434.036.576.108a.81.81 0 01.34.287.982.982 0 01.162.41c.026.154.036.313.036.482 0 .333-.005.66-.02.984-.016.317-.021.62-.021.907 0 .21.005.41.02.59.016.184.042.353.084.517h-.481l-.152-.497h-.036a1.17 1.17 0 01-.372.379c-.162.107-.387.159-.664.159a1 1 0 01-.753-.313c-.194-.21-.293-.497-.293-.866 0-.24.042-.44.12-.605a1.03 1.03 0 01.35-.394c.153-.103.33-.175.534-.216.21-.04.44-.061.69-.061h.168c.058 0 .115.005.178.01a5.3 5.3 0 00.026-.461c0-.318-.047-.543-.146-.671-.095-.129-.272-.195-.529-.195a2.2 2.2 0 00-.517.072c-.189.046-.34.107-.466.179l-.183-.487zm1.841 2.03a1.961 1.961 0 00-.167-.01c-.058-.006-.115-.006-.168-.006-.136 0-.266.01-.397.036-.131.02-.246.062-.345.118a.67.67 0 00-.241.225.69.69 0 00-.089.36c0 .225.058.394.167.517.11.123.252.184.43.184.235 0 .418-.056.548-.169a.942.942 0 00.272-.369v-.886h-.01zm3.661-1.738h-1.423v3.65h-.617v-4.193h2.04v.543zm.455-.292c.167-.102.366-.18.602-.236a3.23 3.23 0 01.748-.082c.24 0 .434.036.58.108a.81.81 0 01.34.287.982.982 0 01.162.41c.026.154.037.313.037.482 0 .333-.005.66-.021.984-.016.317-.021.62-.021.907 0 .21.005.41.02.59.017.184.043.353.085.517h-.482l-.151-.497h-.037a1.17 1.17 0 01-.371.379c-.162.107-.387.159-.665.159a1.01 1.01 0 01-.753-.313c-.193-.21-.293-.497-.293-.866 0-.24.042-.44.126-.605a1.03 1.03 0 01.35-.394 1.45 1.45 0 01.534-.216c.204-.04.44-.061.69-.061h.168c.057 0 .115.005.177.01.016-.174.027-.328.027-.461 0-.318-.047-.543-.147-.671-.094-.129-.272-.195-.528-.195a2.2 2.2 0 00-.518.072c-.188.046-.34.107-.465.179l-.194-.487zm1.841 2.03a1.963 1.963 0 00-.167-.01c-.058-.006-.115-.006-.168-.006-.136 0-.266.01-.397.036-.13.02-.246.062-.345.118a.67.67 0 00-.24.225.69.69 0 00-.09.36c0 .225.058.394.162.517.11.123.251.184.43.184.235 0 .418-.056.548-.169a.943.943 0 00.272-.369v-.886h-.005zm1.951.014v-.501h.47a.497.497 0 00.236-.057.65.65 0 00.204-.148.79.79 0 00.147-.216.613.613 0 00.057-.256c0-.22-.057-.38-.178-.476-.115-.103-.293-.154-.533-.154-.178 0-.34.026-.481.077a1.493 1.493 0 00-.34.159l-.178-.477a2.02 2.02 0 01.502-.22c.194-.057.408-.082.654-.082.376 0 .664.087.868.256.204.169.303.425.303.763 0 .21-.052.41-.162.585a.917.917 0 01-.444.384v.036c.261.061.45.18.565.353.115.175.172.405.172.687 0 .354-.12.651-.36.887-.241.236-.608.359-1.104.359-.23 0-.419-.02-.576-.062a1.959 1.959 0 01-.423-.164l.162-.523c.11.067.235.118.387.149.146.036.303.051.46.051.277 0 .492-.066.628-.195.14-.128.209-.317.209-.558 0-.205-.063-.364-.199-.482-.13-.118-.35-.18-.659-.18h-.387v.006zm4.812-.517l.052-.635h-.036l-.299.707-1.448 2.347h-.403V47.22h.617v2.49l-.052.616h.036l.283-.687 1.464-2.414h.403v4.192h-.617v-2.424zm3.724.543h-1.48v1.871h-.617v-4.192h.617v1.778h1.48v-1.778H83v4.192h-.617v-1.87z" fill="#36C0F1"/><path d="M79.92 7.963c-3.997.456-7.783 5.294-10.09 6.918-2.306 1.625-7.756 4.274-11.287 4.505-3.53.23-13.688-4.11-13.688-4.11s6.167 2.224 7.061 1.368l.298-1.86L44.82.72 43.155.004c-7.892-.261-9.425 9.235-12.6 9.983-3.174.748-10.512 2.809-15.47 5.381C10.12 17.951 0 26.694 0 27.217c0 .379 1.339 3.53 2.375 4.868 2.636.487 7.202.108 10.465-2.106-1.61 3.377-6.433 3.915-6.433 3.915l7.93 4.777s4.613 9.593 18.033 8.6l.262 1.25c.622 1.26 3.436 1.906 6.365 1.568 2.05.487 4.028 3.064 6.125 2.772.335-3.884-2.265-9.235-2.265-9.235l-1.496-.164 4.363-3.146 5.162 3.961s5.863-8.517 6.391-9.788c.534-1.271.168-2.808.168-2.808l-2.495-.329s3.698-1.142 5.758-.194c5.576 2.557 12.84 8.963 15.984 7.666 5.958-2.46-3.164-13.083-3.164-13.083s5.523-12.197 6.391-17.778zM13.483 26.202c-1.564 0-2.83-1.24-2.83-2.773 0-1.532 1.266-2.772 2.83-2.772s2.83 1.24 2.83 2.773c.005 1.532-1.266 2.772-2.83 2.772z" fill="#2D3E50"/><path d="M14.18 21.453s1.505.415 1.474 2.055c-.042 2.05-2.4 1.988-2.4 1.988s1.548-.436 1.631-1.983c.053-1.025-.706-2.06-.706-2.06z" fill="#2D3E50"/><path d="M17.292 15.19c3.06 2.609 5.308 10.608 2.84 20.3l-3.573-5.617c2.73-5.546-.842-13.796-.842-13.796l1.575-.887zm6.485-2.49c9.325 11.484 7.95 26.29 6.548 34.12l3.63-.292c3.53-16.707 3.232-30.815-3.363-35.776l-6.815 1.947zm9.99-3.721s4.864-7.898 7.328-7.898c2.463 0 8.87 13.489 8.473 14.16-.392.671-2.85-.195-5.476-.979S33.767 8.98 33.767 8.98zm14.117 7.733c4.064 11.843 2.066 17.455-.931 22.805l3.263 2.609c.764-3.393 1.334-4.7 2.85-7.6 3.312-6.33 3.238-13.048-.982-16.282l-4.2-1.532zm13.186 3.101c3.729 5.678 0 10.439 0 10.439l1.6.784c4.864-5.545 2.332-9.66 0-11.813l-1.6.59z" fill="#fff"/><path d="M5.575 17.286a.658.658 0 00.665-.65.659.659 0 00-.665-.652.658.658 0 00-.664.651c0 .36.298.651.664.651zm1.188-3.182c.791 0 1.433-.63 1.433-1.405s-.642-1.404-1.433-1.404c-.792 0-1.433.629-1.433 1.404 0 .776.641 1.405 1.433 1.405zM4.911 9.517c1.087 0 1.967-.863 1.967-1.927s-.88-1.927-1.967-1.927c-1.086 0-1.966.863-1.966 1.927s.88 1.927 1.966 1.927z" fill="#36C0F1"/><path d="M4.383 9.01a1.18 1.18 0 001.192-1.17 1.18 1.18 0 00-1.192-1.168A1.18 1.18 0 003.19 7.841a1.18 1.18 0 001.193 1.168zm2.531 3.966a.777.777 0 00.785-.769.777.777 0 00-.785-.768.777.777 0 00-.784.768c0 .425.351.769.784.769zM5.34 16.768a.264.264 0 00.267-.26.264.264 0 00-.267-.262.264.264 0 00-.267.261c0 .144.12.261.267.261z" fill="#fff"/></svg>