<svg width="80" height="50" fill="none" xmlns="http://www.w3.org/2000/svg"><rect x=".5" y=".5" width="79" height="49" rx="5.5" stroke="#fff"/><path fill-rule="evenodd" clip-rule="evenodd" d="M54.44 25.68V35h5.43v-5.523h6.156c2.59-.018 4.791-1.596 5.62-3.797H54.44z" fill="#fff"/><path fill-rule="evenodd" clip-rule="evenodd" d="M53.715 18c.317 3.81 4.097 6.817 8.714 6.817h9.443c.07-.35.106-.71.106-1.078 0-3.156-2.67-5.716-5.974-5.739H53.715z" fill="#C6C6C6"/><path fill-rule="evenodd" clip-rule="evenodd" d="M45.678 24.727l.004-.01v.001a.328.328 0 01.285-.16.32.32 0 01.326.302v10.054h5.431V18h-5.43c-.69.022-1.468.504-1.757 1.095l-4.322 8.836a.338.338 0 01-.05.1v.003h-.001a.367.367 0 01-.298.149.354.354 0 01-.362-.345V18h-5.43v16.914h5.43v-.002c.681-.034 1.441-.51 1.726-1.093l4.436-9.07a.3.3 0 01.012-.022zm-20.28.289l-3.175 9.898h-3.907L15.14 25.01a.353.353 0 00-.351-.279.35.35 0 00-.358.345v9.838H9V18h6.05c1 0 2.046.74 2.338 1.65l2.644 8.242c.131.41.345.41.476 0l2.643-8.242c.292-.911 1.34-1.65 2.339-1.65h6.048v16.914h-5.43v-9.842a.35.35 0 00-.358-.341.353.353 0 00-.352.285z" fill="#fff"/></svg>