<svg width="60" height="74" fill="none" xmlns="http://www.w3.org/2000/svg"><path d="M.563 23.206a16.29 16.29 0 003.81 7.512 62.872 62.872 0 015.974 16.514c1.786 8.163-.154 18.025-2.87 24.178a1.234 1.234 0 001.35 1.712l42.723-7.8c.048-.01.095-.021.141-.035a11.584 11.584 0 007.717-13.58L45.54 9.578a1.233 1.233 0 00-2.297-.133c-2.16 4.683-11.817 11.882-19.498 14.533-5.012 1.73-14.17 3.88-19.175 2.848a12.185 12.185 0 01-1.582-4.056 12.071 12.071 0 013.458-10.24c3.8-4.089 9.667-6.185 16.268-5.867l-1.19 1.055a1.234 1.234 0 101.64 1.846l2.918-2.587c.285-.253.437-.623.412-1.003l-.286-4.437a1.233 1.233 0 10-2.461.16l.166 2.581C16.15 3.626 9.153 6 4.643 10.853a14.503 14.503 0 00-4.08 12.353zm23.99 3.106c7.154-2.47 15.664-8.487 19.464-13.47l13.016 39.534a9.066 9.066 0 01-6.002 10.537l-40.448 7.381c2.404-6.527 3.884-15.771 2.174-23.59a76.29 76.29 0 00-3.582-11.65 31.111 31.111 0 008.739 4.278 1.233 1.233 0 10.725-2.358 27.028 27.028 0 01-12.052-7.43c5.94.263 14.027-1.869 17.967-3.232z" fill="#fff"/><path d="M43.243 56.307l2.136 1.234a1.233 1.233 0 001.234-2.136l-2.136-1.233a1.233 1.233 0 10-1.233 2.136zm3.7-6.407l2.136 1.233a1.233 1.233 0 101.233-2.136l-2.136-1.234a1.233 1.233 0 10-1.233 2.136zM35.404 30.422l-2.136-1.234 1.234-2.136 2.136 1.234-1.234 2.136zM20.034 47.18l-2.136-1.234 1.233-2.136 2.136 1.233-1.233 2.136zm14.258-7.433l-2.136-1.233 1.234-2.136 2.136 1.233-1.234 2.136zM20.86 33.416l-2.136-1.233 1.233-2.136 2.136 1.233-1.233 2.136zM19.372 58.19l-2.136-1.234 1.234-2.136 2.136 1.234-1.234 2.136z" fill="#fff"/></svg>