<svg width="18" height="19" fill="none" xmlns="http://www.w3.org/2000/svg"><g clip-path="url(#clip0)" fill="#36C0F1"><path d="M9 9.953c2.229 0 4.036-2.068 4.036-4.62C13.036 1.798 11.229.716 9 .716c-2.229 0-4.036 1.082-4.036 4.619 0 2.55 1.807 4.619 4.036 4.619zm8.912 6.798l-2.036-4.484a1.01 1.01 0 00-.46-.48l-3.16-1.608a.207.207 0 00-.217.018A5.08 5.08 0 019 11.207a5.08 5.08 0 01-3.039-1.01.208.208 0 00-.217-.018l-3.16 1.608a1.009 1.009 0 00-.46.48L.088 16.75a.973.973 0 00.077.947c.189.283.508.453.853.453h15.963c.346 0 .665-.17.854-.453a.973.973 0 00.077-.947z"/></g><defs><clipPath id="clip0"><path fill="#fff" d="M0 .633h18v17.6H0z"/></clipPath></defs></svg>