<svg width="80" height="50" fill="none" xmlns="http://www.w3.org/2000/svg"><rect x=".5" y=".5" width="79" height="49" rx="5.5" stroke="#fff"/><path d="M36.3 35.712h-5.103l3.192-19.36h5.103L36.3 35.711zm18.5-18.888c-1.006-.392-2.603-.824-4.577-.824-5.04 0-8.589 2.636-8.61 6.405-.042 2.78 2.54 4.325 4.472 5.252 1.975.948 2.646 1.566 2.646 2.41-.02 1.298-1.596 1.896-3.065 1.896-2.037 0-3.13-.309-4.788-1.03l-.672-.31-.715 4.347c1.197.535 3.403 1.01 5.692 1.03 5.355 0 8.841-2.595 8.883-6.612.02-2.204-1.344-3.893-4.284-5.273-1.785-.885-2.878-1.483-2.878-2.389.02-.824.924-1.668 2.94-1.668 1.658-.041 2.877.35 3.8.741l.462.206.694-4.18zm6.783 12.029c.42-1.112 2.038-5.417 2.038-5.417-.021.041.42-1.133.671-1.854l.357 1.669s.966 4.634 1.176 5.602h-4.242zm6.3-12.502h-3.948c-1.217 0-2.142.35-2.667 1.606l-7.58 17.754h5.354l1.072-2.904h6.552c.146.68.609 2.904.609 2.904H72l-4.117-19.36zm-40.949 0l-4.998 13.202-.546-2.677c-.924-3.09-3.822-6.447-7.056-8.116l4.578 16.931h5.397l8.021-19.34h-5.396z" fill="#fff"/><path d="M17.295 16.351H9.084L9 16.742c6.405 1.607 10.647 5.48 12.39 10.134l-1.785-8.898c-.294-1.236-1.197-1.586-2.31-1.627z" fill="#C6C6C6"/></svg>