<svg width="20" height="18" fill="none" xmlns="http://www.w3.org/2000/svg"><path d="M6.484 11.857H17.07a.583.583 0 00.564-.423l2.343-8.157a.58.58 0 00-.563-.742H5.132L4.712.66a.585.585 0 00-.571-.457H.586A.584.584 0 000 .787c0 .322.262.582.586.582H3.67l2.116 9.468a1.75 1.75 0 00-1.06 1.602c0 .964.79 1.748 1.758 1.748H17.07a.584.584 0 100-1.165H6.484a.585.585 0 01-.586-.583c0-.321.264-.582.586-.582z" fill="#FFA800"/><path d="M5.898 15.935c0 .964.789 1.748 1.758 1.748.97 0 1.758-.784 1.758-1.748s-.788-1.748-1.758-1.748c-.969 0-1.758.784-1.758 1.748zm8.242 0c0 .964.79 1.748 1.758 1.748.97 0 1.758-.784 1.758-1.748s-.788-1.748-1.758-1.748c-.969 0-1.757.784-1.757 1.748z" fill="#FFA800"/></svg>