<svg width="20" height="34" fill="none" xmlns="http://www.w3.org/2000/svg"><path d="M12.966 18.739V4.46a4.46 4.46 0 10-8.92 0v14.273a8.28 8.28 0 004.438 15.26l.044.007a8.28 8.28 0 004.438-15.261zM5.022 31.796a7.019 7.019 0 010-12.157.634.634 0 00.317-.551V4.46a3.192 3.192 0 116.385 0v14.628a.634.634 0 00.317.551 7.019 7.019 0 11-7.019 12.157z" fill="#fff"/><path d="M9.162 21.16v-9.617a.634.634 0 10-1.268 0v9.618a4.381 4.381 0 00.634 8.718 4.381 4.381 0 00.634-8.718zm-.634 7.444a3.113 3.113 0 01-3.113-3.113 3.12 3.12 0 013.113-3.113 3.113 3.113 0 110 6.226zm10.62-24.245h-3.963a.634.634 0 100 1.268h3.963a.634.634 0 000-1.268zm-.843 3.171h-2.327a.634.634 0 000 1.267h2.327a.634.634 0 100-1.268zm.843 3.17h-3.963a.634.634 0 100 1.267h3.963a.634.634 0 000-1.268zm-.843 3.17h-2.327a.634.634 0 000 1.268h2.327a.634.634 0 100-1.269zm.843 3.17h-3.963a.634.634 0 100 1.268h3.963a.634.634 0 000-1.268z" fill="#fff"/></svg>