<svg width="70" height="70" fill="none" xmlns="http://www.w3.org/2000/svg"><path d="M59.5 0H47.833c-.644 0-1.166.522-1.166 1.167v3.5c0 .554.39 1.032.933 1.143l1.116.224a6.39 6.39 0 012.617 1.19v.233a6.678 6.678 0 01-2.98 5.569l1.295 1.941a8.997 8.997 0 003.707-5.18c.144.32.262.651.35.992.128.52.593.885 1.128.888h2.334v3.328l-3.16 10.53 2.236.672 2.959-9.864h5.157L66.5 28.105v26.728a3.5 3.5 0 01-3.5 3.5h-3.014v2.334H63a5.84 5.84 0 005.833-5.834V28c0-.07-.007-.14-.02-.21L66.5 15.066v-3.398h2.333c.645 0 1.167-.523 1.167-1.167C69.994 4.704 65.296.006 59.5 0zm4.667 14H59.5v-2.333h4.667V14zm-8.474-4.667a8.807 8.807 0 00-6.515-5.587L49 3.71V2.333h10.5a8.18 8.18 0 018.084 7H55.693zM5.833 60.667H14v-2.334H5.833a3.5 3.5 0 01-3.5-3.5V38.128c0-1.193.167-2.38.495-3.526l1.794-6.281c.065-.226.06-.467-.016-.69l-2.049-6.146a4.386 4.386 0 011.355-4.753l4.677-3.899H19.41l3.383 2.821 1.495-1.792L21 11.12V8.167c0-.31-.123-.606-.342-.825L18.667 5.35V1.167C18.667.522 18.144 0 17.5 0h-7c-.644 0-1.167.522-1.167 1.167V5.35L7.342 7.342A1.167 1.167 0 007 8.167v2.952l-4.583 3.82A6.714 6.714 0 00.35 22.224l1.933 5.803-1.7 5.933A15.14 15.14 0 000 38.128v16.705a5.84 5.84 0 005.833 5.834zm5.834-58.334h4.666v2.334h-4.666V2.333zM9.333 8.65L10.983 7h6.034l1.65 1.65v1.85H9.333V8.65z" fill="#fff"/><path d="M21 19.833c0-2.617-3.076-4.666-7-4.666s-7 2.05-7 4.666c0 2.617 3.076 4.667 7 4.667s7-2.05 7-4.667zm-11.667 0c0-1.1 1.996-2.333 4.667-2.333 2.67 0 4.667 1.232 4.667 2.333 0 1.102-1.996 2.334-4.667 2.334-2.67 0-4.667-1.233-4.667-2.334zm3.384 18.863l.783-2.197-7.275-2.598A1.166 1.166 0 004.667 35v14a5.84 5.84 0 005.833 5.833h2.333V52.5H10.5A3.5 3.5 0 017 49V36.655l5.717 2.04zm31.409-.89a17.063 17.063 0 012.82 14.95 3.46 3.46 0 006.594 2.1 22.908 22.908 0 00-3.617-21.816l-.467-.596a3.745 3.745 0 00-5.924 4.582l.594.78zm1.003-3.378a1.411 1.411 0 012.486-.551l.467.595a20.583 20.583 0 013.252 19.607 1.166 1.166 0 01-1.965.307 1.123 1.123 0 01-.183-.989 19.41 19.41 0 00-3.209-17.005l-.6-.789a1.408 1.408 0 01-.248-1.175z" fill="#fff"/><path d="M21.196 69.481c.217.324.58.519.97.519h28c.355 0 .69-.16.912-.438l2.916-3.647a30.448 30.448 0 00-4.964-42.957l-4.697-3.691v-4.1c0-.645-.522-1.167-1.166-1.167H42V9.333A2.333 2.333 0 0039.667 7h-9.334A2.333 2.333 0 0028 9.333V14h-1.166c-.645 0-1.167.522-1.167 1.167V19.4l-1.557 1.817C12.484 34.854 11.295 54.542 21.196 69.48zm9.137-60.148h9.334V14h-9.334V9.333zm-4.451 13.403l1.837-2.143a1.17 1.17 0 00.281-.76v-3.5h14v2.334H30.334V21h12.429l4.827 3.792a28.116 28.116 0 014.584 39.666l-2.567 3.209h-26.81c-8.967-14.025-7.715-32.263 3.084-44.931z" fill="#fff"/><path d="M33.25 60.667a13.392 13.392 0 0011.184-6.012c.164-.247.227-.547.178-.84-1.414-8.399-4.59-14.993-9.442-19.599a1.166 1.166 0 00-.7-.317 12.012 12.012 0 00-1.22-.066c-7.41 0-13.417 6.007-13.417 13.417S25.84 60.667 33.25 60.667zm0-24.5c.204 0 .407.008.608.02 4.226 4.159 7.04 10.059 8.373 17.552a11.083 11.083 0 11-8.981-17.572z" fill="#fff"/></svg>