<svg width="34" height="34" fill="none" xmlns="http://www.w3.org/2000/svg"><path d="M30.72 31.59a10.423 10.423 0 00-9.333-2.892V26.55l6.57-6.571c.361-.36.56-.839.56-1.348a1.908 1.908 0 00-3.254-1.347l-2.221 2.221a.81.81 0 01-1.143-1.144l4.906-4.906A2.102 2.102 0 0025.32 9.87c-.56 0-1.088.218-1.484.615L22.55 11.77a4.82 4.82 0 01-.614.514v-1.868c0-2.47.492-4.874 1.466-7.144.119-.278.179-.57.179-.872v-.19a2.211 2.211 0 00-4.231-.897l-.42.941a15.993 15.993 0 00-1.146 3.788L15.1 3.357a2.082 2.082 0 00-1.485-.615 2.102 2.102 0 00-1.484 3.584l3.479 3.478a1.004 1.004 0 01-1.418 1.418L12.689 9.72a2.278 2.278 0 00-1.621-.672 2.296 2.296 0 00-2.294 2.294c0 .612.239 1.188.672 1.621l5.615 5.615a1.004 1.004 0 01-1.418 1.418l-2.164-2.163a1.918 1.918 0 00-1.347-.56 1.91 1.91 0 00-1.906 1.907c0 .509.198.987.558 1.347l4.926 4.926v2.797a11.156 11.156 0 00-11.318 4.053l-.466.6H0V34h34v-1.097h-1.967L30.72 31.59zm-7.42-1.978c2.509 0 4.869.977 6.643 2.752l.539.538h-9.434l-2.28-2.052-.052-.043a9.355 9.355 0 014.584-1.195zM9.56 19.753a.81.81 0 011.144-1.145l2.164 2.164c.396.397.923.615 1.484.615a2.102 2.102 0 001.485-3.584l-5.615-5.615a1.198 1.198 0 011.692-1.692l1.502 1.502a2.102 2.102 0 002.969-2.969L12.906 5.55a1.004 1.004 0 011.418-1.418l3.286 3.285c-.037.45-.062.901-.062 1.356h1.097c0-2.106.434-4.15 1.29-6.074l.419-.942a1.113 1.113 0 012.13.452v.19c0 .153-.03.3-.09.44a19.124 19.124 0 00-1.555 7.576v2.448a4.742 4.742 0 01-1.645.297v1.097a5.803 5.803 0 004.132-1.712l1.285-1.285a1.004 1.004 0 011.418 1.419l-4.906 4.906a1.908 1.908 0 002.695 2.695l2.221-2.22a.81.81 0 011.144 1.144l-6.893 6.89v2.862c-.871.26-1.705.641-2.489 1.124a11.191 11.191 0 00-2.994-1.527v-3.556L9.56 19.752zm1.696 9.311c2.507 0 4.914.925 6.778 2.602l1.376 1.237H3.318a10.066 10.066 0 017.938-3.838z" fill="#fff"/><path d="M19.194 22.484h1.096v1.097h-1.096v-1.097zm-3.291 3.839H17v1.096h-1.097v-1.096zm2.194-8.226h1.097v1.096h-1.097v-1.096zm-3.839-3.839h1.097v1.097h-1.097v-1.097zm4.387-3.838h1.097v1.096h-1.097V10.42zM2.193 6.58c.907 0 1.646-.738 1.646-1.645 0-.906-.739-1.645-1.646-1.645-.906 0-1.645.739-1.645 1.645 0 .907.739 1.646 1.645 1.646zm0-2.193a.55.55 0 110 1.098.55.55 0 010-1.098zm.001 9.323c1.21 0 2.193-.984 2.193-2.194s-.984-2.193-2.193-2.193C.984 9.323 0 10.306 0 11.516s.984 2.194 2.194 2.194zm0-3.29a1.098 1.098 0 010 2.193 1.098 1.098 0 010-2.194zM1.645 0h1.097v1.097H1.645V0zm31.807 8.774c0-.907-.739-1.645-1.646-1.645-.907 0-1.645.738-1.645 1.645s.738 1.645 1.645 1.645 1.646-.738 1.646-1.645zm-1.646.549a.55.55 0 11.002-1.099.55.55 0 01-.002 1.099zm0-4.936c1.21 0 2.194-.984 2.194-2.193C34 .984 33.016 0 31.806 0s-2.193.984-2.193 2.194.984 2.193 2.194 2.193zm0-3.29a1.098 1.098 0 010 2.193 1.098 1.098 0 010-2.193zm-.548 11.516h1.097v1.097h-1.097v-1.097z" fill="#fff"/></svg>