<svg width="35" height="40" fill="none" xmlns="http://www.w3.org/2000/svg"><path d="M21.586 29.43c3.227-5.352 7.305-12.875 7.305-16.742C28.89 6.163 23.586.858 17.063.858c-6.525.002-11.83 5.306-11.83 11.83 0 3.867 4.079 11.39 7.305 16.742C8.711 29.719 0 30.758 0 34.203c0 3.39 8.844 4.938 17.07 4.938 8.22 0 17.07-1.547 17.07-4.938-.007-3.445-8.726-4.484-12.554-4.773zM6.867 12.688c0-5.626 4.578-10.204 10.195-10.204 5.625 0 10.204 4.579 10.204 10.204 0 4.914-7.828 17.242-10.203 20.867C14.688 29.93 6.867 17.602 6.867 12.688zm10.195 24.82c-9.992 0-15.437-2.188-15.437-3.313 0-.867 3.594-2.734 11.875-3.21 1.555 2.507 2.734 4.28 2.89 4.492.212.28.829.617 1.352 0 .164-.196 1.336-1.985 2.89-4.493 8.282.477 11.876 2.336 11.876 3.211-.008 1.133-5.453 3.313-15.446 3.313z" fill="#36C0F1"/><path d="M22.21 12.688a5.148 5.148 0 10-10.296 0 5.148 5.148 0 1010.297 0zm-8.67 0a3.524 3.524 0 117.048.001 3.524 3.524 0 01-7.049-.002z" fill="#36C0F1"/></svg>