<svg width="80" height="50" fill="none" xmlns="http://www.w3.org/2000/svg"><path fill-rule="evenodd" clip-rule="evenodd" d="M74 1H6a5 5 0 00-5 5v38a5 5 0 005 5h68a5 5 0 005-5V6a5 5 0 00-5-5zM6 0a6 6 0 00-6 6v38a6 6 0 006 6h68a6 6 0 006-6V6a6 6 0 00-6-6H6z" fill="#fff"/><path d="M47.853 10.059H35.144V32.55h12.71V10.059z" fill="#EEE"/><path d="M35.952 21.308a14.1 14.1 0 011.456-6.254 14.323 14.323 0 014.09-4.994 14.648 14.648 0 00-7.425-2.975 14.72 14.72 0 00-7.897 1.357 14.45 14.45 0 00-5.963 5.276A14.143 14.143 0 0018 21.306c0 2.684.767 5.313 2.212 7.588a14.45 14.45 0 005.964 5.277 14.721 14.721 0 007.897 1.357 14.649 14.649 0 007.426-2.976 14.323 14.323 0 01-4.09-4.992 14.099 14.099 0 01-1.457-6.252z" fill="#C6C6C6"/><path d="M65 21.307c0 2.684-.767 5.314-2.213 7.588a14.45 14.45 0 01-5.964 5.277 14.72 14.72 0 01-7.898 1.356 14.648 14.648 0 01-7.426-2.977 14.348 14.348 0 004.089-4.994 14.124 14.124 0 001.46-6.252c0-2.166-.499-4.304-1.46-6.252a14.347 14.347 0 00-4.089-4.994 14.648 14.648 0 017.426-2.977 14.72 14.72 0 017.898 1.356 14.45 14.45 0 015.964 5.276A14.143 14.143 0 0165 21.303v.004zm-1.388 8.86v-.461h.19v-.095h-.48v.095h.206v.46h.084zm.932 0v-.556H64.4l-.17.397-.169-.397h-.129v.556h.105v-.417l.157.361h.11l.157-.361v.42l.084-.003zM26.55 42.801v-2.383a1.395 1.395 0 00-.411-1.093 1.44 1.44 0 00-1.105-.417 1.512 1.512 0 00-.772.155c-.238.119-.44.298-.584.52a1.407 1.407 0 00-.543-.51 1.433 1.433 0 00-.732-.165 1.292 1.292 0 00-.64.134 1.269 1.269 0 00-.49.43v-.469h-.838v3.798h.847v-2.09a.877.877 0 01.23-.723.905.905 0 01.714-.285c.557 0 .84.357.84 1v2.114h.846v-2.105a.88.88 0 01.233-.722.908.908 0 01.711-.288c.573 0 .848.358.848 1.002v2.113l.847-.016zm12.536-3.798h-1.38v-1.152h-.847v1.152h-.767v.755h.783v1.748c0 .882.347 1.407 1.34 1.407.37.001.734-.1 1.049-.294l-.242-.708c-.225.133-.48.206-.743.215-.403 0-.557-.254-.557-.636v-1.732h1.372l-.008-.755zm7.157-.095a1.151 1.151 0 00-.586.14 1.13 1.13 0 00-.43.416v-.46h-.831V42.8h.839v-2.13c0-.627.274-.977.807-.977.18-.002.357.03.524.096l.258-.795a1.817 1.817 0 00-.597-.103l.016.016zm-10.82.397a2.918 2.918 0 00-1.574-.397c-.976 0-1.613.46-1.613 1.216 0 .62.468 1 1.33 1.12l.404.056c.46.063.678.182.678.397 0 .294-.306.46-.88.46a2.076 2.076 0 01-1.282-.396l-.404.643a2.815 2.815 0 001.67.493c1.114 0 1.76-.517 1.76-1.24s-.509-1.017-1.348-1.136l-.403-.056c-.364-.047-.654-.119-.654-.373s.274-.445.734-.445c.425.005.842.117 1.21.326l.372-.668zm22.476-.397a1.151 1.151 0 00-.586.14 1.13 1.13 0 00-.43.416v-.46h-.832V42.8h.84v-2.13c0-.627.274-.977.806-.977.18-.002.358.03.525.096l.258-.795a1.817 1.817 0 00-.597-.103l.016.016zm-10.812 1.986a1.893 1.893 0 00.583 1.441 1.954 1.954 0 001.474.546c.504.025 1-.136 1.388-.453l-.403-.667c-.29.217-.644.337-1.009.341-.31-.024-.6-.163-.81-.389a1.21 1.21 0 010-1.654c.21-.225.5-.364.81-.388a1.71 1.71 0 011.009.341l.403-.667a2.037 2.037 0 00-1.388-.453 1.977 1.977 0 00-1.474.546 1.893 1.893 0 00-.583 1.44v.016zm7.859 0v-1.89h-.84v.46a1.483 1.483 0 00-1.21-.556c-.535 0-1.048.21-1.426.582a1.97 1.97 0 00-.591 1.404c0 .527.213 1.033.59 1.405.38.373.892.582 1.427.582a1.484 1.484 0 001.21-.556v.46h.84v-1.89zm-3.123 0c.014-.223.093-.438.229-.618s.322-.316.535-.393a1.183 1.183 0 011.246.29 1.142 1.142 0 01.226 1.24 1.148 1.148 0 01-.427.506c-.19.123-.411.19-.639.191a1.172 1.172 0 01-.855-.356 1.14 1.14 0 01-.315-.86zm-10.127-1.986a2.032 2.032 0 00-1.418.601 1.97 1.97 0 00-.57 1.413c.007.527.227 1.03.61 1.397.384.367.9.57 1.435.562.58.03 1.151-.155 1.602-.517l-.404-.611a1.853 1.853 0 01-1.121.397 1.08 1.08 0 01-.769-.234 1.048 1.048 0 01-.385-.696h2.864v-.318c0-1.192-.75-1.986-1.831-1.986l-.013-.008zm0 .739a.968.968 0 01.683.261.943.943 0 01.294.66h-2.017a.971.971 0 01.321-.666 1 1 0 01.703-.255h.017zm21.024 1.255v-3.425h-.806v1.987a1.483 1.483 0 00-1.21-.556c-.536 0-1.049.21-1.427.582a1.966 1.966 0 00-.001 2.809c.379.373.892.582 1.427.582a1.484 1.484 0 001.21-.556v.46h.807v-1.883zm1.4 1.347a.406.406 0 01.278.107.363.363 0 010 .532.406.406 0 01-.124.08.385.385 0 01-.154.032.409.409 0 01-.363-.23.368.368 0 01.21-.493.411.411 0 01.165-.028h-.012zm0 .672a.292.292 0 00.21-.088.291.291 0 000-.397.299.299 0 00-.21-.087.307.307 0 00-.214.087.291.291 0 000 .397.304.304 0 00.226.087h-.012zm.024-.473a.163.163 0 01.105.032.098.098 0 01.037.083.096.096 0 01-.029.072.143.143 0 01-.084.035l.117.131h-.093l-.109-.13h-.036v.13h-.077v-.35l.17-.003zm-.088.067v.096h.088a.087.087 0 00.049 0 .04.04 0 000-.036.04.04 0 000-.036.085.085 0 00-.049 0l-.088-.024zm-4.438-1.613c.013-.223.093-.438.228-.618a1.184 1.184 0 011.782-.104 1.141 1.141 0 01.226 1.24 1.15 1.15 0 01-.427.506 1.18 1.18 0 01-.64.192 1.174 1.174 0 01-.854-.356 1.137 1.137 0 01-.315-.86zm-28.335 0v-1.899h-.839v.461a1.483 1.483 0 00-1.21-.556c-.535 0-1.048.21-1.427.582a1.969 1.969 0 000 2.809c.379.373.892.582 1.427.582a1.485 1.485 0 001.21-.556v.46h.84v-1.883zm-3.122 0c.013-.223.092-.438.228-.618s.322-.316.536-.393a1.184 1.184 0 011.246.29 1.142 1.142 0 01.226 1.24c-.09.206-.238.382-.427.505a1.18 1.18 0 01-.64.192 1.173 1.173 0 01-.86-.353 1.138 1.138 0 01-.317-.863h.008z" fill="#fff"/></svg>