<svg width="20" height="20" fill="none" xmlns="http://www.w3.org/2000/svg"><g clip-path="url(#clip0)" fill="#8998A4"><path d="M9.014 14.087c-1.55-.161-2.948-.543-4.145-1.48-.148-.116-.302-.228-.437-.358-.524-.503-.577-1.08-.162-1.673.354-.508.95-.644 1.568-.353.12.057.234.128.344.203 2.23 1.533 5.294 1.575 7.534.07.221-.17.458-.31.733-.38.535-.137 1.033.059 1.32.526.327.534.323 1.055-.08 1.47-.62.636-1.364 1.095-2.192 1.416-.782.303-1.64.456-2.487.557.128.14.188.208.268.289 1.152 1.157 2.308 2.31 3.456 3.47.391.395.473.886.258 1.346-.236.502-.763.833-1.28.798-.327-.023-.582-.186-.81-.415-.868-.874-1.753-1.732-2.605-2.623-.248-.26-.367-.21-.586.014-.874.9-1.763 1.787-2.656 2.668-.402.396-.88.467-1.345.24-.494-.239-.81-.744-.785-1.252.017-.343.186-.605.421-.84 1.14-1.138 2.277-2.28 3.413-3.42.076-.075.146-.155.255-.273z"/><path d="M9.96 10.123c-2.767-.01-5.035-2.302-5.019-5.073A5.07 5.07 0 0110.021 0c2.798.008 5.045 2.297 5.03 5.127-.014 2.765-2.297 5.006-5.092 4.996zm2.513-5.066A2.465 2.465 0 0010 2.585a2.469 2.469 0 00-2.479 2.502 2.465 2.465 0 002.492 2.453 2.46 2.46 0 002.46-2.483z"/></g><defs><clipPath id="clip0"><path fill="#fff" d="M0 0h20v20H0z"/></clipPath></defs></svg>