<svg width="20" height="20" fill="none" xmlns="http://www.w3.org/2000/svg"><path fill-rule="evenodd" clip-rule="evenodd" d="M18.722 5.996a.4.4 0 01-.076.115L7.02 17.738a.395.395 0 01-.198.181L1.05 19.536c-.012.006-.026.007-.04.01l-.019.007-.01.001a.388.388 0 01-.237.002c-.008-.003-.016 0-.025-.004-.003-.001-.005-.004-.009-.005a.389.389 0 01-.1-.059c-.016-.012-.033-.022-.047-.036-.013-.014-.024-.03-.036-.047a.399.399 0 01-.058-.1l-.006-.009c-.003-.008 0-.016-.003-.025a.41.41 0 01.001-.237c.002-.003 0-.006.002-.01l.006-.02c.004-.012.005-.026.01-.039l1.617-5.771a.398.398 0 01.181-.198l11.45-11.45c.016-.019.036-.035.053-.053l.125-.125c.006-.006.014-.008.02-.014a3.33 3.33 0 012.308-.937 3.353 3.353 0 013.353 3.353c0 .858-.331 1.634-.863 2.226zm-1.574.462L15.64 4.95 5.79 14.8c.001.004.006.005.007.009l.99 2.011 10.36-10.362zM1.485 18.53l1.16-.324-.836-.835-.324 1.16zm.576-2.06l1.483 1.484 2.55-.715S5.016 15.001 5.014 15l-2.238-1.08-.715 2.55zm3.145-2.252l.008.008 9.85-9.85-1.508-1.509L3.195 13.23l2.011.99zM16.22 1.25a2.53 2.53 0 00-1.87.83l-.003-.002-.214.214 3.591 3.591.22-.22-.003-.003a2.53 2.53 0 00.825-1.865A2.545 2.545 0 0016.22 1.25z" fill="#36C0F1"/></svg>