<svg width="20" height="18" fill="none" xmlns="http://www.w3.org/2000/svg"><path d="M18.631 14.237l-2.786-2.786c-.555-.553-1.474-.536-2.048.038l-1.404 1.404-.277-.155c-.886-.49-2.1-1.164-3.376-2.441C7.46 9.017 6.786 7.8 6.293 6.914l-.15-.27.941-.94.463-.465c.576-.575.591-1.494.038-2.048L4.799.404C4.245-.149 3.326-.132 2.75.443l-.785.79.022.02a4.54 4.54 0 00-.647 1.142 4.729 4.729 0 00-.288 1.158c-.368 3.05 1.026 5.837 4.808 9.62 5.228 5.227 9.442 4.833 9.623 4.813a4.709 4.709 0 001.161-.291 4.53 4.53 0 001.138-.645l.017.015.795-.778c.574-.576.59-1.495.037-2.05z" fill="#36C0F1"/></svg>