<svg width="40" height="40" fill="none" xmlns="http://www.w3.org/2000/svg"><path d="M31.693 14.302a7.158 7.158 0 01-5.665-2.79L15.04 17.649c.257.74.399 1.537.399 2.36a7.03 7.03 0 01-.407 2.366l10.98 6.13a7.14 7.14 0 015.672-2.807c3.937 0 7.152 3.206 7.152 7.15A7.157 7.157 0 0131.684 40a7.157 7.157 0 01-7.15-7.151c0-.83.14-1.628.406-2.367l-10.972-6.13a7.117 7.117 0 01-5.672 2.808c-3.937 0-7.151-3.207-7.151-7.152 0-3.945 3.214-7.15 7.159-7.15a7.152 7.152 0 015.681 2.815l10.98-6.138a7.121 7.121 0 01-.415-2.384C24.55 3.214 27.756 0 31.7 0a7.157 7.157 0 017.151 7.151c0 3.945-3.214 7.151-7.16 7.151zm0 23.447A4.913 4.913 0 0036.6 32.84a4.913 4.913 0 00-4.908-4.908 4.913 4.913 0 00-4.909 4.909 4.918 4.918 0 004.909 4.908zM8.304 15.1a4.913 4.913 0 00-4.909 4.91 4.913 4.913 0 004.909 4.908 4.913 4.913 0 004.909-4.909A4.918 4.918 0 008.304 15.1zM31.693 2.252a4.913 4.913 0 00-4.909 4.908 4.913 4.913 0 004.909 4.91 4.913 4.913 0 004.908-4.91 4.913 4.913 0 00-4.908-4.908z" fill="#36C0F1"/></svg>