<svg width="74" height="74" fill="none" xmlns="http://www.w3.org/2000/svg"><path d="M71.743 33.511c.17-.903.367-2.487.156-4.28-.418-3.558-2.239-6.307-5.275-7.977-.676-1.879-3.669-8.668-12.251-10.977-.99-1.117-4.679-4.647-11.11-3.77l-.092-.072C42.241 5.7 40.306 4.171 37 4.171s-5.242 1.53-6.172 2.264l-.092.073c-6.431-.879-10.12 2.652-11.11 3.77-8.581 2.308-11.574 9.097-12.25 10.976-3.037 1.67-4.857 4.419-5.276 7.976a14.578 14.578 0 00.157 4.281C1.364 34.257 0 35.871 0 38.78c0 5.116 2.004 9.652 5.958 13.482 3.279 3.176 7.25 5.285 10.149 6.825 1.538.817 2.866 1.522 3.357 2.014.299.298.318 1.548.332 2.375.022 1.398.043 2.72.834 3.573 1.318 1.423 4.43 2.282 9.514 2.626 3.4.23 6.453.14 6.856.126a73.224 73.224 0 006.856-.127c5.085-.343 8.197-1.202 9.515-2.625.79-.853.811-2.175.834-3.573.013-.827.033-2.077.332-2.376.491-.49 1.82-1.196 3.357-2.013 2.899-1.54 6.87-3.65 10.149-6.825C71.996 48.43 74 43.895 74 38.779c0-2.907-1.364-4.522-2.257-5.268zM56.841 57.106c-1.835.975-3.162 1.68-3.89 2.408-.941.94-.965 2.458-.989 3.925-.01.643-.03 1.84-.237 2.086-.353.38-1.602 1.232-5.854 1.718L61.945 30.86a1.121 1.121 0 10-2.052-.906L43.323 67.46c-.882.053-1.738.085-2.52.103l8.303-35.706a1.121 1.121 0 00-2.184-.508l-8.426 36.234A55.67 55.67 0 0137 67.557l-.04.001c-.013 0-.567.02-1.455.026l-2.864-12.315a1.12 1.12 0 10-2.184.508l2.741 11.788a66.578 66.578 0 01-2.521-.104l-16.57-37.506a1.132 1.132 0 00-1.48-.573c-.558.247-.819.92-.572 1.479L28.13 67.242c-4.252-.485-5.501-1.337-5.853-1.717-.209-.246-.228-1.443-.238-2.086-.024-1.467-.048-2.984-.989-3.925-.728-.729-2.055-1.433-3.89-2.408-5.58-2.964-14.917-7.923-14.917-18.327 0-2.735 1.637-3.705 1.779-3.784.494-.233.719-.778.57-1.305-.085-.306-2.032-7.531 4.207-10.651.28-.14.489-.393.576-.692.006-.02.592-1.989 2.266-4.196 2.218-2.922 5.209-4.871 8.889-5.79.246-.063.467-.21.621-.412.133-.172 3.312-4.221 9.686-3.159.556.093.978-.275 1.383-.595.843-.666 2.254-1.781 4.781-1.781 2.527 0 3.938 1.115 4.781 1.78.406.321.828.689 1.383.596 6.373-1.062 9.554 2.987 9.682 3.155.155.206.376.353.626.415 3.68.92 6.67 2.869 8.888 5.791 1.675 2.207 2.26 4.176 2.265 4.193.087.302.296.554.577.695 6.234 3.117 4.295 10.333 4.206 10.65a1.121 1.121 0 00.578 1.31c.017.008 1.772.964 1.772 3.78 0 10.404-9.338 15.363-14.917 18.327z" fill="#fff"/><path d="M66.33 37.85a1.121 1.121 0 00-1.556.302l-11.71 17.341a1.132 1.132 0 00.201 1.481c.503.428 1.288.32 1.657-.226l11.71-17.341a1.12 1.12 0 00-.302-1.557zM51.605 16.16a1.121 1.121 0 00-1.346.838l-2.225 9.568a1.132 1.132 0 00.818 1.34c.6.153 1.226-.23 1.367-.832l2.225-9.568a1.122 1.122 0 00-.839-1.346zM43.1 12.55a1.123 1.123 0 00-1.235.995l-3.588 33.487a1.132 1.132 0 00.996 1.234 1.132 1.132 0 001.234-.996l3.588-33.487a1.122 1.122 0 00-.996-1.234zM20.936 55.493L9.226 38.152a1.12 1.12 0 10-1.858 1.255l11.71 17.342a1.132 1.132 0 001.656.225 1.13 1.13 0 00.202-1.48zm10.592-5.008l-7.787-33.487a1.121 1.121 0 10-2.185.508l7.788 33.487c.14.603.766.985 1.367.833a1.13 1.13 0 00.817-1.34zm4.195-3.453l-3.588-33.487a1.122 1.122 0 00-2.23.239l3.588 33.486c.065.608.627 1.06 1.234.996a1.132 1.132 0 00.996-1.234z" fill="#fff"/></svg>