<svg width="34" height="34" fill="none" xmlns="http://www.w3.org/2000/svg"><path d="M3.025 16.87l4.382 3.166a2.036 2.036 0 01.749 2.29L6.482 27.45a3.13 3.13 0 001.15 3.552 3.161 3.161 0 003.77.01l4.383-3.167a2.07 2.07 0 012.43 0l4.383 3.166a3.162 3.162 0 003.77-.01 3.129 3.129 0 001.15-3.551l-1.674-5.123a2.037 2.037 0 01.751-2.29l4.383-3.167a3.182 3.182 0 00-1.88-5.76H23.68a2.057 2.057 0 01-1.963-1.417L20.04 4.569a3.202 3.202 0 00-6.082 0L12.284 9.69a2.059 2.059 0 01-1.964 1.417H4.903a3.182 3.182 0 00-1.878 5.763zm-.088-3.203a2.01 2.01 0 011.966-1.424h5.417a3.19 3.19 0 003.042-2.199l1.673-5.123a2.07 2.07 0 013.928 0l1.674 5.123a3.19 3.19 0 003.042 2.199h5.416a2.048 2.048 0 011.216 3.708l-4.382 3.167a3.166 3.166 0 00-1.163 3.56l1.673 5.124a1.993 1.993 0 01-.74 2.285 2.023 2.023 0 01-2.437.005l-4.383-3.166a3.202 3.202 0 00-3.756 0l-4.384 3.164a2.024 2.024 0 01-2.437-.006 1.992 1.992 0 01-.74-2.284l1.674-5.124a3.167 3.167 0 00-1.164-3.56L3.688 15.95a1.992 1.992 0 01-.751-2.284zM30.6 3.4a1.7 1.7 0 100-3.4 1.7 1.7 0 000 3.4zm0-2.267a.567.567 0 110 1.134.567.567 0 010-1.134zM6.233 7.367a1.7 1.7 0 100-3.4 1.7 1.7 0 000 3.4zm0-2.267a.567.567 0 110 1.133.567.567 0 010-1.133zM1.7 25.5a1.7 1.7 0 100-3.4 1.7 1.7 0 000 3.4zm0-2.267a.567.567 0 110 1.133.567.567 0 010-1.133z" fill="#fff"/><path d="M26.067 9.067a2.267 2.267 0 100-4.534 2.267 2.267 0 000 4.534zm0-3.4a1.133 1.133 0 110 2.266 1.133 1.133 0 010-2.266zm3.4 26.066a2.267 2.267 0 104.533 0 2.267 2.267 0 00-4.533 0zm3.4 0a1.133 1.133 0 11-2.267 0 1.133 1.133 0 012.267 0zm-13.6-11.9a1.7 1.7 0 100 3.4 1.7 1.7 0 000-3.4zm0 2.267a.567.567 0 110-1.133.567.567 0 010 1.133zm2.833 2.267a.567.567 0 11-1.133 0 .567.567 0 011.133 0zm1.7 2.266a.567.567 0 11-1.133 0 .567.567 0 011.133 0zm1.7 2.267a.567.567 0 11-1.133 0 .567.567 0 011.133 0zm-10.767-9.067a1.7 1.7 0 100 3.4 1.7 1.7 0 000-3.4zm0 2.267a.567.567 0 110-1.133.567.567 0 010 1.133zm-1.7 2.267a.567.567 0 11-1.133 0 .567.567 0 011.133 0zm-1.7 2.266a.567.567 0 11-1.133 0 .567.567 0 011.133 0zm-1.7 2.267a.567.567 0 11-1.133 0 .567.567 0 011.133 0zm3.676-10.225a1.704 1.704 0 10.587-3.357 1.704 1.704 0 00-.587 3.357zm-.035-2.139a.562.562 0 01.424-.094.567.567 0 11-.424.095zm6.148 1.854a1.69 1.69 0 001.27.284 1.7 1.7 0 10-1.27-.283zm.514-1.716a.563.563 0 01.465-.24.567.567 0 11-.465.24zm-3.914-1.117a1.69 1.69 0 001.27.284 1.7 1.7 0 10-1.27-.284zm.515-1.716A.563.563 0 0117 13.6a.566.566 0 11-.465.24zm7.727 2.919a.567.567 0 10-.928-.653.567.567 0 00.928.652zm-6.801-5.668a.567.567 0 10-.927-.652.567.567 0 00.927.652zm0-2.832a.567.567 0 10-.927-.653.567.567 0 00.927.652zm0-2.834a.567.567 0 10-.927-.652.567.567 0 00.927.652zm8.5-2.834a.567.567 0 10-.927-.652.567.567 0 00.927.652zM4.997 8.826a.567.567 0 10-.928-.652.567.567 0 00.928.652zm-.36 12.381a.567.567 0 10.927.653.567.567 0 00-.927-.652zm23.027 11.986a.567.567 0 10-.927-.652.567.567 0 00.927.652zm-.567-17.567a.567.567 0 10-.928-.652.567.567 0 00.928.652zm2.833-1.134a.566.566 0 10-.926-.651.566.566 0 00.926.651zm-19.404 2.405a.567.567 0 10-.652-.928.567.567 0 00.652.928zm-2.833-1.134a.566.566 0 10-.651-.927.566.566 0 00.65.927zM4.86 14.63a.566.566 0 10-.652-.927.566.566 0 00.651.927z" fill="#fff"/></svg>