<svg width="110" height="110" fill="none" xmlns="http://www.w3.org/2000/svg"><g clip-path="url(#clip0)"><path d="M61.373 80.23a10.35 10.35 0 008.12-7.159c.523-1.484.61-3.142.349-4.801l-.873-4.714-20.341 3.579.785 4.714c.262 1.659.96 3.23 1.92 4.453 2.27 2.968 6.112 4.627 10.04 3.928zm39.024-53.603c6.286-.175 10.04 6.897 6.373 11.96L92.366 58.492c-1.485 2.008-1.834 4.627-.96 6.984l8.293 23.135c2.095 5.937-3.492 11.611-9.429 9.69l-23.396-7.507c-2.358-.786-4.977-.262-6.897 1.222l-19.469 15.016c-4.976 3.841-12.135.262-12.135-5.937l-.087-24.619a7.36 7.36 0 00-3.317-6.198L4.627 56.484C-.523 52.904.612 45.048 6.548 43.04l23.397-7.683a7.656 7.656 0 004.889-5.063L41.73 6.722C43.477.698 51.334-.61 55 4.365l14.492 19.818a7.498 7.498 0 006.285 3.055l24.619-.611zM85.643 47.056c-1.047-5.937-6.722-9.953-12.658-8.905-5.937 1.047-9.953 6.722-8.905 12.658 1.047 5.937 6.722 9.953 12.659 8.905 5.936-1.047 9.952-6.722 8.904-12.658zm-36.754 6.46c-1.047-5.937-6.722-9.953-12.658-8.905-5.937 1.048-9.953 6.722-8.905 12.659 1.047 5.936 6.722 9.952 12.659 8.905 5.936-1.048 9.952-6.723 8.904-12.66z" fill="#FFA800"/><path d="M41.643 6.722l-6.897 23.572a7.656 7.656 0 01-4.888 5.063L6.548 43.04c-5.936 1.92-7.071 9.865-1.92 13.444L24.88 70.365a7.474 7.474 0 013.318 6.199l.087 24.619c0 5.849 6.199 9.254 11.087 6.634-3.492-.523-6.46-3.404-6.547-7.42l-.087-24.62a7.36 7.36 0 00-3.318-6.198L9.167 55.611c-5.15-3.58-4.016-11.436 1.92-13.444l23.398-7.683a7.656 7.656 0 004.889-5.063L46.27 5.849c.611-2.095 2.008-3.666 3.754-4.54-3.492-.436-7.246 1.572-8.38 5.413z" fill="#EDF6F9"/><path d="M45.398 2.183c1.921.261 3.754 1.222 5.064 3.055l14.492 19.818a7.498 7.498 0 006.286 3.055l24.531-.698c6.286-.175 10.04 6.896 6.373 11.96L87.827 59.365c-1.484 2.008-1.833 4.627-.96 6.984l8.293 23.135c1.397 3.841-.523 7.595-3.579 9.254 5.413.786 10.127-4.54 8.119-10.04l-8.294-23.222c-.873-2.357-.436-4.976.96-6.984l14.405-19.905c3.667-5.063-.087-12.135-6.373-11.96l-24.531.698c-2.445.088-4.89-1.047-6.286-3.055L55.001 4.365c-2.356-3.23-6.46-3.841-9.603-2.182z" fill="#EDF6F9"/><path d="M35.896 77.975c2.945-.514 4.976-2.972 4.537-5.489-.44-2.517-3.184-4.141-6.128-3.627-2.945.514-4.976 2.972-4.537 5.49.44 2.516 3.184 4.14 6.128 3.626zm48.707-8.552c2.945-.514 4.976-2.972 4.537-5.489-.44-2.517-3.183-4.141-6.128-3.627-2.945.514-4.976 2.972-4.537 5.49.44 2.516 3.184 4.14 6.128 3.626z" fill="#36C0F1"/><path d="M45.135 83.722l-9.865 18.683m-6.546-47.842L7.86 50.984m43.563-20.952L48.367 9.079M81.715 44l19.032-9.429M77.875 77.175l14.754 15.103" stroke="#EDF6F9" stroke-width="3" stroke-miterlimit="10" stroke-linecap="round" stroke-linejoin="round"/><path d="M69.49 73.071c-1.134 3.58-4.102 6.46-8.118 7.16-1.31.261-2.532.174-3.754 0-2.532-.525-4.715-1.921-6.286-3.93 1.135-3.579 4.103-6.46 8.12-7.158 2.618-.437 5.15.087 7.245 1.397a12.88 12.88 0 012.794 2.531z" fill="#BEC3C7"/><path opacity=".57" d="M66.697 70.54c-1.746.087-3.492.698-4.889 1.833-2.008 1.572-3.404 4.016-4.016 6.548-.087.436-.174.785-.174 1.222-2.532-.524-4.715-1.92-6.286-3.929 1.135-3.58 4.103-6.46 8.12-7.158 2.618-.35 5.15.174 7.245 1.484z" fill="#A7A9AC"/><path d="M68.968 63.556l.785 4.714c.262 1.659.175 3.317-.349 4.801-2.27-2.968-6.111-4.627-10.04-3.928-3.928.698-6.984 3.58-8.119 7.159-.96-1.223-1.658-2.794-1.92-4.453l-.786-4.714 20.429-3.58z" fill="#2D1E00"/><path d="M72.985 38.15c5.937-1.047 11.611 2.969 12.659 8.906 1.047 5.936-2.969 11.61-8.905 12.658-5.937 1.048-11.611-2.968-12.659-8.904-1.047-5.937 2.969-11.612 8.905-12.66zm7.945 9.691l-6.112 1.048 3.23-5.238c-1.309-.786-2.793-1.135-4.365-.873-3.317.61-5.587 3.841-4.976 7.159A6.287 6.287 0 0075.866 55c3.405-.524 5.675-3.754 5.064-7.159zm-44.699-3.23c5.937-1.047 11.611 2.968 12.659 8.905 1.047 5.936-2.968 11.611-8.905 12.659-5.936 1.047-11.611-2.969-12.659-8.905-1.047-5.937 2.969-11.611 8.905-12.659zm7.945 9.69l-6.024 1.048 3.23-5.238c-1.31-.786-2.794-1.135-4.365-.873-3.318.611-5.588 3.841-5.064 7.159.612 3.317 3.842 5.587 7.16 4.976 3.404-.524 5.674-3.754 5.063-7.071z" fill="#FFFBF0"/><path d="M74.905 48.976l6.11-1.047c.612 3.317-1.658 6.547-4.975 7.158-3.318.611-6.548-1.658-7.16-5.063-.61-3.318 1.66-6.548 4.977-7.159 1.484-.262 3.055 0 4.365.873l-3.317 5.238zM38.152 55.35l6.024-1.048c.61 3.317-1.659 6.547-4.977 7.158-3.317.611-6.547-1.658-7.158-4.976-.611-3.317 1.659-6.547 5.063-7.159 1.484-.262 3.056 0 4.365.873l-3.317 5.151z" fill="#2D1E00"/><path d="M55 4.365l14.493 19.818a7.498 7.498 0 006.285 3.055l24.532-.698c6.286-.175 10.04 6.897 6.373 11.96L92.278 58.405c-1.484 2.008-1.833 4.627-.96 6.984l8.294 23.135c2.095 5.936-3.492 11.611-9.429 9.69l-23.397-7.508c-2.357-.785-4.976-.262-6.897 1.223l-19.468 15.015c-4.976 3.842-12.135.262-12.135-5.936l-.087-24.62a7.36 7.36 0 00-3.318-6.198L4.627 56.484C-.523 52.904.612 45.048 6.548 43.04l23.397-7.683a7.656 7.656 0 004.889-5.063L41.73 6.722C43.477.698 51.334-.61 55 4.365z" stroke="#2D1E00" stroke-width="2" stroke-miterlimit="10" stroke-linecap="round" stroke-linejoin="round"/><path d="M48.89 53.516c1.047 5.936-2.968 11.611-8.905 12.659-5.936 1.047-11.611-2.969-12.659-8.905-1.047-5.937 2.969-11.611 8.905-12.659a10.9 10.9 0 0112.659 8.905zm36.754-6.46c1.047 5.936-2.969 11.61-8.905 12.658-5.937 1.048-11.611-2.968-12.659-8.904-1.047-5.937 2.969-11.612 8.905-12.66 5.937-1.047 11.611 2.969 12.659 8.906zM51.335 76.302a9.773 9.773 0 01-1.92-4.453l-.786-4.714 20.341-3.58.786 4.715c.262 1.659.174 3.317-.35 4.801" stroke="#2D1E00" stroke-width="2" stroke-miterlimit="10" stroke-linecap="round" stroke-linejoin="round"/><path d="M69.49 73.071c-1.134 3.58-4.102 6.46-8.118 7.16-3.929.698-7.77-.961-10.04-3.93 1.135-3.579 4.103-6.46 8.12-7.158 3.928-.699 7.769.96 10.039 3.928z" stroke="#2D1E00" stroke-width="2" stroke-miterlimit="10" stroke-linecap="round" stroke-linejoin="round"/></g><defs><clipPath id="clip0"><path fill="#fff" d="M0 0h109.476v110H0z"/></clipPath></defs></svg>