<svg width="24" height="24" fill="none" xmlns="http://www.w3.org/2000/svg"><path d="M23.005 16.21c-.714-.856-1.555-1.588-2.35-2.365-.719-.7-.764-1.106-.187-1.914.63-.882 1.307-1.73 1.943-2.608.593-.82 1.2-1.639 1.511-2.621.198-.625.023-.901-.618-1.01-.11-.02-.224-.02-.337-.02l-3.802-.005c-.469-.007-.727.197-.893.612a23.266 23.266 0 01-.72 1.663c-.605 1.228-1.28 2.414-2.226 3.42-.21.22-.44.5-.789.386-.436-.16-.565-.878-.557-1.121l-.004-4.39c-.085-.627-.224-.906-.846-1.028H9.18c-.527 0-.792.204-1.073.534-.163.19-.212.314.122.378.656.124 1.025.548 1.123 1.206.157 1.05.146 2.104.056 3.159-.027.308-.08.615-.202.903-.191.452-.5.543-.905.265-.367-.251-.624-.606-.876-.963-.948-1.339-1.704-2.782-2.32-4.3-.178-.437-.485-.703-.95-.71a96.936 96.936 0 00-3.422 0c-.687.014-.891.347-.612.97 1.243 2.763 2.626 5.45 4.431 7.898.927 1.257 1.991 2.366 3.366 3.151 1.559.891 3.236 1.16 5.003 1.077.827-.039 1.075-.254 1.114-1.079.025-.564.09-1.125.368-1.631.273-.498.686-.593 1.163-.283.239.155.44.352.63.56.465.51.914 1.034 1.397 1.526.606.617 1.324.982 2.227.907h3.495c.563-.036.855-.726.532-1.355-.227-.44-.525-.832-.842-1.211z" fill="#8998A4"/></svg>